<?xml version="1.0" encoding="UTF-8" standalone="no"?>
<svg
   xmlns:dc="http://purl.org/dc/elements/1.1/"
   xmlns:cc="http://creativecommons.org/ns#"
   xmlns:rdf="http://www.w3.org/1999/02/22-rdf-syntax-ns#"
   xmlns:svg="http://www.w3.org/2000/svg"
   xmlns="http://www.w3.org/2000/svg"
   xmlns:sodipodi="http://sodipodi.sourceforge.net/DTD/sodipodi-0.dtd"
   xmlns:inkscape="http://www.inkscape.org/namespaces/inkscape"
   viewBox="0 0 512 512"
   style="height: 512px; width: 512px;"
   version="1.1"
   id="svg8"
   sodipodi:docname="ruler.svg"
   inkscape:version="1.0.2 (e86c870879, 2021-01-15)">
  <metadata
     id="metadata14">
    <rdf:RDF>
      <cc:Work
         rdf:about="">
        <dc:format>image/svg+xml</dc:format>
        <dc:type
           rdf:resource="http://purl.org/dc/dcmitype/StillImage" />
        <dc:title></dc:title>
      </cc:Work>
    </rdf:RDF>
  </metadata>
  <defs
     id="defs12" />
  <sodipodi:namedview
     pagecolor="#ffffff"
     bordercolor="#666666"
     borderopacity="1"
     objecttolerance="10"
     gridtolerance="10"
     guidetolerance="10"
     inkscape:pageopacity="0"
     inkscape:pageshadow="2"
     inkscape:window-width="1920"
     inkscape:window-height="1027"
     id="namedview10"
     showgrid="false"
     inkscape:zoom="1.3964844"
     inkscape:cx="256"
     inkscape:cy="256"
     inkscape:window-x="0"
     inkscape:window-y="0"
     inkscape:window-maximized="1"
     inkscape:current-layer="svg8" />
  <path
     d="M0 0h512v512H0z"
     fill="#000"
     fill-opacity="1"
     id="path2" />
  <path
     d="m 403.15,480.9 77.75,-77.75 -9.91,-9.9 -27.56,27.55 -12.74,-12.75 27.53,-27.6 -21.16,-21.1 -27.51,27.5 -12.8,-12.8 27.55,-27.5 -21.15,-21.1 -50.2,50.1 -12.8,-12.8 50.2,-50.1 -21.2,-21.2 -27.5,27.6 -12.8,-12.8 27.5,-27.6 -21.1,-21.1 -27.5,27.5 -12.8,-12.8 27.5,-27.5 -21.1,-21.2 -50.2,50.2 -12.8,-12.8 50.2,-50.2 -21.2,-21.1 -27.5,27.5 -12.8,-12.8 27.5,-27.5 -21.1,-21.2 -27.6,27.6 -12.8,-12.8 27.6,-27.6 -21.1,-21.1 -50.2,50.2 -12.8,-12.8 50.2,-50.2 -21.2,-21.1 -27.5,27.5 -12.8,-12.8 27.5,-27.5 -21.1,-21.2 -27.6,27.6 -12.8,-12.8 27.6,-27.6 -9.9,-9.9 -77.8,77.8 z"
     fill="#ffffff"
     fill-opacity="1"
     id="path4"
     sodipodi:nodetypes="ccccccccccccccccccccccccccccccccccccccccccccccccc" />
</svg>
