<?xml version="1.0" encoding="UTF-8" standalone="no"?>
<svg
   width="250"
   height="250"
   viewBox="0 0 66.145833 66.145833"
   version="1.1"
   id="svg8"
   inkscape:version="1.2.2 (b0a8486541, 2022-12-01)"
   sodipodi:docname="cobwebs.svg"
   xml:space="preserve"
   inkscape:export-filename="diagonals.png"
   inkscape:export-xdpi="96"
   inkscape:export-ydpi="96"
   xmlns:inkscape="http://www.inkscape.org/namespaces/inkscape"
   xmlns:sodipodi="http://sodipodi.sourceforge.net/DTD/sodipodi-0.dtd"
   xmlns="http://www.w3.org/2000/svg"
   xmlns:svg="http://www.w3.org/2000/svg"
   xmlns:rdf="http://www.w3.org/1999/02/22-rdf-syntax-ns#"
   xmlns:cc="http://creativecommons.org/ns#"
   xmlns:dc="http://purl.org/dc/elements/1.1/"><defs
     id="defs2"><rect
       x="9.3215187"
       y="9.7757984"
       width="47.632646"
       height="47.599103"
       id="rect1569" /><clipPath
       clipPathUnits="userSpaceOnUse"
       id="clipPath4425"><g
         id="g4429"><path
           d="M 0.89466664,38.430692 H 816.89465 V 1094.4307 H 0.89466664 Z"
           id="path4427"
           style="stroke-width:1.33333" /></g></clipPath><clipPath
       clipPathUnits="userSpaceOnUse"
       id="clipPath4419"><g
         id="g4423"><path
           d="M 0.89466664,38.430692 H 816.89465 V 1094.4307 H 0.89466664 Z"
           id="path4421"
           style="stroke-width:1.33333" /></g></clipPath><clipPath
       clipPathUnits="userSpaceOnUse"
       id="clipPath4437"><g
         id="g4441"><path
           d="M 0.89466664,38.430692 H 816.89465 V 1094.4307 H 0.89466664 Z"
           id="path4439"
           style="stroke-width:1.33333" /></g></clipPath><clipPath
       clipPathUnits="userSpaceOnUse"
       id="clipPath4413"><g
         id="g4417"><path
           d="M 0.89466664,38.430692 H 816.89465 V 1094.4307 H 0.89466664 Z"
           id="path4415"
           style="stroke-width:1.33333" /></g></clipPath><clipPath
       clipPathUnits="userSpaceOnUse"
       id="clipPath4407"><g
         id="g4411"><path
           d="M 0.89466664,38.430692 H 816.89465 V 1094.4307 H 0.89466664 Z"
           id="path4409"
           style="stroke-width:1.33333" /></g></clipPath><clipPath
       clipPathUnits="userSpaceOnUse"
       id="clipPath4401"><g
         id="g4405"><path
           d="M 0.89466664,38.430692 H 816.89465 V 1094.4307 H 0.89466664 Z"
           id="path4403"
           style="stroke-width:1.33333" /></g></clipPath><clipPath
       clipPathUnits="userSpaceOnUse"
       id="clipPath4395"><g
         id="g4399"><path
           d="M 0.89466664,38.430692 H 816.89465 V 1094.4307 H 0.89466664 Z"
           id="path4397"
           style="stroke-width:1.33333" /></g></clipPath><clipPath
       clipPathUnits="userSpaceOnUse"
       id="clipPath4389"><g
         id="g4393"><path
           d="M 0.89466664,38.430692 H 816.89465 V 1094.4307 H 0.89466664 Z"
           id="path4391"
           style="stroke-width:1.33333" /></g></clipPath><clipPath
       clipPathUnits="userSpaceOnUse"
       id="clipPath4383"><g
         id="g4387"><path
           d="M 0.89466664,38.430692 H 816.89465 V 1094.4307 H 0.89466664 Z"
           id="path4385"
           style="stroke-width:1.33333" /></g></clipPath><clipPath
       clipPathUnits="userSpaceOnUse"
       id="clipPath4377"><g
         id="g4381"><path
           d="M 0.89466664,38.430692 H 816.89465 V 1094.4307 H 0.89466664 Z"
           id="path4379"
           style="stroke-width:1.33333" /></g></clipPath><clipPath
       clipPathUnits="userSpaceOnUse"
       id="clipPath4371"><g
         id="g4375"><path
           d="M 0.89466664,38.430692 H 816.89465 V 1094.4307 H 0.89466664 Z"
           id="path4373"
           style="stroke-width:1.33333" /></g></clipPath><clipPath
       clipPathUnits="userSpaceOnUse"
       id="clipPath4341"><g
         id="g4345"><path
           d="M 0.89466664,38.430692 H 816.89465 V 1094.4307 H 0.89466664 Z"
           id="path4343"
           style="stroke-width:1.33333" /></g></clipPath><clipPath
       clipPathUnits="userSpaceOnUse"
       id="clipPath4335"><g
         id="g4339"><path
           d="M 0.89466664,38.430692 H 816.89465 V 1094.4307 H 0.89466664 Z"
           id="path4337"
           style="stroke-width:1.33333" /></g></clipPath><clipPath
       clipPathUnits="userSpaceOnUse"
       id="clipPath4329"><g
         id="g4333"><path
           d="M 0.89466664,38.430692 H 816.89465 V 1094.4307 H 0.89466664 Z"
           id="path4331"
           style="stroke-width:1.33333" /></g></clipPath><clipPath
       clipPathUnits="userSpaceOnUse"
       id="clipPath4323"><g
         id="g4327"><path
           d="M 0.89466664,38.430692 H 816.89465 V 1094.4307 H 0.89466664 Z"
           id="path4325"
           style="stroke-width:1.33333" /></g></clipPath><clipPath
       clipPathUnits="userSpaceOnUse"
       id="clipPath4317"><g
         id="g4321"><path
           d="M 0.89466664,38.430692 H 816.89465 V 1094.4307 H 0.89466664 Z"
           id="path4319"
           style="stroke-width:1.33333" /></g></clipPath><clipPath
       clipPathUnits="userSpaceOnUse"
       id="clipPath4311"><g
         id="g4315"><path
           d="M 0.89466664,38.430692 H 816.89465 V 1094.4307 H 0.89466664 Z"
           id="path4313"
           style="stroke-width:1.33333" /></g></clipPath><clipPath
       clipPathUnits="userSpaceOnUse"
       id="clipPath4305"><g
         id="g4309"><path
           d="M 0.89466664,38.430692 H 816.89465 V 1094.4307 H 0.89466664 Z"
           id="path4307"
           style="stroke-width:1.33333" /></g></clipPath><clipPath
       clipPathUnits="userSpaceOnUse"
       id="clipPath6117"><g
         id="g6121"><path
           d="M 0.89466664,38.430692 H 816.89465 V 1094.4307 H 0.89466664 Z"
           id="path6119"
           style="stroke-width:1.33333" /></g></clipPath><clipPath
       clipPathUnits="userSpaceOnUse"
       id="clipPath6111"><g
         id="g6115"><path
           d="M 0.89466664,38.430692 H 816.89465 V 1094.4307 H 0.89466664 Z"
           id="path6113"
           style="stroke-width:1.33333" /></g></clipPath><clipPath
       clipPathUnits="userSpaceOnUse"
       id="clipPath6105"><g
         id="g6109"><path
           d="M 0.89466664,38.430692 H 816.89465 V 1094.4307 H 0.89466664 Z"
           id="path6107"
           style="stroke-width:1.33333" /></g></clipPath><clipPath
       clipPathUnits="userSpaceOnUse"
       id="clipPath6099"><g
         id="g6103"><path
           d="M 0.89466664,38.430692 H 816.89465 V 1094.4307 H 0.89466664 Z"
           id="path6101"
           style="stroke-width:1.33333" /></g></clipPath><clipPath
       clipPathUnits="userSpaceOnUse"
       id="clipPath6093"><g
         id="g6097"><path
           d="M 0.89466664,38.430692 H 816.89465 V 1094.4307 H 0.89466664 Z"
           id="path6095"
           style="stroke-width:1.33333" /></g></clipPath><clipPath
       clipPathUnits="userSpaceOnUse"
       id="clipPath6087"><g
         id="g6091"><path
           d="M 0.89466664,38.430692 H 816.89465 V 1094.4307 H 0.89466664 Z"
           id="path6089"
           style="stroke-width:1.33333" /></g></clipPath><clipPath
       clipPathUnits="userSpaceOnUse"
       id="clipPath6081"><g
         id="g6085"><path
           d="M 0.89466664,38.430692 H 816.89465 V 1094.4307 H 0.89466664 Z"
           id="path6083"
           style="stroke-width:1.33333" /></g></clipPath><clipPath
       clipPathUnits="userSpaceOnUse"
       id="clipPath6075"><g
         id="g6079"><path
           d="M 0.89466664,38.430692 H 816.89465 V 1094.4307 H 0.89466664 Z"
           id="path6077"
           style="stroke-width:1.33333" /></g></clipPath><clipPath
       clipPathUnits="userSpaceOnUse"
       id="clipPath4605"><g
         id="g4609"><path
           d="M 0.89466664,38.430692 H 816.89465 V 1094.4307 H 0.89466664 Z"
           id="path4607"
           style="stroke-width:1.33333" /></g></clipPath></defs><sodipodi:namedview
     id="base"
     pagecolor="#ffffff"
     bordercolor="#666666"
     borderopacity="1.0"
     inkscape:pageopacity="0.0"
     inkscape:pageshadow="2"
     inkscape:zoom="2"
     inkscape:cx="113.5"
     inkscape:cy="157.5"
     inkscape:document-units="px"
     inkscape:current-layer="layer1"
     inkscape:document-rotation="0"
     showgrid="false"
     inkscape:window-width="1920"
     inkscape:window-height="1027"
     inkscape:window-x="0"
     inkscape:window-y="0"
     inkscape:window-maximized="1"
     units="px"
     fit-margin-top="0"
     fit-margin-left="0"
     fit-margin-right="0"
     fit-margin-bottom="0"
     showborder="true"
     inkscape:showpageshadow="true"
     showguides="true"
     inkscape:guide-bbox="true"
     inkscape:lockguides="false"
     inkscape:pagecheckerboard="true"
     inkscape:deskcolor="#d1d1d1" /><metadata
     id="metadata5"><rdf:RDF><cc:Work
         rdf:about=""><dc:format>image/svg+xml</dc:format><dc:type
           rdf:resource="http://purl.org/dc/dcmitype/StillImage" /></cc:Work></rdf:RDF></metadata><g
     inkscape:label="Layer 1"
     inkscape:groupmode="layer"
     id="layer1"
     transform="translate(-0.08041364,-0.51138639)"><g
       id="g5979"
       transform="translate(0.00138725,-0.02265565)"><path
         style="fill:#d0d0d0;fill-opacity:1;stroke-width:1"
         d="m 20.45333,66.128054 c 0,-0.440973 0.176389,-0.529166 1.058333,-0.529166 h 1.058333 v -1.058334 c 0,-0.745088 0.112846,-1.058333 0.381261,-1.058333 0.552804,0 0.696656,-0.365104 0.510528,-1.295742 -0.192317,-0.961585 -0.541771,-1.073406 -0.705063,-0.225612 -0.06306,0.327421 -0.130877,0.0893 -0.150694,-0.529167 -0.03896,-1.215766 0.566421,-1.619994 0.84288,-0.562814 0.126588,0.484071 0.286194,0.541528 1.155338,0.415896 0.554652,-0.08017 0.812383,-0.08843 0.572734,-0.01836 -0.406198,0.118779 -0.826979,1.790936 -0.526327,2.09159 0.06831,0.06832 0.580611,0.124211 1.138441,0.124211 0.93444,0 1.014236,-0.05829 1.014236,-0.740834 0,-0.407458 -0.142875,-0.883708 -0.3175,-1.058333 -0.246944,-0.246943 -0.14653,-0.3175 0.451866,-0.3175 0.529032,0 1.079992,0.303318 1.76376,0.971 0.834173,0.814551 1.021713,0.899811 1.163942,0.529166 0.09325,-0.243006 0.394933,-0.441833 0.670407,-0.441833 0.407947,0 0.500858,0.196327 0.500858,1.058334 0,0.881943 0.08819,1.058333 0.529167,1.058333 0.440973,0 0.529167,-0.17639 0.529167,-1.058333 v -1.058334 h 1.058333 c 0.830003,0 1.059207,-0.09989 1.062384,-0.46302 0.0035,-0.395698 0.04134,-0.405316 0.260533,-0.06615 0.219189,0.339169 0.257069,0.329552 0.260532,-0.06615 0.0021,-0.254662 0.107898,-0.463021 0.234818,-0.463021 0.126923,0 0.304247,-0.459515 0.394055,-1.021146 0.161033,-1.007044 0.182509,-1.023453 1.55517,-1.188323 2.626112,-0.315426 2.58643,-0.332298 2.551817,1.08499 -0.01688,0.691224 -0.08542,1.046954 -0.152316,0.790511 -0.06689,-0.256444 -0.232518,-0.397724 -0.368051,-0.313959 -0.135535,0.08376 -0.307554,-0.007 -0.382262,-0.201674 -0.09167,-0.238876 -0.478205,-0.321326 -1.188757,-0.253563 -1.026837,0.09792 -1.052923,0.125526 -1.052923,1.114192 0,0.950354 -0.0538,1.018966 -0.859896,1.096687 -0.813585,0.07844 -0.897186,0.189781 -1.552307,2.067285 -0.380826,1.091407 -0.772279,1.958396 -0.869895,1.926643 -0.09762,-0.03175 -0.500409,-0.442351 -0.895091,-0.912445 l -0.717603,-0.854715 -0.163607,0.912448 -0.163608,0.912444 -0.03483,-0.992187 c -0.02823,-0.804188 -0.135096,-0.992188 -0.563996,-0.992188 -0.362498,0 -0.529167,0.17639 -0.529167,0.560025 0,0.429763 -0.123084,0.527839 -0.529167,0.421646 -0.420901,-0.11007 -0.529166,-0.0081 -0.529166,0.498308 0,0.566415 -0.116814,0.636688 -1.058334,0.636688 -0.869235,0 -1.058333,-0.09126 -1.058333,-0.510765 0,-0.280921 -0.208359,-0.560914 -0.463021,-0.622205 -0.254661,-0.06129 -0.02091,-0.05985 0.519457,0.0032 1.71392,0.200014 1.743366,-0.241959 0.0591,-0.887106 -2.206352,-0.845121 -2.232205,-0.837086 -2.232205,0.693957 v 1.322917 h -2.116667 c -1.940277,0 -2.116666,-0.0441 -2.116666,-0.529167 z m 25.42089,0.110244 c 0.0127,-0.308226 0.07539,-0.370919 0.15985,-0.159853 0.07643,0.190995 0.06703,0.419198 -0.02087,0.507119 -0.08792,0.08792 -0.150453,-0.06835 -0.138965,-0.347266 z m 6.378138,-0.0441 c 0.06429,-0.338939 0.392425,-0.485013 1.22446,-0.545084 l 1.136634,-0.08207 -0.08058,-1.108559 c -0.08021,-1.103503 -0.08541,-1.108562 -1.138915,-1.108562 h -1.058333 l -0.07454,-3.108854 -0.07454,-3.108854 h 1.066728 1.066732 v 1.289843 c 0,0.709414 0.07441,1.661915 0.165364,2.116667 0.146011,0.730054 0.269875,0.826823 1.058334,0.826823 0.865407,0 0.892968,0.03267 0.892968,1.058333 v 1.058334 h 1.190626 1.190625 v 1.058333 1.058334 h -2.116667 c -1.940277,0 -2.116667,0.0441 -2.116667,0.529166 0,0.452028 -0.17639,0.529167 -1.210024,0.529167 -1.009476,0 -1.19547,-0.07674 -1.122199,-0.463021 z M 39.50333,62.789917 c 0,-0.61306 0.08328,-0.676148 0.727605,-0.551177 0.469233,0.09101 1.032949,-0.04663 1.5875,-0.387612 l 0.859896,-0.528733 v 0.550746 c 0,0.374357 0.169478,0.550746 0.529166,0.550746 0.352777,0 0.529167,-0.176389 0.529167,-0.529166 0,-0.393846 0.17639,-0.529167 0.689766,-0.529167 0.520274,0 0.650304,0.102838 0.529167,0.418515 -0.08833,0.230183 -0.1606,0.468308 -0.1606,0.529167 0,0.06086 -0.170571,0.110651 -0.379044,0.110651 -0.208476,0 -0.454623,0.238125 -0.546997,0.529167 -0.149358,0.47058 -0.400323,0.529167 -2.266789,0.529167 -2.087306,0 -2.098837,-0.0038 -2.098837,-0.692304 z m 6.813022,0.505579 c 0.327421,-0.06307 0.863203,-0.06307 1.190625,0 0.327422,0.06306 0.05953,0.114663 -0.595313,0.114663 -0.654844,0 -0.922734,-0.0516 -0.595312,-0.114663 z m 0.595312,-3.649734 c 0,-0.30345 0.326991,-0.394893 1.389063,-0.388461 1.278937,0.0078 1.348345,0.03921 0.875472,0.396875 -0.693264,0.524359 -2.264535,0.51852 -2.264535,-0.0084 z M 9.8676962,57.503611 C 9.8664262,56.49898 9.7911218,55.058739 9.7003417,54.303073 L 9.5352872,52.929137 7.453683,52.747556 5.3720791,52.565975 v -3.555106 c 0,-1.955308 -0.1168821,-3.773501 -0.2597378,-4.040428 -0.1925264,-0.359738 -0.1590871,-0.523949 0.129226,-0.634585 0.3096014,-0.118806 0.3549065,-0.475099 0.222046,-1.746239 -0.1434505,-1.37246 -0.1058217,-1.59698 0.2676493,-1.59698 0.5439686,0 0.5729558,-0.68403 0.037692,-0.889432 -0.2182813,-0.08376 -0.396875,-0.321887 -0.396875,-0.529166 0,-0.43424 -0.5581629,-0.698069 -1.4768479,-0.698069 -0.4634299,0 -0.6398189,-0.145883 -0.6398189,-0.529167 0,-0.352777 0.176389,-0.529167 0.5291667,-0.529167 0.2921138,0 0.5291667,0.17639 0.5291667,0.393748 0,0.254778 0.3735292,0.45348 1.0583334,0.562983 0.7975992,0.127543 1.0583334,0.291272 1.0583334,0.664586 0,0.31896 0.1884304,0.49535 0.5291666,0.49535 0.3615791,0 0.5291667,-0.17639 0.5291667,-0.556958 0,-0.490215 0.1268222,-0.544862 1.0583334,-0.456028 0.9543397,0.09101 1.0583334,0.04175 1.0583334,-0.501375 0,-0.413491 -0.1562185,-0.602306 -0.4983224,-0.602306 -0.5774539,0 -0.786048,-0.742923 -0.6164598,-2.19557 0.1099843,-0.942094 0.1535813,-0.97943 1.1437292,-0.97943 1.0218009,0 1.0293869,0.0077 1.0293869,1.04157 0,0.976826 0.05345,1.048202 0.859896,1.148281 0.643242,0.07983 0.526583,0.120486 -0.463021,0.161375 l -1.3229172,0.05466 1.2661332,0.658969 c 0.696373,0.362432 1.377181,0.590336 1.512907,0.506452 0.135725,-0.08388 0.231263,-0.565086 0.212306,-1.069342 -0.01896,-0.504257 0.04438,-0.995675 0.140739,-1.092039 0.09636,-0.09636 0.175207,0.02323 0.175207,0.265766 0,0.327581 0.238125,0.440973 0.926042,0.440973 0.903993,0 0.926041,-0.02519 0.926041,-1.058333 v -1.058334 h 1.058334 1.058333 v 1.058334 1.058333 h 2.116667 2.116667 v 1.058333 1.058334 h -2.116667 -2.116667 v -1.058334 -1.058333 h -1.058333 c -0.978863,0 -1.058115,0.05464 -1.055422,0.727604 0.008,1.991995 0.275212,2.561696 1.61868,3.450702 1.26882,0.839607 1.817992,1.660675 1.817992,2.718085 0,0.369684 -0.183807,0.511943 -0.661458,0.511943 -0.48507,0 -0.661459,-0.141111 -0.661459,-0.529167 0,-0.442222 -0.176389,-0.529167 -1.073546,-0.529167 h -1.073547 l 0.08136,1.12448 c 0.07897,1.091504 0.110454,1.126886 1.073547,1.206598 1.419591,0.11749 1.362654,0.843922 -0.06615,0.843922 h -1.058334 v 2.645834 c 0,2.469444 0.03528,2.645833 0.529167,2.645833 0.352778,0 0.529167,-0.176389 0.529167,-0.529166 0,-0.450247 0.176388,-0.529167 1.182713,-0.529167 h 1.182714 l -0.05823,-0.981983 c -0.04456,-0.751382 0.0505,-1.004466 0.404786,-1.077732 0.322879,-0.06677 0.463021,0.07028 0.463021,0.452816 0,0.460859 0.164277,0.548566 1.027475,0.548566 0.804959,0 1.057443,-0.114599 1.165854,-0.529167 0.08279,-0.316601 0.360896,-0.529167 0.692317,-0.529167 0.702274,0 0.741246,-0.794308 0.04787,-0.97563 -0.397419,-0.103928 -0.545007,-0.467839 -0.687437,-1.695021 -0.125087,-1.077762 -0.296463,-1.562682 -0.552265,-1.562682 -0.203993,0 -0.370896,0.238125 -0.370896,0.529166 0,0.750118 -0.952,0.695651 -1.156154,-0.06615 -0.382306,-1.42657 -0.285561,-1.523559 1.486883,-1.490663 0.909505,0.01688 1.445286,0.08514 1.190625,0.151694 -0.629054,0.164388 -0.586167,0.782026 0.06615,0.952611 0.450635,0.117843 0.529166,0.360894 0.529166,1.637757 0,1.286701 0.06568,1.486308 0.463021,1.407219 0.361637,-0.07198 0.444007,-0.307967 0.376184,-1.077736 l -0.08684,-0.98557 h 1.239107 1.239107 L 25.69965,44.167637 25.598721,43.109303 H 26.5979 c 0.989322,0 0.99918,0.01045 0.99918,1.058334 0,1.033134 -0.02204,1.058333 -0.926042,1.058333 -0.903993,0 -0.926041,0.02519 -0.926041,1.058333 0,1.052643 -0.0055,1.058334 -1.025261,1.058334 -0.936625,0 -1.039556,0.07148 -1.190625,0.826823 -0.270755,1.353775 -0.206717,1.554427 0.496094,1.554427 0.411574,0 0.661458,0.149931 0.661458,0.396875 0,0.218281 0.178594,0.396875 0.396875,0.396875 0.220486,0 0.396875,0.235185 0.396875,0.529167 0,0.482158 0.193913,0.533836 2.182813,0.581739 l 2.182812,0.05257 -1.940631,0.09177 c -1.662263,0.0786 -1.894818,0.146962 -1.621249,0.476594 0.257134,0.309827 0.235716,0.384831 -0.10989,0.384831 -0.243343,0 -0.429271,0.214871 -0.429271,0.496093 0,0.51869 -0.899753,0.826823 -2.414323,0.826823 -0.635,0 -0.760678,-0.109283 -0.760678,-0.661458 0,-0.529167 -0.132291,-0.661458 -0.661458,-0.661458 -0.386788,0 -0.661458,-0.151988 -0.661458,-0.366017 0,-0.427617 -0.799343,-0.683617 -2.150416,-0.688705 -0.527885,-0.002 -1.10801,-0.182205 -1.289168,-0.400487 -0.181157,-0.218281 -0.612454,-0.396875 -0.958438,-0.396875 -0.538761,0 -0.629062,0.128868 -0.629062,0.897734 0,0.990079 -0.332913,1.233647 -1.405832,1.028547 -0.708267,-0.135395 -0.710835,-0.144434 -0.710835,-2.501906 0,-1.509974 0.09573,-2.306857 0.264584,-2.2025 0.145521,0.08994 0.264583,0.05017 0.264583,-0.08837 0,-0.138541 -0.178594,-0.320424 -0.396875,-0.404188 -0.609729,-0.233974 -0.502659,-1.227236 0.132292,-1.227236 0.353814,0 0.529166,-0.176389 0.529166,-0.532294 0,-0.471482 -0.119103,-0.513246 -1.042558,-0.36558 l -1.042559,0.166712 -0.08192,-1.288066 c -0.06593,-1.036566 -0.172327,-1.280888 -0.544942,-1.251315 -0.285556,0.02267 -0.463021,-0.14868 -0.463021,-0.447051 0,-0.368064 -0.237343,-0.503439 -0.992187,-0.565912 -0.973423,-0.08057 -0.9905534,-0.100883 -0.9057701,-1.074306 l 0.086417,-0.992188 H 8.6996427 7.4887458 v 2.248959 c 0,2.145117 -0.027051,2.248958 -0.5858632,2.248958 -0.5125207,0 -0.5373624,0.0475 -0.1984375,0.379465 0.2130841,0.208704 0.7148476,0.459738 1.1150299,0.557848 0.7142983,0.175125 0.7276042,0.156088 0.7276042,-1.040921 V 43.109303 H 9.701014 c 1.058195,0 1.144376,0.05001 1.038721,0.602703 -0.07332,0.383561 0.08432,0.783278 0.433565,1.099341 0.436079,0.394644 0.548779,0.814234 0.548779,2.043131 0,1.526995 -0.0096,1.546492 -0.760677,1.546492 -0.418372,0 -1.1327472,0.07441 -1.5874998,0.165365 -0.7234024,0.144679 -0.826823,0.273391 -0.826823,1.029023 0,0.475009 0.2341639,1.144735 0.5203643,1.488281 l 0.520364,0.624623 0.0088,-0.595313 c 0.00767,-0.518977 0.1476846,-0.595312 1.0919055,-0.595312 0.860588,0 1.111533,0.108715 1.221484,0.529167 0.07611,0.291041 0.303088,0.529166 0.504396,0.529166 0.210728,0 0.366017,0.271455 0.366017,0.639818 0,0.913369 0.263174,1.476849 0.689766,1.476849 0.202712,0 0.368567,0.219832 0.368567,0.488511 0,0.444439 0.338323,0.502983 3.74994,0.648893 l 3.749941,0.160377 1.541726,1.525641 c 1.81668,1.797722 1.983937,2.468245 0.615685,2.468245 -0.908881,0 -0.926042,-0.02025 -0.926042,-1.092951 v -1.092952 l -0.992187,0.163997 c -0.545703,0.0902 -1.33286,0.165309 -1.749238,0.16691 -0.721554,0.0028 -0.748904,0.04633 -0.583323,0.928954 l 0.173726,0.926042 h -1.557949 c -0.856872,0 -3.005392,0.07783 -4.774489,0.172953 l -3.2165398,0.17295 -0.0023,-1.826596 z M 17.368028,56.903462 C 17.807643,56.730385 17.773623,56.632727 17.015525,55.891544 16.25893,55.151833 15.985275,55.061538 14.231654,54.972985 13.162016,54.91897 12.199333,54.787253 12.092357,54.680276 11.985382,54.5733 11.843563,53.83107 11.777204,53.030872 11.657222,51.58404 11.651685,51.57597 10.778889,51.57597 c -0.482715,0 -0.9309747,0.0893 -0.9961331,0.198438 -0.065158,0.10914 -0.057287,0.820915 0.017492,1.581721 0.1302549,1.325219 0.1734461,1.390317 1.0288961,1.5508 0.832392,0.156157 0.892935,0.237278 0.892935,1.196404 v 1.028888 l 2.579688,-0.0186 c 1.418828,-0.01021 2.798646,-0.104798 3.066261,-0.210161 z m 7.054052,-3.839888 c 0,-0.345982 -0.178594,-0.777279 -0.396875,-0.958437 -0.340356,-0.282469 -0.396875,-0.192884 -0.396875,0.629063 0,0.675555 0.117137,0.958437 0.396875,0.958437 0.241494,0 0.396875,-0.246285 0.396875,-0.629063 z m -1.058334,-1.69927 c 0,-0.499052 -0.587298,-0.713566 -1.709303,-0.624327 -0.807341,0.06421 -1.201113,0.216905 -1.201113,0.465759 0,0.272381 0.384619,0.370234 1.455208,0.370234 0.800365,0 1.455208,-0.09525 1.455208,-0.211666 z M 9.6054126,47.371585 c 0,-0.98116 -0.043765,-1.034497 -0.934129,-1.138441 -0.5137708,-0.05998 -0.9900208,-0.05316 -1.0583333,0.01516 -0.068313,0.0683 -0.1242045,0.580599 -0.1242045,1.138431 0,1.006885 0.00767,1.014235 1.0583334,1.014235 1.0533732,0 1.0583334,-0.0048 1.0583334,-1.029385 z m 4.4979164,-2.674782 c 0,-0.352777 -0.176389,-0.529166 -0.529166,-0.529166 -0.352778,0 -0.529167,0.176389 -0.529167,0.529166 0,0.352777 0.176389,0.529167 0.529167,0.529167 0.352777,0 0.529166,-0.17639 0.529166,-0.529167 z m -1.322916,-3.175 c 0,-0.428373 0.176389,-0.529166 0.926041,-0.529166 1.366545,0 1.170758,-0.62447 -0.448824,-1.431542 -1.692083,-0.8432 -2.593884,-0.897422 -2.593884,-0.155958 0,0.352776 0.176389,0.529166 0.529167,0.529166 0.440972,0 0.529166,0.17639 0.529166,1.058334 0,0.881943 0.08819,1.058333 0.529167,1.058333 0.352778,0 0.529167,-0.17639 0.529167,-0.529167 z m 18.322396,16.47502 C 29.987165,57.89634 29.97833,57.887349 29.97833,56.852424 c 0,-0.969529 -0.053,-1.04312 -0.751279,-1.04312 -0.548312,0 -0.834237,-0.182068 -1.058333,-0.673907 -0.168881,-0.37065 -0.307055,-0.787368 -0.307055,-0.926042 0,-0.138673 0.882812,-0.252135 1.961801,-0.252135 h 1.961801 l 0.184671,1.970715 c 0.140428,1.49856 0.288462,1.998329 0.617887,2.085975 0.514133,0.13679 0.180822,0.132953 -1.485014,-0.01709 z m 3.108855,-1.996075 v -2.189802 l 1.058333,0.100928 1.058333,0.100927 V 52.794387 51.57597 h -3.175 -3.175 v -0.926041 -0.926042 l 2.050521,-0.03553 c 1.127786,-0.01955 2.556537,-0.0088 3.175,0.02384 l 1.124479,0.05936 v -1.214456 -1.214456 h -1.058333 -1.058333 v -1.058334 -1.058333 h 1.058333 1.058333 v 1.058333 c 0,1.05563 0.0027,1.058334 1.042361,1.058334 1.013521,0 1.044636,-0.02745 1.124479,-0.992188 0.07908,-0.955524 0.118779,-0.992187 1.07423,-0.992187 0.970034,0 0.99211,0.02207 0.992187,0.992187 7.7e-5,0.981168 -0.01167,0.99218 -1.058257,0.99218 h -1.058333 v 2.268543 2.268543 l 3.175,-0.129054 3.175,-0.129053 v 0.638636 c 0,0.560498 0.120238,0.638635 0.98274,0.638635 0.897162,0 0.946203,0.03653 0.563173,0.419563 -0.283183,0.283184 -1.118642,0.467479 -2.570239,0.566973 -1.562262,0.107082 -2.150674,0.24565 -2.150674,0.506479 0,0.242525 0.343509,0.359068 1.058334,0.359068 0.89772,0 1.058333,0.08407 1.058333,0.553937 0,0.331423 0.212566,0.609524 0.529167,0.692317 0.291041,0.07611 0.529166,0.303088 0.529166,0.504397 0,0.201308 -0.238125,0.366016 -0.529166,0.366016 -0.351415,0 -0.529167,-0.17639 -0.529167,-0.52511 0,-0.483849 -0.124741,-0.512072 -1.5875,-0.359183 l -1.5875,0.165926 V 54.920955 53.692637 H 39.27182 c -0.709414,0 -1.661914,0.07441 -2.116667,0.165365 l -0.826823,0.165364 v 2.083594 2.083594 h -1.058333 -1.058333 z m 7.408333,-2.572694 c 0,-0.145521 -0.0525,-0.264584 -0.116676,-0.264584 -0.06417,0 -0.190262,0.119063 -0.280199,0.264584 -0.08994,0.145521 -0.03743,0.264583 0.116676,0.264583 0.154109,0 0.280199,-0.119062 0.280199,-0.264583 z m 2.116667,-0.283983 c 0,-0.378645 -0.142483,-0.521128 -0.459983,-0.459983 -0.689698,0.132823 -0.766617,1.008549 -0.08858,1.008549 0.378643,0 0.548566,-0.169923 0.548566,-0.548566 z m 3.108854,3.794419 c 1.085538,-0.09777 1.124479,-0.132821 1.124479,-1.012108 0,-0.857353 0.0522,-0.910828 0.889114,-0.910828 0.489011,0 1.441511,-0.07572 2.116667,-0.168254 l 1.227553,-0.168257 v 1.055082 1.055082 l -2.182813,0.169921 c -1.200547,0.09346 -2.659062,0.149833 -3.241146,0.125282 l -1.058333,-0.04464 z m -0.727604,-1.526061 c 0,-0.218281 0.178594,-0.396875 0.396875,-0.396875 0.218281,0 0.396875,0.178594 0.396875,0.396875 0,0.218281 -0.178594,0.396875 -0.396875,0.396875 -0.218281,0 -0.396875,-0.178594 -0.396875,-0.396875 z m 6.089029,-5.754688 c 0.0039,-2.063358 0.188214,-3.108854 0.54811,-3.108854 0.123981,0 0.156888,0.178594 0.07313,0.396875 -0.08376,0.218281 -0.03538,0.396875 0.107521,0.396875 0.223269,0 0.590548,-1.17243 0.590548,-1.885156 0,-0.127331 -0.470855,-0.231511 -1.046345,-0.231511 -0.995059,0 -1.055249,0.04746 -1.228016,0.968396 -0.138049,0.735865 -0.07951,1.043104 0.243818,1.27952 0.376783,0.275513 0.326621,0.406953 -0.438226,1.148273 -1.184228,1.147797 -1.675241,1.090541 -1.896856,-0.221189 -0.167767,-0.993008 -0.23453,-1.058333 -1.081591,-1.058333 -0.876861,0 -0.902785,-0.03039 -0.902785,-1.058334 0,-1.033134 0.02204,-1.058333 0.926042,-1.058333 0.765662,0 0.926042,-0.09666 0.926042,-0.558115 0,-0.482047 -0.126212,-0.543377 -0.926042,-0.450003 -0.831942,0.09713 -0.926042,0.04335 -0.926042,-0.529167 0,-0.572518 0.0941,-0.62629 0.926042,-0.529166 l 0.926042,0.108111 0.04622,-3.320309 c 0.02543,-1.82617 0.09261,-2.797805 0.149294,-2.159188 l 0.103071,1.161121 2.033516,-0.145206 c 1.118436,-0.07986 2.225675,-0.221932 2.46053,-0.315714 0.347485,-0.138753 0.460055,0.07857 0.604427,1.166897 0.144995,1.093031 0.272439,1.337406 0.697466,1.337406 0.343665,0 0.520054,0.17948 0.520054,0.529166 0,0.293981 0.17639,0.529167 0.396875,0.529167 0.274043,0 0.396875,0.27518 0.396875,0.889114 0,0.489011 0.07572,1.441511 0.168254,2.116667 l 0.168257,1.227552 H 55.678876 54.58458 v 2.116667 2.116667 l 0.992188,0.03069 c 0.545703,0.01688 0.783828,0.08514 0.529166,0.151693 -0.254661,0.06655 -0.463021,0.290862 -0.463021,0.498473 0,0.288197 -0.406759,0.377475 -1.719791,0.377475 H 52.20333 l 0.0036,-1.918229 z m 2.113055,-3.785928 c 0,-0.22687 -0.119063,-0.338905 -0.264584,-0.248968 -0.14552,0.08994 -0.264583,0.275558 -0.264583,0.412491 0,0.136932 0.119063,0.248967 0.264583,0.248967 0.145521,0 0.264584,-0.185621 0.264584,-0.41249 z M 50.086664,43.40696 c 0,-0.418373 0.07441,-1.132748 0.165365,-1.5875 0.143706,-0.718527 0.09172,-0.826823 -0.396875,-0.826823 -0.510794,0 -0.56224,0.145261 -0.56224,1.5875 0,1.234723 0.08819,1.5875 0.396875,1.5875 0.26075,0 0.396875,-0.260909 0.396875,-0.760677 z m 4.447744,-1.289844 c -0.06524,-0.788281 -0.201268,-1.009145 -0.661887,-1.074698 -0.423884,-0.06033 -0.601734,-0.293074 -0.661458,-0.865632 l -0.08169,-0.783122 -0.930521,0.634831 c -0.872546,0.595275 -0.924463,0.711031 -0.833255,1.857819 l 0.09727,1.222989 h 1.57683 1.576829 z m -12.75006,7.276042 c 0.229151,-1.510385 0.747496,-2.050521 1.967786,-2.050521 h 0.991791 l 0.09168,1.310135 c 0.05792,0.827667 -7.94e-4,1.217406 -0.159673,1.058333 -0.138245,-0.138491 -0.644261,-0.251801 -1.124479,-0.251801 -0.696736,0 -0.873125,0.106902 -0.873125,0.529166 0,0.353814 -0.17639,0.529167 -0.532294,0.529167 -0.4766,0 -0.514443,-0.117652 -0.361689,-1.124479 z m 14.9169,0.198437 c 0,-0.841438 0.0688,-0.926041 0.753105,-0.926041 0.414205,0 1.842955,-0.07736 3.175,-0.171911 l 2.421895,-0.171913 v 1.097955 1.097952 h -3.175 -3.175 z M 13.044996,47.062438 c 0,-0.154109 0.119063,-0.206613 0.264583,-0.116676 0.145521,0.08994 0.264584,0.216027 0.264584,0.280199 0,0.06417 -0.119063,0.116676 -0.264584,0.116676 -0.14552,0 -0.264583,-0.12609 -0.264583,-0.280199 z m 44.714585,-2.894801 c 0,-2.981738 0.03171,-3.175 0.520864,-3.175 0.358159,0 0.47248,-0.126082 0.365975,-0.403628 -0.119439,-0.311253 -0.238644,-0.334115 -0.520862,-0.0999 -0.300125,0.249082 -0.365977,0.131279 -0.365977,-0.654706 0,-0.782047 0.09739,-0.958437 0.529167,-0.958437 0.352777,0 0.529167,-0.17639 0.529167,-0.529167 0,-0.362492 0.176389,-0.529167 0.560011,-0.529167 0.438283,0 0.535128,-0.129402 0.445535,-0.595312 -0.110326,-0.573728 -0.05388,-0.592095 1.556655,-0.50659 1.545899,0.08207 1.671132,0.04737 1.671132,-0.463021 0,-0.375354 0.169172,-0.551743 0.529167,-0.551743 0.34467,0 0.529166,0.176389 0.529166,0.50591 0,0.38404 -0.254947,0.548984 -1.058333,0.684715 -0.582083,0.09834 -1.058333,0.32848 -1.058333,0.511416 0,0.570632 -0.879195,1.143084 -2.050521,1.335119 -1.45024,0.23776 -1.595546,1.048909 -0.233664,1.304401 0.825182,0.154802 0.90316,0.257167 1.058333,1.38929 0.09214,0.672195 0.167518,1.562743 0.167518,1.978994 0,1.035444 0.663078,0.983895 1.325817,-0.103074 l 0.524288,-0.859896 0.0011,0.711988 c 0.0013,0.917515 0.298021,1.08017 2.022758,1.108737 l 1.417815,0.0235 v 0.996125 0.996124 h -1.5875 -1.5875 v -0.926042 c 0,-1.310878 -0.821894,-1.272148 -1.425853,0.06719 -0.432708,0.959573 -0.487868,0.990053 -1.627682,0.899401 -1.052108,-0.08368 -1.179867,-0.03365 -1.179867,0.461965 0,0.379418 -0.167934,0.555808 -0.529167,0.555808 -0.499769,0 -0.529167,-0.17639 -0.529167,-3.175 z M 0.0804122,45.22597 c 0,-0.881944 0.08819445,-1.058333 0.52916669,-1.058333 0.44097221,0 0.52916671,0.176389 0.52916671,1.058333 0,0.881944 -0.088194,1.058333 -0.52916671,1.058333 -0.44097224,0 -0.52916669,-0.176389 -0.52916669,-1.058333 z m 34.1312518,-3.175 v -1.058333 h 1.058333 1.058333 v 1.058333 1.058333 H 35.269997 34.211664 Z M 23.529111,40.165814 c -0.09095,-0.454753 -0.165365,-1.407253 -0.165365,-2.116667 v -1.289844 h -0.902785 c -0.84706,0 -0.913822,-0.06533 -1.08159,-1.058333 -0.172986,-1.023901 -0.212481,-1.058334 -1.213881,-1.058334 -1.031201,0 -1.035077,-0.004 -1.035077,-1.058333 0,-1.055629 0.0027,-1.058333 1.042362,-1.058333 1.013519,0 1.044634,0.02745 1.124479,0.992187 0.07766,0.938308 0.135998,0.996646 1.074305,1.074306 0.964734,0.07984 0.992187,0.110959 0.992187,1.12448 0,1.03343 0.0088,1.04236 1.02148,1.04236 h 1.021479 l 0.166846,1.389063 c 0.329998,2.747375 0.300911,2.844271 -0.853815,2.844271 -0.936625,0 -1.039556,-0.07148 -1.190625,-0.826823 z M 29.97833,38.87597 v -2.116667 h 0.910426 c 0.500735,0 0.984171,0.119317 1.074298,0.26515 0.09013,0.145833 0.08177,1.098333 -0.01857,2.116666 L 31.76204,40.992637 H 30.870185 29.97833 Z M 0.67572473,37.630912 C 0.19633867,37.538578 0.0804122,37.339503 0.0804122,36.60861 c 0,-0.731251 0.10283721,-0.90764 0.52916669,-0.90764 0.68731321,0 0.67191281,-0.540914 -0.0412121,-1.447507 -0.56297045,-0.7157 -0.56321501,-0.720645 -0.0188288,-0.380669 0.30335251,0.189444 0.68955311,0.647332 0.85822351,1.017521 0.2926796,0.642364 0.3231418,0.650555 0.6675755,0.179512 0.4060805,-0.555347 1.1800754,-0.407141 1.1800754,0.225965 0,0.228788 0.2303653,0.405178 0.5291667,0.405178 0.3527777,0 0.5291667,-0.17639 0.5291667,-0.529167 0,-0.406461 0.176389,-0.529167 0.7606771,-0.529167 0.4183724,0 1.1625131,-0.05792 1.6536458,-0.128712 0.7158998,-0.103187 0.7618066,-0.08657 0.2315105,0.08378 -0.5694143,0.182922 -0.6506605,0.348102 -0.5838608,1.187045 0.064631,0.811707 -0.00732,0.974553 -0.4306239,0.974553 -0.279522,0 -0.6653642,-0.189344 -0.8574271,-0.420767 -0.3111008,-0.374854 -0.3812619,-0.376928 -0.6429811,-0.019 -0.1615769,0.22097 -0.7631537,0.440082 -1.3368373,0.486913 -0.8023761,0.0655 -1.0345821,0.191992 -1.0063139,0.548172 0.036758,0.46315 -0.2087144,0.510717 -1.42581032,0.276296 z M 65.167915,36.627011 c 0,-0.749652 0.100793,-0.926041 0.529167,-0.926041 0.428373,0 0.529166,0.176389 0.529166,0.926041 0,0.749652 -0.100793,0.926042 -0.529166,0.926042 -0.428374,0 -0.529167,-0.17639 -0.529167,-0.926042 z M 34.211664,35.70097 v -1.058334 h 1.058333 1.058333 v 1.058334 1.058333 h -1.058333 -1.058333 z m 19.21669,-0.634125 c 0.05384,-0.858091 0.09789,-1.780825 0.09789,-2.05052 0,-0.395693 0.204311,-0.490355 1.058333,-0.490355 h 1.058333 v -1.058334 c 0,-0.745088 0.112845,-1.058333 0.38126,-1.058333 0.209693,0 0.456641,-0.121968 0.548772,-0.271039 0.273725,-0.442894 -0.147468,-1.845628 -0.55418,-1.845628 -0.206717,0 -0.375852,-0.238125 -0.375852,-0.529167 0,-0.707025 0.692965,-0.678563 0.879864,0.03614 0.125831,0.481182 0.278067,0.540295 1.023046,0.397246 0.481367,-0.09243 0.737939,-0.07893 0.570156,0.03001 -0.167783,0.108937 -0.346376,0.614786 -0.396875,1.124108 -0.09092,0.916991 -0.08082,0.926839 1.032664,1.007402 0.995391,0.07202 1.124479,0.01685 1.124479,-0.480415 0,-0.308978 -0.123251,-0.792073 -0.273891,-1.073547 -0.240896,-0.450114 -0.183396,-0.511773 0.477263,-0.511773 0.511111,0 1.037984,0.295931 1.648711,0.926042 0.975146,1.006094 1.322917,1.145201 1.322917,0.529166 0,-0.220485 0.235186,-0.396875 0.529167,-0.396875 0.440973,0 0.529166,0.17639 0.529166,1.058334 0,0.881943 0.08819,1.058333 0.529167,1.058333 0.440973,0 0.529167,-0.17639 0.529167,-1.058333 0,-0.881944 0.08819,-1.058334 0.529167,-1.058334 0.486552,0 0.529021,0.175787 0.527359,2.182813 -0.0019,2.172867 -0.0058,2.185525 -0.876268,2.778125 -1.055574,0.718611 -1.238592,0.736912 -1.238592,0.123854 0,-0.31624 0.225555,-0.490127 0.685094,-0.528158 1.127966,-0.09336 1.203989,-0.3101 0.453758,-1.293702 -0.63264,-0.829432 -0.737677,-0.881083 -0.908503,-0.446751 -0.170815,0.434305 -0.195307,0.422253 -0.211751,-0.104201 -0.02532,-0.810599 -1.076931,-0.845056 -1.076931,-0.03529 0,0.429763 -0.123084,0.527839 -0.529167,0.421646 -0.470043,-0.122918 -0.529166,-0.0081 -0.529166,1.027475 v 1.165854 h -1.058334 c -1.055211,0 -1.058333,-0.0031 -1.058333,-1.039931 0,-0.77261 -0.119023,-1.067875 -0.463021,-1.148636 -0.254661,-0.05979 0.02892,-0.05666 0.630177,0.007 1.730602,0.183089 1.528299,-0.271032 -0.4577,-1.027423 l -1.826123,-0.69551 v 2.450579 c 0,2.228062 0.04805,2.463144 0.529167,2.588959 0.780521,0.20411 0.675735,0.98167 -0.132292,0.98167 -0.411575,0 -0.661458,-0.149931 -0.661458,-0.396875 0,-0.218281 -0.165857,-0.396875 -0.368567,-0.396875 -0.202714,0 -0.4371,0.178594 -0.520864,0.396875 -0.08376,0.218281 -0.334624,0.396875 -0.557475,0.396875 -0.296317,0 -0.405178,-0.284342 -0.405178,-1.058333 0,-1.055762 -0.0026,-1.058334 -1.043119,-1.058334 -1.008888,0 -1.046832,0.03256 -1.156227,0.992188 -0.06221,0.545703 -0.06906,0.290113 -0.01521,-0.567979 z M 0.09415974,31.40149 c -0.01259568,-1.878713 0.03058959,-2.050521 0.51541915,-2.050521 0.36686653,0 0.53487031,-0.182589 0.54776301,-0.595312 0.017744,-0.568034 0.029016,-0.571066 0.245987,-0.06615 0.1944436,0.452496 0.2300852,0.462079 0.245987,0.06615 0.010228,-0.254662 0.1224417,-0.463021 0.2493638,-0.463021 0.1269221,0 0.3042469,-0.459515 0.3940551,-1.021146 0.1610329,-1.007043 0.1825085,-1.023453 1.5551701,-1.188325 2.6777031,-0.32162 2.5825076,-0.372669 2.5825076,1.384876 0,1.48757 0.032292,1.56292 0.7276042,1.697781 0.4692343,0.09101 1.0329505,-0.04663 1.5875,-0.387612 l 0.8598959,-0.528733 v 0.550746 c 0,0.374357 0.1694775,0.550746 0.5291664,0.550746 0.352778,0 0.529167,-0.176389 0.529167,-0.529166 0,-0.392076 0.176389,-0.529167 0.680859,-0.529167 0.868452,0 0.791159,0.885124 -0.08825,1.010589 -0.379906,0.0542 -0.59261,0.267875 -0.59261,0.595313 0,0.461682 -0.20158,0.510765 -2.0976284,0.510765 H 6.4684894 L 6.2870472,28.95709 C 6.1872543,28.158373 6.0125689,27.562375 5.8988582,27.632654 5.7851471,27.70293 5.6335628,27.607863 5.5620039,27.421376 5.4757487,27.1966 5.0651108,27.117301 4.3436545,27.186104 c -1.0671988,0.101774 -1.0882422,0.123383 -1.0882422,1.11756 0,0.945544 -0.056666,1.019358 -0.8418904,1.096687 -0.7866748,0.07747 -0.88989,0.213056 -1.57375256,2.067285 l -0.73186205,1.984375 z m 21.36657026,0 c -0.08118,-1.121944 -0.08375,-1.124479 -1.139692,-1.124479 h -1.058333 l -0.07454,-3.108854 -0.07454,-3.108854 h 1.06673 1.06673 v 2.116666 2.116667 h 1.058333 1.058333 v 1.058333 1.058334 h 1.190626 1.190625 v 1.058333 1.058334 h -2.101454 -2.101454 z m -7.836935,-1.183944 c 0.634918,-0.0669 1.016924,-0.259276 1.093787,-0.550833 0.08411,-0.319038 0.12695,-0.276633 0.148806,0.147277 0.02759,0.535244 -0.08277,0.590825 -1.093788,0.550836 l -1.124479,-0.04448 z m 0.383854,-3.644702 c -0.12361,-0.322124 0.107769,-0.39529 1.228464,-0.38846 1.271632,0.0077 1.340167,0.03912 0.867168,0.396875 -0.666817,0.504353 -1.900765,0.4994 -2.095632,-0.0084 z m 28.935265,-1.905137 c 0,-0.874013 -0.07579,-2.31419 -0.168413,-3.200394 l -0.168412,-1.611279 -2.080546,-0.181489 -2.080546,-0.181488 v -3.422813 c 0,-1.943061 -0.123425,-3.653438 -0.285499,-3.956271 -0.219736,-0.410582 -0.195595,-0.604641 0.104799,-0.842501 0.304766,-0.24132 0.347724,-0.621332 0.196027,-1.7340755 -0.170979,-1.2541761 -0.135958,-1.440279 0.292077,-1.5522128 0.586187,-0.1532917 0.64145,-0.7430813 0.08947,-0.9548954 -0.218281,-0.083762 -0.396875,-0.3218876 -0.396875,-0.5291666 0,-0.43424 -0.558162,-0.6980699 -1.476849,-0.6980699 -0.463428,0 -0.639818,-0.1458835 -0.639818,-0.5291666 0,-0.3527778 0.17639,-0.5291667 0.529167,-0.5291667 0.292113,0 0.529167,0.1763889 0.529167,0.3937481 0,0.2547784 0.373528,0.4534782 1.058333,0.5629829 0.7976,0.127541 1.058333,0.2912702 1.058333,0.6645849 0,0.3189618 0.188431,0.4953508 0.529167,0.4953508 0.36158,0 0.529167,-0.176389 0.529167,-0.5569572 0,-0.490216 0.126823,-0.5448631 1.058333,-0.4560292 0.954339,0.091011 1.058334,0.041745 1.058334,-0.5013759 0,-0.4361101 -0.153824,-0.6023044 -0.557475,-0.6023044 -0.381426,0 -0.510405,-0.1226564 -0.408429,-0.3884018 0.08197,-0.2136209 0.06095,-0.4428455 -0.04672,-0.509388 -0.107667,-0.066543 -0.149492,-0.6061369 -0.09295,-1.1990985 0.100989,-1.0589649 0.121115,-1.0781119 1.133358,-1.0781119 1.023147,0 1.030542,0.00748 1.030542,1.0415698 0,0.9321664 0.07643,1.0535726 0.727604,1.1558428 0.400182,0.06285 0.281144,0.081726 -0.264533,0.041947 -1.472726,-0.1073599 -1.403392,0.224354 0.212545,1.0168838 l 1.441051,0.7067571 0.05098,-2.5768127 c 0.03854,-1.9482353 0.0739,-2.17342894 0.144917,-0.9231669 l 0.09394,1.6536459 h 0.913419 c 0.889262,0 0.913415,-0.027985 0.913415,-1.0583334 V 1.5697183 h 1.058334 1.058333 v 1.0583334 1.0583334 h 2.248959 2.248958 V 2.6280517 1.5697183 h -1.190625 c -1.014235,0 -1.190625,-0.078395 -1.190625,-0.5291667 0,-0.45077157 0.17639,-0.52916664 1.190625,-0.52916664 1.014235,0 1.190625,0.0783951 1.190625,0.52916664 0,0.4266042 0.17639,0.5291667 0.910069,0.5291667 0.86065,0 0.91453,0.05388 0.992187,0.9921876 0.07971,0.9630926 0.115094,0.9945733 1.206598,1.0735464 l 1.12448,0.081359 v 2.1014538 2.1014537 h -1.058334 -1.058333 l -0.02281,-1.1244792 c -0.06266,-3.091658 -0.01992,-2.969071 -1.065845,-3.0565435 -0.884812,-0.073998 -0.968836,-0.017539 -1.123299,0.7547785 -0.09182,0.4591177 -0.100926,0.9415933 -0.02022,1.0721684 0.08226,0.1330931 -0.848309,0.237409 -2.117844,0.237409 H 50.086664 V 4.7447185 3.6863851 h -1.092951 -1.092952 l 0.163997,0.9921875 c 0.0902,0.5457032 0.165523,1.2898438 0.167383,1.6536459 0.0026,0.4921478 0.30143,0.8497475 1.167781,1.397062 1.475494,0.9321406 1.656448,1.1601903 1.883135,2.3732505 0.166651,0.891779 0.128884,0.992188 -0.373197,0.992188 -0.382223,0 -0.558612,-0.167091 -0.558612,-0.529167 0,-0.451761 -0.17639,-0.529167 -1.205839,-0.529167 H 47.93957 l 0.08136,1.12448 c 0.07897,1.091505 0.110455,1.126887 1.073547,1.206596 1.374605,0.113768 1.374605,0.843924 0,0.843924 h -0.992188 v 2.645834 c 0,2.343452 0.05292,2.645833 0.463021,2.645833 0.286631,0 0.463021,-0.201587 0.463021,-0.529166 0,-0.439621 0.17639,-0.529167 1.04236,-0.529167 1.013077,0 1.044671,-0.02782 1.12448,-0.989987 0.05739,-0.691873 0.221548,-1.01641 0.545139,-1.077734 0.320305,-0.0607 0.463021,0.08134 0.463021,0.460821 0,0.473764 0.162354,0.548567 1.190625,0.548567 0.989658,0 1.190625,-0.08411 1.190625,-0.498308 0,-0.275793 0.236294,-0.560101 0.529167,-0.636689 0.291041,-0.07611 0.529166,-0.279735 0.529166,-0.452503 0,-0.172769 -0.238125,-0.376395 -0.529166,-0.452504 -0.367829,-0.09619 -0.529167,-0.360896 -0.529167,-0.868199 0,-1.324044 -0.31972,-2.383464 -0.719302,-2.383464 -0.213714,0 -0.450842,0.238125 -0.526952,0.529166 -0.298992,1.143347 -1.134996,0.144565 -1.134996,-1.355989 0,-0.127331 0.744141,-0.217699 1.653646,-0.200819 0.909505,0.01688 1.445286,0.08514 1.190625,0.151693 -0.629055,0.164388 -0.586169,0.782028 0.06615,0.952611 0.449606,0.117575 0.529166,0.360896 0.529166,1.618359 0,1.324358 0.05809,1.479979 0.552424,1.479979 0.497904,0 0.534776,-0.104445 0.373618,-1.058334 l -0.178805,-1.058333 h 1.213882 1.213882 v -1.058333 -1.058334 h 1.058333 c 0.942954,0 1.058333,0.06975 1.058333,0.639819 0,1.148951 -0.270634,1.476848 -1.218932,1.476848 -0.870969,0 -0.897734,0.03155 -0.897734,1.058333 0,1.052644 -0.0055,1.058334 -1.025261,1.058334 -0.936625,0 -1.039556,0.07148 -1.190625,0.826823 -0.272955,1.364769 -0.208971,1.554427 0.524402,1.554427 0.504422,0 0.648843,0.106642 0.537469,0.396875 -0.10359,0.269951 0.01429,0.396875 0.368567,0.396875 0.344474,0 0.520864,0.179201 0.520864,0.529167 0,0.487663 0.17639,0.529166 2.248959,0.529166 h 2.248958 v -0.926041 -0.926042 h 1.5875 1.5875 v 0.886422 0.886423 l -2.421895,0.171911 c -1.332045,0.09455 -2.953967,0.171911 -3.604274,0.171911 -1.021,0 -1.13742,0.05417 -0.852998,0.396875 0.269761,0.325042 0.251683,0.396875 -0.0999,0.396875 -0.243342,0 -0.42927,0.21487 -0.42927,0.496093 0,0.518689 -0.899753,0.826823 -2.414323,0.826823 -0.635,0 -0.760678,-0.109284 -0.760678,-0.661458 0,-0.485069 -0.14111,-0.661458 -0.529166,-0.661458 -0.291042,0 -0.529167,-0.163711 -0.529167,-0.363802 0,-0.388597 -1.10749,-0.694532 -2.514219,-0.694532 -0.473313,0 -1.00879,-0.178593 -1.189948,-0.396875 -0.181157,-0.218281 -0.602993,-0.396875 -0.937416,-0.396875 -0.471337,0 -0.649981,0.193327 -0.794594,0.859896 -0.228301,1.052325 -0.433554,1.196779 -1.481873,1.042919 l -0.820325,-0.120398 0.162722,-1.354229 c 0.08949,-0.744826 0.163755,-1.815292 0.16502,-2.378814 0.0019,-0.880624 0.05806,-0.978305 0.399174,-0.695207 0.322895,0.267979 0.396875,0.25511 0.396875,-0.06904 0,-0.219127 -0.238125,-0.460685 -0.529166,-0.536794 -0.316601,-0.08279 -0.529167,-0.360895 -0.529167,-0.692317 0,-0.377548 0.168503,-0.553937 0.529167,-0.553937 0.356515,0 0.529166,-0.176389 0.529166,-0.540618 0,-0.462121 -0.144065,-0.529351 -0.992187,-0.463021 l -0.992188,0.0776 -0.08165,-1.281562 C 45.827669,9.8062785 45.781592,9.7324418 45.201464,9.8780446 44.679369,10.009082 44.602571,9.9498965 44.718665,9.50596 44.840096,9.0416067 44.725587,8.978052 43.767522,8.978052 H 42.678331 V 7.9197186 6.8613852 h -1.058334 -1.058333 v 2.2489584 c 0,2.1532564 -0.02535,2.2493334 -0.595313,2.2577604 l -0.595312,0.0088 0.624623,0.520364 c 0.343545,0.286201 0.849561,0.520364 1.124479,0.520364 0.416034,0 0.499856,-0.199661 0.499856,-1.190625 v -1.190625 h 1.206241 c 0.765344,0 1.14427,0.10027 1.036696,0.274326 -0.09325,0.150879 0.07832,0.749858 0.381262,1.331064 0.342347,0.656809 0.550801,1.554322 0.550801,2.371508 0,1.271763 -0.02488,1.314769 -0.760677,1.314769 -0.418372,0 -1.146072,0.07708 -1.617107,0.171286 -0.823394,0.164679 -0.851051,0.211398 -0.716954,1.211161 0.07671,0.571931 0.324212,1.244004 0.549997,1.493495 0.225787,0.249492 0.490117,1.130847 0.587399,1.958568 0.170611,1.451648 0.208404,1.510863 1.067109,1.671957 0.829339,0.155584 0.890233,0.237387 0.890233,1.195896 V 24.0593 l 2.579688,-0.0186 c 1.418828,-0.01023 2.798646,-0.104801 3.066262,-0.210162 0.439946,-0.173208 0.406752,-0.269606 -0.346398,-1.005948 -0.743956,-0.727355 -1.04385,-0.827916 -2.806338,-0.941026 -1.08535,-0.06965 -2.050783,-0.204058 -2.1454,-0.298678 -0.09462,-0.09462 -0.22633,-0.826742 -0.292688,-1.626938 l -0.120652,-1.454904 h -1.02557 c -0.849181,0 -1.02557,-0.09101 -1.02557,-0.529166 0,-0.440973 0.176389,-0.529167 1.058333,-0.529167 0.881944,0 1.058333,0.08819 1.058333,0.529167 0,0.342808 0.17639,0.529166 0.500859,0.529166 0.544145,0 0.822058,0.489708 0.822058,1.448541 0,0.336331 0.178594,0.680044 0.396875,0.763806 0.218281,0.08376 0.396875,0.316332 0.396875,0.51682 0,0.284953 0.818565,0.399533 3.74994,0.524903 l 3.74994,0.160379 1.541727,1.525639 c 1.816679,1.797724 1.983936,2.468246 0.615685,2.468246 -0.908881,0 -0.926042,-0.02025 -0.926042,-1.092952 v -1.092952 l -0.992187,0.163998 c -0.545703,0.0902 -1.33286,0.165309 -1.749237,0.166911 -0.721556,0.0028 -0.748906,0.04633 -0.583325,0.928953 l 0.173729,0.926042 -1.797929,0.0012 c -0.988859,6.61e-4 -3.137379,0.07838 -4.774488,0.172716 l -2.976563,0.171527 z m 14.552084,-4.677049 c 0,-0.345984 -0.178594,-0.777282 -0.396875,-0.958439 -0.340355,-0.28247 -0.396875,-0.192885 -0.396875,0.629061 0,0.675557 0.117136,0.958439 0.396875,0.958439 0.241493,0 0.396875,-0.246284 0.396875,-0.629061 z m -1.289561,-1.954445 c -0.196358,-0.366898 -0.509886,-0.446159 -1.464516,-0.370234 -0.818447,0.06509 -1.214673,0.217377 -1.214673,0.46684 0,0.272664 0.38595,0.370233 1.464516,0.370233 1.317355,0 1.439413,-0.04691 1.214673,-0.466839 z M 42.678331,14.298666 c 0,-0.981158 -0.04377,-1.034496 -0.93413,-1.138441 -0.513771,-0.05998 -0.990021,-0.05316 -1.058334,0.01515 -0.06831,0.06831 -0.124203,0.580611 -0.124203,1.138441 0,1.006887 0.0077,1.014236 1.058333,1.014236 1.053373,0 1.058334,-0.0048 1.058334,-1.029386 z m 4.365625,-2.674781 c 0,-0.214295 -0.20836,-0.429754 -0.463021,-0.478797 -0.324869,-0.06256 -0.463021,0.0803 -0.463021,0.478797 0,0.398502 0.138152,0.541362 0.463021,0.478798 0.254661,-0.04904 0.463021,-0.264502 0.463021,-0.478798 z M 45.853331,8.4488853 c 0,-0.4409723 0.176389,-0.5291667 1.058333,-0.5291667 0.582083,0 1.058122,-0.089297 1.05786,-0.1984375 C 47.969265,7.6121405 47.431044,7.1829463 46.77348,6.7675166 45.361333,5.8753611 43.9367,5.6989113 43.792994,6.3983644 c -0.0663,0.3226789 0.07114,0.4630208 0.453437,0.4630208 0.463606,0 0.548566,0.1639128 0.548566,1.0583334 0,0.8819444 0.08819,1.0583334 0.529167,1.0583334 0.352777,0 0.529167,-0.176389 0.529167,-0.5291667 z M 1.1387456,21.810344 c 0,-3.130903 -0.028222,-3.307292 -0.52916671,-3.307292 -0.42837303,0 -0.52916669,-0.176389 -0.52916669,-0.926041 0,-1.012589 0.0654863,-1.042537 2.0505209,-0.937744 l 1.1244792,0.05936 V 15.484174 14.269719 H 2.197079 1.1387456 V 13.211385 12.153052 H 2.197079 3.2554123 v 1.058333 1.058334 h 1.0583334 c 1.0296774,0 1.0583334,-0.02465 1.0583334,-0.910427 0,-1.087242 0.2110965,-1.256625 1.2957424,-1.039696 0.7235873,0.144718 0.8209243,0.270064 0.8209243,1.057154 0,0.866898 -0.031212,0.892969 -1.0690336,0.892969 H 5.3506783 l 0.076846,2.182812 0.076846,2.182813 2.38125,0.0134 c 3.5195567,0.01981 3.7882787,-0.0513 3.9144177,-1.035828 0.05846,-0.456311 0.0946,-0.174813 0.08032,0.625552 l -0.02598,1.455208 0.902896,0.132292 c 1.568382,0.229798 0.315982,0.823717 -2.083831,0.988204 -1.5426039,0.105732 -2.1263563,0.244319 -2.1263563,0.504812 0,0.242523 0.3435078,0.359067 1.0583334,0.359067 0.8977199,0 1.0583339,0.08407 1.0583339,0.553937 0,0.331422 0.212565,0.609524 0.529167,0.692317 0.291041,0.07611 0.529166,0.303088 0.529166,0.504397 0,0.561649 -0.978736,0.434393 -1.13078,-0.147025 -0.11902,-0.455133 -0.301688,-0.495752 -1.6183583,-0.359859 L 7.4887458,23.075001 V 21.84736 20.619719 l -1.5213542,0.0036 c -2.7071107,0.0064 -2.7119793,0.01075 -2.7119793,2.408497 v 2.085808 H 2.197079 1.1387456 Z m 2.1166667,-2.116667 c 0,-1.184325 -0.0049,-1.190625 -0.9260417,-1.190625 -0.921142,0 -0.9260417,0.0063 -0.9260417,1.190625 0,1.184326 0.0049,1.190625 0.9260417,1.190625 0.9211419,0 0.9260417,-0.0063 0.9260417,-1.190625 z m 7.4083337,0.396875 c 0,-0.291041 -0.171567,-0.529166 -0.38126,-0.529166 -0.4674104,0 -0.7662486,0.435409 -0.5447817,0.79375 0.2877317,0.465559 0.9260417,0.283185 0.9260417,-0.264584 z m 53.659346,4.835242 c -0.913397,-0.09618 -0.982411,-0.166604 -1.058333,-1.080002 -0.07308,-0.879231 -0.163748,-0.985151 -0.905058,-1.057335 -0.767638,-0.07475 -1.42512,-0.836911 -1.42512,-1.652021 0,-0.138778 0.951619,-0.252134 2.116667,-0.252134 h 2.116667 v 1.964975 c 0,1.648921 0.07448,1.984437 0.463021,2.085975 0.542403,0.141745 0.09757,0.138528 -1.307844,-0.0095 z M 13.7726,23.865573 c 1.085539,-0.09777 1.124479,-0.132821 1.124479,-1.012108 0,-0.857353 0.0522,-0.910829 0.889114,-0.910829 0.489012,0 1.441513,-0.07571 2.116667,-0.168255 l 1.227553,-0.168255 v 1.055081 1.05508 L 16.9476,23.886209 c -1.200547,0.09346 -2.659062,0.149834 -3.241146,0.125283 l -1.058333,-0.04464 z m -0.727604,-1.526062 c 0,-0.218281 0.178594,-0.396875 0.396875,-0.396875 0.218281,0 0.396875,0.178594 0.396875,0.396875 0,0.218281 -0.178594,0.396875 -0.396875,0.396875 -0.218281,0 -0.396875,-0.178594 -0.396875,-0.396875 z m 6.085417,-5.688542 c 0,-1.018646 -0.09679,-1.852083 -0.215082,-1.852083 -0.118295,0 -0.55729,0.357187 -0.975543,0.79375 -1.070011,1.11685 -1.666644,1.04996 -1.769966,-0.198438 -0.07766,-0.938307 -0.135998,-0.996647 -1.074305,-1.074305 -0.964734,-0.07985 -0.992188,-0.11096 -0.992188,-1.124479 0,-1.014882 0.02441,-1.042362 0.926042,-1.042362 0.768607,0 0.926042,-0.09585 0.926042,-0.563785 0,-0.496561 -0.110419,-0.545867 -0.926042,-0.41351 -0.849595,0.137871 -0.926042,0.09616 -0.926042,-0.505266 0,-0.598818 0.09158,-0.650139 1.058334,-0.593096 0.820652,0.04842 1.058333,0.16967 1.058333,0.539885 0,0.262591 0.178594,0.477439 0.396875,0.477439 0.279283,0 0.409941,-0.31358 0.440973,-1.058334 0.02425,-0.582083 0.05402,-1.2666924 0.06615,-1.5213539 C 17.137679,8.2275378 16.92036,8.0199589 16.550725,7.9674624 15.984313,7.887019 15.957657,7.7778411 16.001637,5.718504 c 0.02768,-1.2959367 0.08758,-1.6985087 0.149296,-1.0032898 l 0.10307,1.1611209 2.033518,-0.1452044 c 1.118434,-0.079862 2.234941,-0.2254906 2.481126,-0.3236185 0.377628,-0.1505196 0.460361,0.021579 0.529167,1.1007503 0.06984,1.0954108 0.167075,1.2913099 0.67687,1.3637123 0.382576,0.054335 0.595312,0.2670707 0.595312,0.5953125 0,0.2809206 0.178594,0.5107647 0.396875,0.5107647 0.319705,0 0.396875,0.4115742 0.396875,2.116667 v 2.116666 h -1.058333 c -0.819689,0 -1.058333,-0.101423 -1.058333,-0.449791 0,-0.370417 -0.05836,-0.387926 -0.330729,-0.09922 -0.264584,0.280458 -0.264584,0.374827 0,0.47184 0.22652,0.08306 0.330729,0.781256 0.330729,2.215886 v 2.094618 h 1.046344 c 0.979615,0 1.057062,-0.05713 1.214398,-0.895804 l 0.168054,-0.895804 2.995059,-0.187138 2.99506,-0.187139 0.09002,-1.232162 c 0.115911,-1.586517 -0.01375,-2.68737 -0.316527,-2.68737 -0.131511,0 -0.496035,0.446484 -0.810056,0.992188 -0.53658,0.932462 -0.63835,0.986779 -1.690637,0.902347 -0.95316,-0.07648 -1.141193,-0.0076 -1.264267,0.46302 -0.07952,0.304074 -0.334317,0.552862 -0.566221,0.552862 -0.36238,0 -0.421646,-0.446269 -0.421646,-3.175 0,-2.6458337 0.06615,-3.1750004 0.396875,-3.1750004 0.218281,0 0.396875,-0.1748571 0.396875,-0.3885711 0,-0.2366944 -0.155122,-0.3290451 -0.396875,-0.2362758 -0.300298,0.115235 -0.396875,-0.047747 -0.396875,-0.6697623 0,-0.6456686 0.113543,-0.8220576 0.529167,-0.8220576 0.352778,0 0.529167,-0.1763889 0.529167,-0.5291666 0,-0.3527778 0.176389,-0.5291667 0.529166,-0.5291667 0.352777,0 0.529167,-0.176389 0.529167,-0.5291667 0,-0.4660988 0.17639,-0.5291667 1.479979,-0.5291667 1.257464,0 1.500783,-0.07956 1.618358,-0.5291667 0.178427,-0.6823046 1.134996,-0.7108045 1.134996,-0.033816 0,0.3733147 -0.260733,0.5370439 -1.058333,0.664585 -0.620874,0.099282 -1.058333,0.3150388 -1.058333,0.5219756 0,0.5895493 -0.864267,1.1607678 -2.050521,1.3552485 -1.458044,0.2390391 -1.594573,1.049092 -0.220271,1.3069123 l 0.904205,0.1696305 0.185211,1.976482 c 0.208654,2.2266197 0.587852,2.5301707 1.430264,1.1449337 l 0.505695,-0.831549 0.08573,0.890713 0.08573,0.890713 2.116667,0.007 2.116667,0.007 0.08212,0.992188 0.08212,0.992188 H 32.11097 29.97833 v 2.116666 2.116667 l -3.108854,0.0036 c -3.433814,0.004 -4.29948,0.142655 -4.29948,0.688704 0,0.274093 -0.431919,0.366016 -1.719791,0.366016 h -1.719792 z m 0.187921,-2.645833 c 0.07611,-0.291042 0.239819,-0.529167 0.363801,-0.529167 0.123981,0 0.156887,0.178594 0.07313,0.396875 -0.08376,0.218281 -0.0205,0.396875 0.140595,0.396875 0.16109,0 0.292891,-0.10418 0.292891,-0.231511 0,-0.12733 0.07441,-0.60358 0.165365,-1.058333 0.163245,-0.816227 0.151749,-0.826823 -0.897095,-0.826823 -1.029234,0 -1.066348,0.03103 -1.186813,0.992188 -0.06839,0.545703 -0.07439,1.081484 -0.01333,1.190625 0.224636,0.401506 0.927226,0.182595 1.061464,-0.330729 z m 2.193329,-4.2002611 c 0,-1.0090928 -0.384238,-1.8851563 -0.826823,-1.8851563 -0.375345,0 -0.496094,-0.1941113 -0.496094,-0.7975039 V 6.3247104 l -0.994649,0.6582281 c -0.940687,0.6225173 -0.989482,0.7232013 -0.8994,1.8558373 l 0.09525,1.1976092 h 1.560858 c 0.858472,0 1.560858,-0.1041793 1.560858,-0.2315101 z M 8.5470792,16.554359 c 0,-1.358905 0.865454,-2.28464 2.1358698,-2.28464 1.03593,0 1.03913,0.0033 1.03913,1.058333 v 1.058334 h -1.058333 c -0.8819444,0 -1.0583334,0.08819 -1.0583334,0.529166 0,0.352778 -0.176389,0.529167 -0.5291667,0.529167 -0.4243337,0 -0.5291667,-0.176389 -0.5291667,-0.89036 z m -0.9862704,-5.45964 c 0,-0.654844 0.051598,-0.922735 0.1146622,-0.595313 0.063064,0.327422 0.063064,0.863203 0,1.190625 -0.063064,0.327422 -0.1146622,0.05953 -0.1146622,-0.595312 z M 9.6263006,10.91833 c -0.011488,-0.315295 -0.1697161,-0.633318 -0.3516172,-0.706716 -0.2590427,-0.104526 -0.257243,-0.13798 0.00831,-0.154341 0.4016134,-0.02474 0.6936878,0.6141 0.5005631,1.094863 C 9.708553,11.338838 9.6377904,11.233625 9.626302,10.91833 Z M 1.1889198,9.0441978 C 1.2665779,8.1058908 1.3249177,8.047551 2.2632248,7.9698929 L 3.2554123,7.8877752 V 8.9620804 10.036385 H 2.1811073 1.1068023 Z M 63.051248,5.8030518 V 3.6863851 h 1.058333 1.058334 V 5.8030518 7.9197186 H 64.109581 63.051248 Z M 33.219476,4.5509892 c -1.085538,-0.097773 -1.124479,-0.1328216 -1.124479,-1.0121088 0,-0.8862446 0.02856,-0.9108287 1.058333,-0.9108287 1.250511,0 1.362697,-0.3880675 0.409509,-1.4165732 -0.356854,-0.38505145 -0.565213,-0.69630695 -0.463021,-0.6916789 0.299032,0.0135425 0.956421,0.6238369 1.263039,1.1725582 0.367326,0.6573606 0.90714,0.8336714 0.90714,0.2962842 0,-0.6070202 0.818129,-0.5151431 0.98167,0.110243 0.1777,0.6795252 1.134997,0.7113156 1.134997,0.037692 0,-0.4073262 0.27927,-0.5206647 1.631098,-0.6619585 0.897101,-0.093766 1.690851,-0.1107271 1.763887,-0.037692 0.07304,0.073036 -0.184708,0.1327918 -0.572762,0.1327918 -0.646761,0 -0.705557,0.088195 -0.705557,1.0583334 0,0.8589381 -0.09359,1.0583334 -0.496771,1.0583334 -0.273222,0 -0.651232,-0.1861172 -0.84002,-0.4135935 -0.31128,-0.3750691 -0.364813,-0.3750691 -0.574712,0 -0.148976,0.2662081 -0.603914,0.4135935 -1.276644,0.4135935 -0.868796,0 -1.045186,0.089304 -1.045186,0.5291667 0,0.3451886 -0.16098,0.5130956 -0.463021,0.4829421 -0.254661,-0.025424 -0.969036,-0.091801 -1.5875,-0.1475047 z M 1.1387456,2.6280517 V 1.5697183 H 2.197079 3.2554123 V 2.6280517 3.6863851 H 2.197079 1.1387456 Z m 21.4312504,0 V 1.5697183 h -1.058333 c -0.909081,0 -1.058333,0.080845 -1.058333,0.573264 0,0.3152951 -0.06721,0.5060551 -0.149353,0.4239111 -0.08214,-0.082144 -0.06889,-0.5782378 0.02945,-1.1024306 l 0.178798,-0.95307784 h 2.087221 2.087221 V 1.5697183 c 0,0.7282256 0.114961,1.0583334 0.368568,1.0583334 0.307507,0 0.689766,0.525191 0.689766,0.9476812 0,0.3103817 -1.096425,0.054667 -1.227237,-0.2862228 -0.08376,-0.2182813 -0.305412,-0.396875 -0.492555,-0.396875 -0.187143,0 -0.408793,0.1785937 -0.492555,0.396875 -0.08376,0.2182812 -0.334626,0.396875 -0.557475,0.396875 C 22.67886,3.6863851 22.57,3.4020435 22.57,2.6280517 Z m 18.12396,0.79375 c -0.08994,-0.1455208 -0.03743,-0.2645833 0.116675,-0.2645833 0.15411,0 0.2802,0.1190625 0.2802,0.2645833 0,0.1455209 -0.0525,0.2645834 -0.116676,0.2645834 -0.06417,0 -0.190262,-0.1190625 -0.280199,-0.2645834 z M 31.197263,1.6803704 c -0.183724,-0.4787777 -0.181973,-1.45427957 0.0019,-1.00900269 0.06643,0.16095841 0.443394,0.23383315 0.83901,0.16219973 L 32.756503,0.70349275 32.115071,1.4011889 C 31.35903,2.2235453 31.400863,2.2108195 31.197311,1.6803704 Z M 26.80333,1.0405516 c 0,-0.44097219 0.17639,-0.52916664 1.058333,-0.52916664 0.881944,0 1.058334,0.0881945 1.058334,0.52916664 0,0.4409723 -0.17639,0.5291667 -1.058334,0.5291667 -0.881943,0 -1.058333,-0.088194 -1.058333,-0.5291667 z"
         id="path5985" /><path
         style="fill:#b9b9b9;fill-opacity:1;stroke-width:1"
         d="m 0.0804122,66.128054 c 0,-0.470371 0.1763889,-0.529166 1.5875001,-0.529166 1.411111,0 1.5875,0.0588 1.5875,0.529166 0,0.470371 -0.176389,0.529167 -1.5875,0.529167 -1.4111112,0 -1.5875001,-0.0588 -1.5875001,-0.529167 z M 28.919997,66.020533 c 0,-0.506426 0.108265,-0.608378 0.529166,-0.498308 0.406083,0.106193 0.529167,0.0081 0.529167,-0.421646 0,-0.383635 0.166669,-0.560025 0.529167,-0.560025 0.440973,0 0.529166,0.17639 0.529166,1.058334 v 1.058333 H 29.97833 c -0.94152,0 -1.058333,-0.07027 -1.058333,-0.636688 z m 17.100098,0.04138 c -0.08775,-0.327421 -0.161166,-1.041796 -0.163153,-1.5875 -0.0036,-0.981765 0.0075,-0.992187 1.054722,-0.992187 h 1.058333 v 1.5875 1.5875 h -0.895183 c -0.704678,0 -0.929135,-0.126688 -1.054719,-0.595313 z m 4.331153,0.08212 c 0,-0.40204 0.214905,-0.530982 0.992187,-0.595312 0.967478,-0.08007 0.992188,-0.108477 0.992188,-1.140452 0,-1.031976 -0.02471,-1.060379 -0.992188,-1.140453 -0.938308,-0.07766 -0.992187,-0.131537 -0.992187,-0.992187 0,-0.885359 -0.02874,-0.910069 -1.058334,-0.910069 -0.912048,0 -1.062574,0.08228 -1.089025,0.595313 -0.02786,0.540435 -0.04288,0.546531 -0.162899,0.06614 -0.189772,-0.759568 -0.340188,-0.803354 -2.424969,-0.705892 -1.645627,0.07693 -1.879357,0.150969 -1.879357,0.595312 0,0.331066 -0.183936,0.507455 -0.529167,0.507455 -0.359688,0 -0.529166,-0.176389 -0.529166,-0.550746 v -0.550746 l -0.859896,0.528733 c -0.554551,0.340984 -1.118267,0.478623 -1.5875,0.387612 C 39.535623,62.10388 39.50333,62.02853 39.50333,60.54096 c 0,-1.757545 0.0952,-1.706497 -2.582508,-1.384874 -1.372661,0.16487 -1.394137,0.181279 -1.55517,1.188323 -0.08981,0.561631 -0.267132,1.021146 -0.394055,1.021146 -0.12692,0 -0.23259,0.208359 -0.234818,0.463021 -0.0035,0.395698 -0.04134,0.405315 -0.260532,0.06615 -0.141065,-0.218281 -0.258305,-1.1258 -0.260533,-2.016705 l -0.004,-1.619829 -1.058334,-0.169236 c -1.000106,-0.159924 -1.058333,-0.220009 -1.058333,-1.092149 0,-0.900346 0.02588,-0.922915 1.058333,-0.922915 h 1.058334 v 1.058334 1.058333 h 1.058333 1.058333 V 56.08986 53.989164 l -0.992187,-0.08212 c -0.963092,-0.07971 -0.994574,-0.115094 -1.073547,-1.206598 l -0.08136,-1.12448 h 1.073547 1.073547 v 1.165606 1.165606 l 2.116667,-0.145079 2.116667,-0.145081 v 1.266124 1.266124 l 1.5875,-0.165926 c 1.447546,-0.151299 1.5875,-0.121063 1.5875,0.342972 0,0.71206 1.632953,0.916106 5.431872,0.678741 l 3.034795,-0.189622 v 0.806704 c 0,0.489164 -0.182258,0.91286 -0.463021,1.076389 -0.429972,0.250436 -0.430734,0.270258 -0.01069,0.27773 0.383156,0.0068 0.464071,0.341821 0.529167,2.190859 l 0.07684,2.182812 h 1.058334 c 1.055946,0 1.058516,0.0026 1.139692,1.124479 l 0.08136,1.12448 h 5.80562 c 5.62923,0 5.80562,0.01609 5.80562,0.529166 0,0.513131 -0.17639,0.529167 -5.820834,0.529167 -5.644444,0 -5.820833,-0.01603 -5.820833,-0.529167 0,-0.442989 -0.17639,-0.529166 -1.083104,-0.529166 -0.860589,0 -1.111533,0.108714 -1.221483,0.529166 -0.197729,0.756071 -1.928757,0.770406 -1.928757,0.01597 z m -5.556251,-5.439931 c 0,-0.220486 -0.235185,-0.396875 -0.529166,-0.396875 -0.293982,0 -0.529167,0.176389 -0.529167,0.396875 0,0.220485 0.235185,0.396875 0.529167,0.396875 0.293981,0 0.529166,-0.17639 0.529166,-0.396875 z m -3.175,-0.892969 c 0,-0.582927 1.154033,-0.900287 2.38125,-0.654844 0.779317,0.155864 0.79375,0.138906 0.79375,-0.932656 v -1.091406 h -1.058333 c -0.760616,0 -1.058333,0.110765 -1.058333,0.393747 0,0.254778 -0.373529,0.45348 -1.058334,0.562983 -1.023374,0.163645 -1.058333,0.203076 -1.058333,1.193753 0,0.848127 0.09111,1.024517 0.529167,1.024517 0.341018,0 0.529166,-0.17639 0.529166,-0.496094 z m 7.556202,-0.156951 c 0.472873,-0.357661 0.403465,-0.389125 -0.875472,-0.396875 -1.062072,-0.0064 -1.389063,0.08501 -1.389063,0.388461 0,0.526934 1.571271,0.532773 2.264535,0.0084 z m -9.672869,-3.71258 c 0,-0.881944 -0.0441,-0.926042 -0.926041,-0.926042 -0.881944,0 -0.926042,0.0441 -0.926042,0.926042 0,0.881943 0.0441,0.926041 0.926042,0.926041 0.881943,0 0.926041,-0.0441 0.926041,-0.926041 z m -14.816667,8.823669 c 0,-0.433994 0.140335,-0.748086 0.330729,-0.740225 0.419645,0.01733 3.551159,1.252016 3.373438,1.330082 -0.07276,0.03196 -0.935964,0.08194 -1.918229,0.111064 l -1.785938,0.05295 z M 22.69156,62.516044 c 0.295374,-1.581115 0.604306,-1.618538 0.730249,-0.08846 0.058,0.704633 -0.03452,0.924208 -0.423117,1.004234 -0.442799,0.09119 -0.476484,-0.0093 -0.307132,-0.915779 z m 1.959093,0.841973 c -0.06831,-0.06831 -0.07513,-0.544562 -0.01515,-1.058333 0.09464,-0.810641 0.203164,-0.93413 0.820941,-0.93413 0.912331,0 1.346886,0.443894 1.346886,1.375833 0,0.682549 -0.0798,0.740834 -1.014236,0.740834 -0.55783,0 -1.070128,-0.05589 -1.138441,-0.124204 z M 11.722079,56.103333 c 0,-0.959126 -0.06054,-1.040247 -0.892934,-1.196404 -0.8554504,-0.160483 -0.8986415,-0.225581 -1.0288964,-1.5508 -0.074779,-0.760806 -0.082651,-1.472581 -0.017492,-1.581721 0.065158,-0.109141 0.5134184,-0.198438 0.9961334,-0.198438 0.872796,0 0.878333,0.0081 0.998316,1.454902 0.06636,0.800198 0.208177,1.542428 0.315152,1.649404 0.106976,0.106977 1.069659,0.238694 2.139297,0.292709 1.753621,0.08855 2.027276,0.178848 2.783871,0.918559 0.758098,0.741183 0.792118,0.838841 0.352503,1.011918 -0.267615,0.105362 -1.647433,0.199935 -3.066261,0.210161 l -2.579689,0.0186 z M 23.62833,52.7342 c 0,-0.821947 0.05652,-0.911532 0.396875,-0.629063 0.218281,0.181158 0.396875,0.612455 0.396875,0.958437 0,0.382778 -0.155381,0.629063 -0.396875,0.629063 -0.279738,0 -0.396875,-0.282882 -0.396875,-0.958437 z m 17.594792,0.693854 c 0.08994,-0.145521 0.216027,-0.264584 0.280199,-0.264584 0.06417,0 0.116676,0.119063 0.116676,0.264584 0,0.145521 -0.12609,0.264583 -0.280199,0.264583 -0.154109,0 -0.206613,-0.119062 -0.116676,-0.264583 z m 1.504993,-0.1954 c 0.132823,-0.689698 1.008549,-0.766617 1.008549,-0.08858 0,0.378643 -0.169923,0.548566 -0.548566,0.548566 -0.378645,0 -0.521129,-0.142483 -0.459983,-0.459983 z m -4.283118,-3.6233 v -2.266717 h 1.058333 1.058334 v -1.992678 c 0,-2.162336 0.195239,-2.44824 1.455801,-2.131856 0.63274,0.158805 0.660866,0.252031 0.660866,2.190512 0,1.332052 -0.123728,2.167538 -0.361691,2.442355 -0.198927,0.229741 -0.43846,0.923724 -0.532292,1.542188 -0.152754,1.006827 -0.114911,1.124479 0.361689,1.124479 0.361103,0 0.532294,-0.175321 0.532294,-0.54514 0,-0.468145 0.140128,-0.53354 0.992187,-0.46302 0.938308,0.07766 0.996646,0.135998 1.074306,1.074306 0.04516,0.545703 0.04516,0.998688 0,1.006634 -0.04517,0.0079 -1.481103,0.07547 -3.190973,0.15005 l -3.108854,0.135607 z M 14.897079,48.930137 v -2.645834 h 1.058334 c 0.871502,0 1.058333,0.09073 1.058333,0.513954 0,0.41376 0.215203,0.529815 1.103916,0.595312 1.299345,0.09576 1.618923,0.626044 0.60875,1.010111 -0.639596,0.243173 -0.694101,0.363807 -0.538684,1.192252 l 0.172913,0.921705 h -1.202614 c -1.026225,0 -1.202614,0.07761 -1.202614,0.529167 0,0.352777 -0.176389,0.529166 -0.529167,0.529166 -0.493889,0 -0.529167,-0.176389 -0.529167,-2.645833 z m 5.556251,2.275599 c 0,-0.441259 2.260801,-0.702715 2.656321,-0.307194 0.513017,0.513016 0.221508,0.677428 -1.201113,0.677428 -1.070589,0 -1.455208,-0.09785 -1.455208,-0.370234 z m 5.027083,-0.158932 c 0,-0.293982 -0.176389,-0.529167 -0.396875,-0.529167 -0.218281,0 -0.396875,-0.178594 -0.396875,-0.396875 0,-0.246944 -0.249884,-0.396875 -0.661458,-0.396875 -0.702811,0 -0.766849,-0.200652 -0.496094,-1.554427 0.151069,-0.755343 0.254,-0.826823 1.190625,-0.826823 1.019749,0 1.025261,-0.0057 1.025261,-1.058334 0,-1.033134 0.02205,-1.058333 0.926041,-1.058333 0.903994,0 0.926042,-0.02519 0.926042,-1.058333 v -1.058334 h -4.233334 c -4.609298,0 -4.486581,-0.04591 -4.06657,1.521355 0.204154,0.761796 1.156154,0.816263 1.156154,0.06615 0,-0.293981 0.176389,-0.529166 0.396875,-0.529166 0.246944,0 0.396875,0.249883 0.396875,0.661458 0,0.411575 -0.149931,0.661458 -0.396875,0.661458 -0.218282,0 -0.396875,0.178594 -0.396875,0.396875 0,0.246944 -0.249884,0.396875 -0.661459,0.396875 -0.485069,0 -0.661458,-0.14111 -0.661458,-0.529166 0,-0.293981 -0.176389,-0.529167 -0.396875,-0.529167 -0.220486,0 -0.396875,0.235186 -0.396875,0.529167 0,0.388056 -0.176389,0.529166 -0.661458,0.529166 -0.399248,0 -0.661459,-0.150995 -0.661459,-0.380902 0,-0.249168 -0.343149,-0.409305 -0.992187,-0.46302 -0.963093,-0.07971 -0.994574,-0.115094 -1.073547,-1.206598 l -0.08136,-1.12448 H 15.9402 c 0.897157,0 1.073546,0.08695 1.073546,0.529167 0,0.388056 0.176389,0.529167 0.661459,0.529167 0.477651,0 0.661458,-0.142259 0.661458,-0.511943 0,-1.05741 -0.549172,-1.878478 -1.817992,-2.718085 -1.343468,-0.889006 -1.610708,-1.458707 -1.61868,-3.450702 -0.0026,-0.649808 -0.09863,-0.727604 -0.898095,-0.727604 -1.116634,0 -1.213008,-0.298355 -1.21787,-3.770313 l -0.0036,-2.579687 h 1.058333 1.058333 v 3.175 3.175 h 1.027248 1.027249 l 0.183224,1.955271 c 0.179446,1.914959 0.199861,1.958599 0.990199,2.116667 0.443837,0.08877 1.327875,0.161396 1.964529,0.161396 h 1.157552 v -1.058334 c 0,-1.05437 0.0039,-1.058333 1.035077,-1.058333 1.0014,0 1.040894,0.03443 1.213881,1.058333 l 0.178805,1.058334 h 3.151744 3.151743 v 4.233333 4.233334 h 1.058333 1.058334 V 47.50272 45.546134 l 1.068094,-0.101859 1.068091,-0.101859 -0.0759,2.124591 -0.07591,2.124588 -2.050521,0.07727 -2.050521,0.07728 v 0.914911 0.914913 h -2.248958 c -2.07257,0 -2.248959,-0.0415 -2.248959,-0.529166 z m 0.567598,-1.389063 c -0.591157,-0.936675 -1.361348,-1.284454 -1.361348,-0.614712 0,0.239885 0.224225,0.416275 0.529167,0.416275 0.352778,0 0.529167,0.176389 0.529167,0.529166 0,0.308433 0.176389,0.529167 0.422857,0.529167 0.362838,0 0.345828,-0.122052 -0.119843,-0.859896 z m 28.53657,-1.256771 v -2.116667 h 1.094296 1.094298 l -0.168257,-1.227552 c -0.09254,-0.675156 -0.168254,-1.627656 -0.168254,-2.116667 0,-0.613934 -0.122832,-0.889114 -0.396875,-0.889114 -0.220485,0 -0.396875,-0.235186 -0.396875,-0.529167 0,-0.349686 -0.176389,-0.529166 -0.520054,-0.529166 -0.425027,0 -0.552471,-0.244375 -0.697466,-1.337406 -0.144372,-1.088326 -0.256942,-1.30565 -0.604427,-1.166897 -0.234855,0.09378 -1.349745,0.236376 -2.477532,0.316881 l -2.050521,0.14637 v -1.096142 -1.09614 h 2.116667 2.116667 V 35.70097 34.642636 h 1.058333 1.058333 v 1.058334 c 0,0.773991 0.108861,1.058333 0.405178,1.058333 0.222851,0 0.473713,-0.178594 0.557475,-0.396875 0.08376,-0.218281 0.31815,-0.396875 0.520864,-0.396875 0.20271,0 0.368567,0.178594 0.368567,0.396875 0,0.293981 0.308681,0.396875 1.190625,0.396875 h 1.190625 V 35.70097 34.642636 h 1.058333 1.058334 v -1.165854 c 0,-1.035593 0.05912,-1.150393 0.529166,-1.027475 0.406083,0.106193 0.529167,0.0081 0.529167,-0.421646 0,-0.383635 0.166669,-0.560025 0.529167,-0.560025 0.469259,0 0.529166,0.17639 0.529166,1.558102 0,1.321517 -0.07031,1.552523 -0.46302,1.521355 -0.449684,-0.03569 -0.49525,0.09421 -0.567188,1.616898 -0.0259,0.548089 -0.154051,0.595312 -1.615625,0.595312 -1.41111,0 -1.5875,0.0588 -1.5875,0.529167 0,0.352777 -0.17639,0.529166 -0.529167,0.529166 -0.352777,0 -0.529166,0.17639 -0.529166,0.529167 0,0.352777 -0.17639,0.529167 -0.529167,0.529167 -0.431779,0 -0.529167,0.17639 -0.529167,0.958437 0,0.785985 0.06585,0.903788 0.365977,0.654706 0.282218,-0.234219 0.401423,-0.211357 0.520862,0.0999 0.106505,0.277546 -0.0078,0.403628 -0.365975,0.403628 -0.489159,0 -0.520864,0.193262 -0.520864,3.175 0,2.99861 0.0294,3.175 0.529167,3.175 0.361233,0 0.529167,-0.17639 0.529167,-0.555808 0,-0.49562 0.127759,-0.545647 1.179798,-0.461975 1.139814,0.09065 1.194975,0.06017 1.627682,-0.899401 0.283223,-0.628074 0.627661,-0.993233 0.936869,-0.993233 0.431474,0 0.488984,0.229944 0.488984,1.955139 v 1.955136 l -3.175,0.190767 -3.175,0.190767 v 0.896803 c 0,0.869884 -0.03177,0.896805 -1.058334,0.896805 h -1.058333 z m 5.291667,-0.529166 c 0,-0.352777 -0.17639,-0.529167 -0.529167,-0.529167 -0.352777,0 -0.529166,0.17639 -0.529166,0.529167 0,0.352776 0.176389,0.529166 0.529166,0.529166 0.352777,0 0.529167,-0.17639 0.529167,-0.529166 z m -2.38125,-6.879167 c 0,-0.764353 -0.110244,-1.058334 -0.396875,-1.058334 -0.286631,0 -0.396875,0.293981 -0.396875,1.058334 0,0.764352 0.110244,1.058333 0.396875,1.058333 0.286631,0 0.396875,-0.293981 0.396875,-1.058333 z m 1.058333,-3.571876 c 0,-0.277182 -0.279283,-0.396875 -0.926041,-0.396875 -0.875562,0 -1.145067,0.221946 -0.749652,0.617361 0.357581,0.357584 1.675693,0.18415 1.675693,-0.220486 z M 19.130413,48.930137 c 0,-0.440973 0.176389,-0.529167 1.058333,-0.529167 h 1.058334 l 0.04234,-1.389062 c 0.02739,-0.898584 0.07931,-1.094968 0.147041,-0.556168 0.06889,0.548026 0.28064,0.878904 0.619115,0.967417 0.699559,0.182939 0.667433,0.977813 -0.03952,0.977813 -0.331421,0 -0.609523,0.212566 -0.692317,0.529167 -0.108411,0.414568 -0.360895,0.529167 -1.165854,0.529167 -0.851086,0 -1.027475,-0.09084 -1.027475,-0.529167 z M 7.4887458,47.386735 c 0,-0.557832 0.055892,-1.070129 0.1242045,-1.138441 0.068313,-0.06831 0.5445625,-0.07513 1.0583333,-0.01516 0.8903635,0.103955 0.934129,0.157292 0.934129,1.138452 0,1.024562 -0.00496,1.029385 -1.0583334,1.029385 -1.0506642,0 -1.0583334,-0.0074 -1.0583334,-1.014236 z M 7.3173823,45.22774 C 6.5091908,44.901654 6.2888379,44.43222 6.9439642,44.43222 c 0.5072587,0 0.5447816,-0.154903 0.5447816,-2.248958 0,-2.072569 -0.041503,-2.248959 -0.5291667,-2.248959 -0.3407362,0 -0.5291666,-0.17639 -0.5291666,-0.49535 0,-0.373314 -0.2607342,-0.537043 -1.0583334,-0.664586 -0.6627035,-0.105971 -1.0583334,-0.31074 -1.0583334,-0.547769 0,-0.256186 -0.3634558,-0.404831 -1.1244792,-0.459894 -1.5162017,-0.109701 -1.5779596,-0.838089 -0.081418,-0.96026 0.5736836,-0.04683 1.1752604,-0.265943 1.3368373,-0.486913 0.2617192,-0.357923 0.3318803,-0.355849 0.6429811,0.019 0.3005627,0.362165 0.2709821,0.420775 -0.212358,0.420775 -0.3919723,0 -0.5615636,0.16583 -0.5615636,0.549108 0,0.445196 0.142017,0.53421 0.7504819,0.470387 0.4127651,-0.0433 1.0634198,0.126323 1.4458996,0.376934 0.9374386,0.614233 0.9786186,0.594439 0.9786186,-0.470387 0,-0.729075 -0.1055184,-0.926042 -0.4960937,-0.926042 -0.343198,0 -0.5466956,-0.253008 -0.6602786,-0.820925 -0.2219934,-1.109967 -0.0507,-1.295742 1.1947385,-1.295742 1.0654398,0 1.0654679,2.7e-5 1.0057355,0.992188 -0.1096936,1.822024 -0.019878,2.182812 0.5433984,2.182812 0.3741968,0 0.5291667,0.17639 0.5291667,0.602306 0,0.543121 -0.1039937,0.592386 -1.0583334,0.501375 -0.9315112,-0.08883 -1.0583334,-0.03419 -1.0583334,0.456028 0,0.485092 0.1562487,0.556958 1.2108969,0.556958 H 9.910539 l -0.086417,0.992188 c -0.084783,0.973423 -0.067653,0.99374 0.90577,1.074306 0.777281,0.06433 0.992187,0.193273 0.992187,0.595313 0,0.450847 -0.192857,0.513193 -1.5875,0.513193 H 8.5470792 v 1.190625 c 0,1.243772 -0.155611,1.361181 -1.2296969,0.927812 z m 5.7276137,-0.530937 c 0,-0.352777 0.176389,-0.529166 0.529167,-0.529166 0.352777,0 0.529166,0.176389 0.529166,0.529166 0,0.352777 -0.176389,0.529167 -0.529166,0.529167 -0.352778,0 -0.529167,-0.17639 -0.529167,-0.529167 z m 36.247918,-2.116666 c 0,-1.442239 0.05145,-1.5875 0.56224,-1.5875 0.488598,0 0.540581,0.108296 0.396875,0.826823 -0.09095,0.454752 -0.165365,1.169127 -0.165365,1.5875 0,0.499768 -0.136125,0.760677 -0.396875,0.760677 -0.308681,0 -0.396875,-0.352777 -0.396875,-1.5875 z m -17.252641,-4.828646 0.1065,-3.108855 h -3.333178 -3.333182 v 1.058334 1.058333 h 2.248959 2.248958 v 1.069033 1.069033 l -2.182813,-0.07684 -2.182812,-0.07685 -0.08212,-0.992187 c -0.07984,-0.964735 -0.110959,-0.992188 -1.124479,-0.992188 -1.037038,0 -1.042362,-0.0053 -1.042362,-1.04236 0,-1.013521 -0.02745,-1.044636 -0.992187,-1.12448 -0.938307,-0.07766 -0.996647,-0.135998 -1.074305,-1.074306 -0.07984,-0.964734 -0.11096,-0.992187 -1.124479,-0.992187 -1.0397,0 -1.042362,0.0027 -1.042362,1.058333 0,1.04789 -0.0099,1.058333 -0.999179,1.058333 h -0.99918 l 0.100929,-1.058333 c 0.0964,-1.01087 0.141894,-1.058333 1.014392,-1.058333 0.911037,0 0.913248,-0.003 0.832105,-1.12448 -0.07617,-1.052787 -0.13561,-1.129723 -0.932285,-1.206719 -0.734343,-0.07097 -0.873983,-0.205145 -1.019215,-0.979297 -0.162822,-0.867916 -0.212539,-0.899626 -1.530324,-0.976093 -0.749119,-0.04347 -2.165707,-0.0395 -3.147972,0.0088 -1.55354,0.07643 -1.785938,0.15389 -1.785938,0.595313 0,0.331076 -0.183936,0.507465 -0.529167,0.507465 -0.3596889,0 -0.5291664,-0.176389 -0.5291664,-0.550746 V 28.249477 L 8.7455167,28.77821 c -0.5545495,0.340984 -1.1182657,0.478623 -1.5875,0.387612 -0.6953121,-0.134861 -0.7276042,-0.210211 -0.7276042,-1.697781 0,-1.757545 0.095195,-1.706496 -2.5825076,-1.384876 -1.3726616,0.164872 -1.3941372,0.181282 -1.5551701,1.188325 -0.089808,0.561631 -0.267133,1.021146 -0.3940551,1.021146 -0.1269221,0 -0.2391358,0.208359 -0.2493638,0.463021 -0.046301,1.152819 -0.4745302,-0.689594 -0.491974,-2.116667 -0.016365,-1.338766 -0.082105,-1.521354 -0.54776301,-1.521354 -0.44097224,0 -0.52916669,-0.176389 -0.52916669,-1.058333 0,-0.881945 0.08819445,-1.058334 0.52916669,-1.058334 0.44097221,0 0.52916671,0.176389 0.52916671,1.058334 v 1.058333 H 2.197079 3.2554123 v -2.085808 c 0,-2.397744 0.00487,-2.402067 2.7119793,-2.408496 l 1.5213542,-0.0036 v 1.227641 1.227641 l 1.4841954,-0.153182 c 1.3059458,-0.134786 1.4999298,-0.09302 1.6152058,0.347802 0.183015,0.699849 1.796489,0.894389 5.499123,0.663039 l 3.026445,-0.189099 0.0745,3.266724 0.07449,3.266726 h 1.058333 c 1.055947,0 1.058517,0.0026 1.139692,1.124479 l 0.08136,1.12448 h 7.393121 7.39312 v 1.058333 1.058333 h 1.058334 1.058333 v 2.116667 2.116667 H 37.386664 36.32833 v 1.058333 1.058334 h -1.058333 -1.058333 v -1.058334 c 0,-1.055761 -0.0026,-1.058333 -1.04312,-1.058333 -1.01196,0 -1.045983,0.02964 -1.138947,0.992187 -0.05271,0.545704 -0.0479,-0.406797 0.01069,-2.116666 z M 36.32833,35.70097 v -1.058334 h -1.058333 -1.058333 v 1.058334 1.058333 h 1.058333 1.058333 z M 11.722079,27.631178 c 0,-0.220486 -0.235185,-0.396875 -0.529166,-0.396875 -0.293982,0 -0.529167,0.176389 -0.529167,0.396875 0,0.220485 0.235185,0.396875 0.529167,0.396875 0.293981,0 0.529166,-0.17639 0.529166,-0.396875 z M 8.5470792,26.738209 c 0,-0.582928 1.1540327,-0.900287 2.3812498,-0.654844 0.779319,0.155864 0.79375,0.138906 0.79375,-0.932656 v -1.091406 h -1.058333 c -0.7606168,0 -1.0583334,0.110764 -1.0583334,0.393748 0,0.254778 -0.3735293,0.453478 -1.0583334,0.562983 -1.0233748,0.163644 -1.0583334,0.203075 -1.0583334,1.193751 0,0.848128 0.091106,1.024518 0.5291667,1.024518 0.3410186,0 0.5291667,-0.17639 0.5291667,-0.496094 z m 7.5562018,-0.15695 c 0.472999,-0.357759 0.404464,-0.389125 -0.867168,-0.396875 -1.120695,-0.0068 -1.352074,0.06634 -1.228464,0.38846 0.194867,0.507815 1.428815,0.512768 2.095632,0.0084 z M 6.4304125,22.868678 c 0,-0.903994 -0.025199,-0.926042 -1.0583334,-0.926042 -1.033135,0 -1.0583334,0.02205 -1.0583334,0.926042 0,0.903993 0.025199,0.926041 1.0583334,0.926041 1.033135,0 1.0583334,-0.02205 1.0583334,-0.926041 z m 4.4979165,14.81596 -1.1906247,-0.636841 1.2567707,-0.01196 c 0.691224,-0.0066 1.346068,-0.01196 1.455209,-0.01196 0.29958,0 0.238136,1.135195 -0.06615,1.222061 -0.145521,0.04154 -0.800365,-0.211045 -1.455209,-0.561309 z M 0.46356513,35.45859 c 0.0823897,-0.13331 0.0292359,-0.579795 -0.11811947,-0.992187 l -0.26791888,-0.749808 0.53060939,0.624623 c 0.63433473,0.746728 0.68758713,1.359752 0.11811948,1.359752 -0.22686945,0 -0.34508018,-0.109072 -0.26269052,-0.24238 z M 64.000179,35.370241 c 0.07621,-0.181902 0.563795,-0.603145 1.083516,-0.936096 l 0.944946,-0.605367 -0.184946,0.605367 c -0.101719,0.332951 -0.196162,0.754194 -0.209875,0.936096 -0.01453,0.192775 -0.389348,0.330729 -0.898573,0.330729 -0.596429,0 -0.829673,-0.104942 -0.735068,-0.330729 z M 57.759581,31.58268 v -0.844585 l 1.826123,0.6955 c 1.004366,0.382524 1.780458,0.76989 1.724649,0.860809 -0.05581,0.09092 -0.877562,0.158009 -1.82612,0.149084 l -1.724652,-0.01622 z m -2.116667,-2.231711 c 0,-1.281239 0.660239,-1.474777 0.924624,-0.271039 0.195477,0.89 0.01588,1.329373 -0.543364,1.329373 -0.268415,0 -0.38126,-0.313246 -0.38126,-1.058334 z m 2.031495,0.859896 c -0.06402,-0.10914 -0.05754,-0.58539 0.01442,-1.058333 0.11235,-0.7385 0.237321,-0.859896 0.88523,-0.859896 0.802574,0 1.302194,0.602414 1.302194,1.570106 0,0.459902 -0.165327,0.546561 -1.042717,0.546561 -0.573495,0 -1.0951,-0.0893 -1.159122,-0.198438 z m 7.956527,-5.275613 c -0.327351,-0.08555 -0.463021,-0.386658 -0.463021,-1.027641 0,-0.730253 0.102949,-0.906642 0.529167,-0.906642 0.440973,0 0.529166,0.176389 0.529166,1.058334 0,0.582083 -0.02976,1.044521 -0.06615,1.027641 -0.03638,-0.01688 -0.274505,-0.08514 -0.529166,-0.151692 z M 44.794997,23.030415 c 0,-0.966392 -0.05625,-1.03944 -0.926041,-1.202614 -0.724422,-0.135902 -0.926677,-0.30073 -0.928955,-0.75705 -0.0016,-0.320828 -0.07671,-1.029808 -0.16691,-1.575511 l -0.163997,-0.992188 h 1.060189 1.060188 l 0.120652,1.454903 c 0.06636,0.800196 0.198067,1.532318 0.292688,1.626938 0.09462,0.09462 1.06005,0.229024 2.1454,0.298678 1.762488,0.11311 2.062382,0.213671 2.806338,0.941026 0.75315,0.736342 0.786344,0.83274 0.346398,1.005948 -0.267616,0.105361 -1.647434,0.199933 -3.066262,0.210161 l -2.579688,0.0186 z M 1.4033289,19.693677 c 0,-1.184325 0.0049,-1.190625 0.9260417,-1.190625 0.9211419,0 0.9260417,0.0063 0.9260417,1.190625 0,1.184326 -0.0049,1.190625 -0.9260417,1.190625 -0.921142,0 -0.9260417,-0.0063 -0.9260417,-1.190625 z m 8.3343754,0.661459 c -0.2214669,-0.358341 0.077371,-0.79375 0.5447817,-0.79375 0.209693,0 0.38126,0.238125 0.38126,0.529166 0,0.547769 -0.63831,0.730143 -0.9260417,0.264584 z M 56.701248,19.66128 c 0,-0.821946 0.05652,-0.911531 0.396875,-0.629061 0.218281,0.181157 0.396875,0.612455 0.396875,0.958439 0,0.382777 -0.155382,0.629061 -0.396875,0.629061 -0.279739,0 -0.396875,-0.282882 -0.396875,-0.958439 z M 5.5582434,18.601022 C 5.455853,18.498632 5.3720791,17.482202 5.3720791,16.342288 v -2.072569 h 1.0307953 1.0307952 l 0.1873679,-2.116667 c 0.1956954,-2.2107419 0.3617201,-2.4181395 1.5658606,-1.956067 0.6737541,0.258543 0.589616,3.90404 -0.1106522,4.794287 -0.2910602,0.370023 -0.5291667,1.073357 -0.5291667,1.563087 0,0.713971 0.104833,0.89036 0.5291667,0.89036 0.3527777,0 0.5291667,-0.176389 0.5291667,-0.529167 0,-0.440972 0.176389,-0.529166 1.0583334,-0.529166 h 1.058333 v 1.058333 c 0,0.660536 -0.124311,1.065199 -0.330729,1.076599 -3.6532399,0.201759 -5.6833128,0.229498 -5.8331066,0.0797 z M 48.102289,15.857219 v -2.645834 h 0.992188 c 0.815797,0 0.992187,0.09408 0.992187,0.529167 0,0.442989 0.17639,0.529167 1.083104,0.529167 0.860589,0 1.111533,0.108713 1.221483,0.529167 0.103984,0.397631 0.360897,0.529166 1.033563,0.529166 h 0.895184 v -1.455208 c 0,-1.11713 -0.0922,-1.455209 -0.396875,-1.455209 -0.218282,0 -0.396875,0.178594 -0.396875,0.396875 0,0.593506 -0.974911,0.479873 -1.134997,-0.132291 -0.07611,-0.291042 -0.339267,-0.529167 -0.584795,-0.529167 -0.245528,0 -0.508685,0.238125 -0.584795,0.529167 -0.157576,0.602569 -1.134997,0.730248 -1.134997,0.148263 0,-0.249167 -0.343149,-0.409304 -0.992187,-0.463021 -0.963092,-0.07971 -0.994574,-0.115091 -1.073547,-1.206596 l -0.08136,-1.12448 h 1.205839 c 1.029449,0 1.205839,0.07741 1.205839,0.529167 0,0.362076 0.176389,0.529167 0.558612,0.529167 0.502081,0 0.539848,-0.100409 0.373197,-0.992188 C 51.05637,8.8894708 50.875416,8.6614211 49.399922,7.7292805 48.533571,7.181966 48.23466,6.8243663 48.232141,6.3322185 48.230289,5.9684164 48.154957,5.2242758 48.064758,4.6785726 47.913064,3.7608232 47.833883,3.6863851 47.009338,3.6863851 H 46.117914 V 2.098885 0.51138496 h 0.926042 0.926041 V 2.098885 3.6863851 h 1.027248 1.027247 l 0.183224,1.9552714 c 0.179449,1.9149593 0.199864,1.9585991 0.990201,2.1166668 0.443838,0.088767 1.399913,0.1613953 2.124612,0.1613953 h 1.317633 L 54.539234,6.8613852 54.438306,5.8030518 h 1.13147 1.131472 v 1.0583334 1.0583334 h 3.175 3.175 v 4.2333334 4.233334 h 1.058333 1.058334 v -1.984375 c 0,-1.807987 0.04704,-1.984376 0.529167,-1.984376 0.485068,0 0.529166,0.176389 0.529166,2.116667 v 2.116667 h -1.5875 -1.5875 v 0.926042 0.926041 H 60.80229 c -2.072569,0 -2.248959,-0.0415 -2.248959,-0.529166 0,-0.349966 -0.17639,-0.529167 -0.520864,-0.529167 -0.354285,0 -0.472157,-0.126924 -0.368567,-0.396875 0.111374,-0.290233 -0.03305,-0.396875 -0.537469,-0.396875 -0.733373,0 -0.797357,-0.189658 -0.524402,-1.554427 0.151069,-0.755343 0.254,-0.826823 1.190625,-0.826823 1.019749,0 1.025261,-0.0057 1.025261,-1.058334 0,-1.026778 0.02676,-1.058333 0.897734,-1.058333 0.948298,0 1.218932,-0.327897 1.218932,-1.476848 v -0.639819 h -4.398698 -4.398698 l 0.165365,0.826823 c 0.09095,0.454753 0.165364,0.931003 0.165364,1.058334 0,0.466956 0.736309,0.21516 0.870413,-0.297657 0.07611,-0.291041 0.313238,-0.529166 0.526952,-0.529166 0.399582,0 0.719302,1.05942 0.719302,2.383464 0,0.507303 0.161338,0.772009 0.529167,0.868199 0.291041,0.07611 0.529166,0.279735 0.529166,0.452504 0,0.172768 -0.238125,0.376394 -0.529166,0.452503 -0.292873,0.07659 -0.529167,0.360896 -0.529167,0.636689 0,0.414198 -0.200967,0.498308 -1.190625,0.498308 -1.028271,0 -1.190625,-0.0748 -1.190625,-0.548567 0,-0.379484 -0.142716,-0.521521 -0.463021,-0.460821 -0.323591,0.06132 -0.487749,0.385861 -0.545139,1.077734 -0.07981,0.962172 -0.111403,0.989987 -1.12448,0.989987 -0.86597,0 -1.04236,0.08955 -1.04236,0.529167 0,0.327579 -0.17639,0.529166 -0.463021,0.529166 -0.410104,0 -0.463021,-0.302381 -0.463021,-2.645833 z m 11.377084,1.322917 c -0.08994,-0.145521 -0.282583,-0.264584 -0.428104,-0.264584 -0.145521,0 -0.191,0.119063 -0.101063,0.264584 0.08994,0.14552 0.282583,0.264583 0.428104,0.264583 0.145521,0 0.191,-0.119063 0.101063,-0.264583 z m -0.926042,-1.190625 c -0.181157,-0.218282 -0.433861,-0.396875 -0.561562,-0.396875 -0.127704,0 -0.232188,0.178593 -0.232188,0.396875 0,0.228118 0.238784,0.396875 0.561562,0.396875 0.46917,0 0.507373,-0.0653 0.232188,-0.396875 z m -5.027083,2.143308 c 0,-0.249463 0.396226,-0.401746 1.214673,-0.46684 0.95463,-0.07593 1.268158,0.0033 1.464516,0.370234 0.22474,0.419928 0.102682,0.466839 -1.214673,0.466839 -1.078566,0 -1.464516,-0.09757 -1.464516,-0.370233 z M 21.24708,15.328052 v -2.116667 h 1.058333 1.058333 v -2.116666 c 0,-1.7050928 -0.07717,-2.116667 -0.396875,-2.116667 -0.218281,0 -0.396875,-0.2298441 -0.396875,-0.5107647 0,-0.3282418 -0.212736,-0.5409779 -0.595312,-0.5953125 -0.509795,-0.072402 -0.607028,-0.2683015 -0.67687,-1.3637123 -0.06881,-1.079172 -0.151539,-1.2512699 -0.529167,-1.1007503 -0.246185,0.098128 -1.370343,0.2442805 -2.49813,0.324784 L 16.219996,5.8786661 V 4.7825256 3.6863851 h 2.116667 2.116667 V 2.6280517 1.5697183 h 1.058333 1.058333 v 1.0583334 c 0,0.7739918 0.10886,1.0583334 0.405179,1.0583334 0.222849,0 0.473712,-0.1785938 0.557475,-0.396875 0.08376,-0.2182813 0.305412,-0.396875 0.492555,-0.396875 0.187143,0 0.408793,0.1785937 0.492555,0.396875 0.100525,0.2619618 0.514886,0.396875 1.218933,0.396875 H 26.80333 V 2.6280517 1.5697183 h 1.058333 c 0.881944,0 1.058334,-0.088194 1.058334,-0.5291667 0,-0.44097219 0.176389,-0.52916664 1.058333,-0.52916664 1.128771,0 1.515031,0.61260344 0.546034,0.86600214 -0.368779,0.096437 -0.50605,0.3538352 -0.489987,0.918771 0.03384,1.1903462 -0.223724,1.390227 -1.791454,1.390227 -1.263203,0 -1.439593,0.064837 -1.439593,0.5291667 0,0.3527777 -0.17639,0.5291667 -0.529167,0.5291667 -0.352777,0 -0.529166,0.1763889 -0.529166,0.5291667 0,0.3527777 -0.176389,0.5291666 -0.529167,0.5291666 -0.415624,0 -0.529167,0.176389 -0.529167,0.8220576 0,0.6220156 0.09658,0.7849973 0.396875,0.6697623 0.241753,-0.092769 0.396875,-4.233e-4 0.396875,0.2362758 0,0.213714 -0.178594,0.3885711 -0.396875,0.3885711 -0.330729,0 -0.396875,0.5291667 -0.396875,3.1750004 0,2.728731 0.05927,3.175 0.421646,3.175 0.231904,0 0.486704,-0.248788 0.566221,-0.552862 0.123074,-0.470634 0.311107,-0.539499 1.264267,-0.46302 1.052287,0.08443 1.154057,0.03011 1.690637,-0.902347 0.314021,-0.545704 0.678545,-0.992188 0.810056,-0.992188 0.302776,0 0.432438,1.100853 0.316527,2.68737 l -0.09002,1.232162 -2.99506,0.187139 -2.995059,0.187138 -0.168054,0.895804 c -0.157336,0.838675 -0.234783,0.895804 -1.214398,0.895804 H 21.24708 Z m 5.55625,-0.547569 c 0,-0.415885 -0.142515,-0.527236 -0.59261,-0.46302 -0.879408,0.125465 -0.956701,1.010589 -0.08825,1.010589 0.512097,0 0.680859,-0.135723 0.68086,-0.547569 z M 24.4676,8.3827394 c 0.158974,-0.8827532 -0.03487,-1.5213542 -0.461795,-1.5213542 -0.263999,0 -0.377475,0.3181562 -0.377475,1.0583334 0,1.1650176 0.648425,1.5227502 0.83927,0.4630208 z m 1.012813,-4.034896 c 0,-0.2771825 -0.279282,-0.396875 -0.926041,-0.396875 -0.875562,0 -1.145068,0.2219463 -0.749653,0.6173611 0.357583,0.3575836 1.675694,0.1841479 1.675694,-0.2204861 z M 0.0804122,14.584561 c 0,-1.896147 0.05357706,-2.119219 0.53951055,-2.246293 C 1.1346683,12.203659 1.1559222,12.296232 1.0829436,14.355004 1.018833,16.163603 0.93151853,16.527143 0.54343305,16.601297 0.13384307,16.67956 0.0804122,16.446837 0.0804122,14.584561 Z M 40.561664,14.313816 c 0,-0.55783 0.05589,-1.070128 0.124203,-1.138441 0.06831,-0.06831 0.544563,-0.07513 1.058334,-0.01515 0.890365,0.103945 0.93413,0.157283 0.93413,1.138441 0,1.024562 -0.005,1.029386 -1.058334,1.029386 -1.050663,0 -1.058333,-0.0073 -1.058333,-1.014236 z m -0.566002,-2.416545 -0.624623,-0.520364 0.595312,-0.0088 c 0.569979,-0.0084 0.595313,-0.104504 0.595313,-2.2577604 0,-2.0725694 -0.0415,-2.2489584 -0.529167,-2.2489584 -0.340736,0 -0.529167,-0.176389 -0.529167,-0.4953508 0,-0.3733147 -0.260733,-0.5370439 -1.058333,-0.6645849 -0.684805,-0.1095047 -1.058333,-0.3082045 -1.058333,-0.5629829 0,-0.282984 -0.297717,-0.3937481 -1.058334,-0.3937481 -0.881943,0 -1.058333,-0.088194 -1.058333,-0.5291667 0,-0.439863 0.17639,-0.5291667 1.045186,-0.5291667 0.67273,0 1.127668,-0.1473854 1.276644,-0.4135935 0.209899,-0.3750691 0.263432,-0.3750691 0.574712,0 0.188788,0.2274763 0.566798,0.4135935 0.84002,0.4135935 0.403178,0 0.496771,-0.1993953 0.496771,-1.0583334 V 1.5697183 h 1.078567 1.078566 l -0.0756,1.0470627 c -0.04158,0.5758844 5.29e-4,1.123306 0.09383,1.2164923 0.09319,0.093186 0.105365,0.3363831 0.02706,0.5404374 -0.09438,0.245945 0.04555,0.3710078 0.415105,0.3710078 0.403651,0 0.557475,0.1661943 0.557475,0.6023044 0,0.5431208 -0.103995,0.592387 -1.058334,0.5013759 -0.93151,-0.088834 -1.058333,-0.034187 -1.058333,0.4560292 0,0.4733947 0.158787,0.5569572 1.058333,0.5569572 h 1.058334 V 7.9197186 8.978052 h 1.077732 c 0.883595,0 1.06186,0.083408 0.989619,0.4630208 -0.06951,0.3652417 -0.40885,0.4797777 -1.606902,0.5423705 l -1.518783,0.07935 v 1.177421 c 0,0.978018 -0.08465,1.177421 -0.499856,1.177421 -0.274918,0 -0.780934,-0.234163 -1.124479,-0.520364 z m 0.566002,-7.3886535 c 0,-0.7207687 -0.0287,-0.7340381 -1.5875,-0.7340381 -1.396659,0 -1.5875,0.061923 -1.5875,0.5150996 0,0.4186775 0.144597,0.4938771 0.772459,0.4017264 0.474752,-0.069679 1.00725,0.06373 1.381667,0.3461515 0.749954,0.5656927 1.020874,0.425323 1.020874,-0.5289394 z m 0.529167,-1.0868158 c 0,-0.1455208 -0.12609,-0.2645833 -0.2802,-0.2645833 -0.154109,0 -0.206613,0.1190625 -0.116675,0.2645833 0.08994,0.1455209 0.216027,0.2645834 0.280199,0.2645834 0.06417,0 0.116676,-0.1190625 0.116676,-0.2645834 z m 5.027083,8.2020833 c 0,-0.398502 0.138152,-0.541361 0.463021,-0.478797 0.254661,0.04904 0.463021,0.264502 0.463021,0.478797 0,0.214296 -0.20836,0.429755 -0.463021,0.478798 -0.324869,0.06256 -0.463021,-0.0803 -0.463021,-0.478798 z M 16.219996,9.4878183 c 0,-1.3879618 0.06309,-1.5947512 0.463021,-1.5177307 0.254662,0.049043 0.453099,0.2958984 0.440972,0.548567 -0.01213,0.2526686 -0.04189,0.9356474 -0.06615,1.5177304 -0.03103,0.744754 -0.16169,1.058334 -0.440973,1.058334 -0.309213,0 -0.396875,-0.354934 -0.396875,-1.6069007 z M 1.1387456,6.9345229 c 0,-0.9550821 -0.082494,-1.1314711 -0.52916671,-1.1314711 -0.49388891,0 -0.52916669,-0.1763889 -0.52916669,-2.6458334 V 0.51138496 h 1.5875001 c 1.411111,0 1.5875,0.0587963 1.5875,0.52916664 0,0.4409723 0.176389,0.5291667 1.0583334,0.5291667 H 5.3720791 V 3.6863851 5.8030518 H 4.3137457 c -1.0535767,0 -1.0583334,0.00463 -1.0583334,1.0305429 0,1.0090894 -0.022032,1.0326437 -1.0583333,1.1314708 L 1.1387456,8.065994 Z M 3.2554123,2.6280517 V 1.5697183 H 2.197079 1.1387456 V 2.6280517 3.6863851 H 2.197079 3.2554123 Z M 58.817915,4.7599315 c 0,-1.0380494 -0.0055,-1.0435159 -1.12448,-1.1244792 C 56.601931,3.5564792 56.566548,3.5249985 56.486837,2.5619059 56.40918,1.6235988 56.3553,1.5697183 55.49465,1.5697183 c -0.733679,0 -0.910069,-0.1025625 -0.910069,-0.5291667 0,-0.51313129 0.17639,-0.52916664 5.820834,-0.52916664 h 5.820833 V 3.1572184 c 0,2.4694445 -0.03528,2.6458334 -0.529166,2.6458334 -0.485069,0 -0.529167,-0.1763889 -0.529167,-2.1166667 V 1.5697183 h -3.175 -3.175 v 1.0583334 1.0583334 h 2.116666 2.116667 V 4.7447185 5.8030518 H 60.934581 58.817915 Z M 44.265831,4.7447185 c -0.800365,-0.422832 -1.395677,-0.7849389 -1.322917,-0.8046819 0.07276,-0.019743 0.75737,-0.055497 1.521354,-0.079453 l 1.389063,-0.043556 v 0.8607203 c 0,0.4733962 -0.02977,0.8551032 -0.06615,0.8482378 -0.03638,-0.00687 -0.72099,-0.3584356 -1.521354,-0.7812675 z M 30.976712,2.0349876 c 0.08142,-0.3113525 0.203125,-0.3971301 0.312462,-0.2202207 0.114705,0.1855985 0.40346,0.050954 0.803164,-0.3745085 0.78318,-0.83365735 1.152009,-0.83630377 1.692021,-0.012141 0.533352,0.814 0.543139,1.199934 0.03043,1.199934 -0.218282,0 -0.382776,-0.089297 -0.365543,-0.1984375 0.01722,-0.1091406 0.01722,-0.4663281 0,-0.79375 C 33.403922,0.77473642 32.902722,0.90452895 32.718614,1.8250708 32.581473,2.5107754 32.453491,2.6055216 31.702527,2.5772899 30.991266,2.550551 30.866304,2.4571829 30.976712,2.0349876 Z m 19.297873,-0.994436 c 0.103983,-0.39763168 0.360897,-0.52916664 1.033563,-0.52916664 0.718793,0 0.895183,0.10426821 0.895183,0.52916664 0,0.4388586 -0.17639,0.5291667 -1.033563,0.5291667 -0.903301,0 -1.016122,-0.066692 -0.895183,-0.5291667 z"
         id="path5983" /><path
         style="fill:#a3a3a3;fill-opacity:1;stroke-width:1"
         d="m 47.969997,64.83821 c 0,-1.000455 0.07442,-2.19108 0.165365,-2.645833 0.151069,-0.755343 0.254,-0.826823 1.190625,-0.826823 0.99191,0 1.025261,0.0296 1.025261,0.910069 0,0.86065 0.05388,0.91453 0.992187,0.992187 0.967478,0.08007 0.992188,0.108477 0.992188,1.140453 0,1.031975 -0.02471,1.060378 -0.992188,1.140452 -0.777282,0.06433 -0.992187,0.193272 -0.992187,0.595312 0,0.43184 -0.188741,0.513194 -1.190625,0.513194 h -1.190626 z m -4.233333,-4.134114 c 0,-0.220486 0.235185,-0.396875 0.529167,-0.396875 0.293981,0 0.529166,0.176389 0.529166,0.396875 0,0.220485 -0.235185,0.396875 -0.529166,0.396875 -0.293982,0 -0.529167,-0.17639 -0.529167,-0.396875 z m -3.175,-1.421392 c 0,-0.990677 0.03496,-1.030108 1.058333,-1.193753 0.684805,-0.109503 1.058334,-0.308205 1.058334,-0.562983 0,-0.282982 0.297717,-0.393747 1.058333,-0.393747 h 1.058333 v 1.091406 c 0,1.071562 -0.01445,1.08852 -0.79375,0.932656 -1.227217,-0.245443 -2.38125,0.07192 -2.38125,0.654844 0,0.319704 -0.188148,0.496094 -0.529166,0.496094 -0.438061,0 -0.529167,-0.17639 -0.529167,-1.024517 z M 51.409581,58.88032 c 0,-0.05719 0.178594,-0.172516 0.396875,-0.256281 0.218281,-0.08376 0.396875,-0.03697 0.396875,0.103984 0,0.140954 -0.178594,0.256281 -0.396875,0.256281 -0.218281,0 -0.396875,-0.04679 -0.396875,-0.103984 z M 37.651247,55.941596 c 0,-0.881944 0.0441,-0.926042 0.926042,-0.926042 0.881943,0 0.926041,0.0441 0.926041,0.926042 0,0.881943 -0.0441,0.926041 -0.926041,0.926041 -0.881944,0 -0.926042,-0.0441 -0.926042,-0.926041 z M 25.744997,49.98847 c 0,-0.352777 -0.176389,-0.529166 -0.529167,-0.529166 -0.304942,0 -0.529167,-0.17639 -0.529167,-0.416275 0,-0.669742 0.770191,-0.321963 1.361348,0.614712 0.465671,0.737844 0.482681,0.859896 0.119843,0.859896 -0.246468,0 -0.422857,-0.220734 -0.422857,-0.529167 z m 4.233333,-4.7625 v -4.233333 h 1.058333 1.058334 V 39.934303 38.87597 h 1.066477 1.066477 l -0.07429,3.241146 -0.07429,3.241146 -0.992188,0.08212 -0.992187,0.08212 v 1.968404 1.968403 H 31.036663 29.97833 Z m -10.752373,2.711979 c 0.02879,-0.362804 -0.206633,-0.480629 -1.087732,-0.54438 -0.909073,-0.06577 -1.124479,-0.179811 -1.124479,-0.595312 0,-0.371827 0.182915,-0.513954 0.661459,-0.513954 0.485069,0 0.661458,-0.14111 0.661458,-0.529166 0,-0.293981 0.176389,-0.529167 0.396875,-0.529167 0.220486,0 0.396875,0.235186 0.396875,0.529167 0,0.388056 0.176389,0.529166 0.661458,0.529166 0.411575,0 0.661459,-0.149931 0.661459,-0.396875 0,-0.218281 0.178593,-0.396875 0.396875,-0.396875 0.304671,0 0.396875,0.33808 0.396875,1.455209 v 1.455208 h -1.028936 c -0.817548,0 -1.021385,-0.09512 -0.992187,-0.463021 z m 39.591958,-0.06615 c 0,-0.352777 0.176389,-0.529167 0.529166,-0.529167 0.352777,0 0.529167,0.17639 0.529167,0.529167 0,0.352776 -0.17639,0.529166 -0.529167,0.529166 -0.352777,0 -0.529166,-0.17639 -0.529166,-0.529166 z m -2.116667,-6.879167 c 0,-0.764353 0.110244,-1.058334 0.396875,-1.058334 0.286631,0 0.396875,0.293981 0.396875,1.058334 0,0.764352 -0.110244,1.058333 -0.396875,1.058333 -0.286631,0 -0.396875,-0.293981 -0.396875,-1.058333 z M 17.873642,40.805912 C 17.394256,40.713578 17.27833,40.514503 17.27833,39.78361 v -0.90764 h 1.984375 1.984375 v 1.058333 1.058334 l -1.389063,-0.03603 c -0.763984,-0.01982 -1.656953,-0.08763 -1.984375,-0.150694 z M 6.4752683,38.125286 C 6.0893706,37.828426 5.5696458,37.69337 5.0862058,37.764323 c -0.6353353,0.09325 -0.7724601,0.0188 -0.7724601,-0.419365 0,-0.474736 0.1728412,-0.532738 1.5875001,-0.532738 h 1.5875 v 0.899583 c 0,1.022094 -0.1452766,1.081365 -1.0134775,0.413483 z M 56.877638,37.641247 c -0.395415,-0.395415 -0.12591,-0.617361 0.749652,-0.617361 0.646758,0 0.926041,0.119693 0.926041,0.396875 0,0.404636 -1.318112,0.57807 -1.675693,0.220486 z M 25.480413,35.70097 v -1.058334 h 3.307292 3.307292 v 1.058334 1.058333 H 28.787705 25.480413 Z M 0.09718316,34.893991 C 0.1129416,34.036288 0.12940239,34.019826 0.36983204,34.621343 0.5392669,35.04524 0.53360116,35.353614 0.35306114,35.534155 0.1659182,35.721298 0.08567183,35.520525 0.09718316,34.893991 Z M 63.140103,35.286309 c -0.22052,-0.574664 0.339312,-1.115089 0.740026,-0.714375 0.338678,0.338678 0.128866,1.129036 -0.299714,1.129036 -0.154654,0 -0.352796,-0.186598 -0.440312,-0.414661 z m 2.477117,0.216223 c -0.0611,-0.10914 0.04557,-0.555625 0.237035,-0.992187 l 0.348125,-0.79375 0.01193,0.992187 c 0.01071,0.891717 -0.306308,1.313167 -0.597096,0.79375 z M 14.897079,31.48285 v -3.190214 h 1.028888 c 0.962926,0 1.039832,0.05834 1.199595,0.909947 0.14785,0.788109 0.284643,0.920959 1.021633,0.992188 0.796675,0.077 0.856113,0.153932 0.932285,1.206719 0.08133,1.124064 0.08102,1.12448 -0.843924,1.12448 -0.878228,0 -0.929459,0.05046 -1.007401,0.992187 -0.07971,0.963091 -0.115091,0.994574 -1.206596,1.073547 l -1.12448,0.08136 z m -4.233333,-3.851672 c 0,-0.220486 0.235185,-0.396875 0.529167,-0.396875 0.293981,0 0.529166,0.176389 0.529166,0.396875 0,0.220485 -0.235185,0.396875 -0.529166,0.396875 -0.293982,0 -0.529167,-0.17639 -0.529167,-0.396875 z M 7.4887458,26.209785 c 0,-0.990676 0.034959,-1.030107 1.0583334,-1.193751 0.6848041,-0.109505 1.0583334,-0.308205 1.0583334,-0.562983 0,-0.282984 0.2977166,-0.393748 1.0583334,-0.393748 h 1.058333 v 1.091406 c 0,1.071562 -0.01443,1.08852 -0.79375,0.932656 -1.2272171,-0.245443 -2.3812498,0.07192 -2.3812498,0.654844 0,0.319704 -0.1881481,0.496094 -0.5291667,0.496094 -0.4380611,0 -0.5291667,-0.17639 -0.5291667,-1.024518 z M 4.3137457,22.868678 c 0,-0.903994 0.025199,-0.926042 1.0583334,-0.926042 1.033135,0 1.0583334,0.02205 1.0583334,0.926042 0,0.903993 -0.025199,0.926041 -1.0583334,0.926041 -1.033135,0 -1.0583334,-0.02205 -1.0583334,-0.926041 z M 58.950206,17.180136 c -0.08994,-0.145521 -0.04446,-0.264584 0.101063,-0.264584 0.145521,0 0.338167,0.119063 0.428104,0.264584 0.08994,0.14552 0.04446,0.264583 -0.101063,0.264583 -0.145521,0 -0.338167,-0.119063 -0.428104,-0.264583 z m -1.190625,-1.190625 c 0,-0.218282 0.104484,-0.396875 0.232188,-0.396875 0.127701,0 0.380405,0.178593 0.561562,0.396875 0.275185,0.331576 0.236982,0.396875 -0.232188,0.396875 -0.322778,0 -0.561562,-0.168757 -0.561562,-0.396875 z m 5.291667,-3.836459 V 7.9197186 h 1.058333 1.058334 V 6.8613852 c 0,-0.8819444 0.08819,-1.0583334 0.529167,-1.0583334 0.500943,0 0.529166,0.176389 0.529166,3.3072918 0,3.1309024 -0.02822,3.3072914 -0.529166,3.3072914 -0.48213,0 -0.529167,0.176389 -0.529167,1.984376 v 1.984375 h -1.058334 -1.058333 z m -37.521386,2.711979 c 0.04854,-0.254661 0.354923,-0.501067 0.680858,-0.547568 0.450095,-0.06422 0.59261,0.04714 0.59261,0.46302 0,0.411846 -0.168762,0.547569 -0.680859,0.547569 -0.505666,0 -0.658151,-0.11914 -0.592609,-0.463021 z m 26.861389,-0.06615 c -0.10995,-0.420454 -0.360894,-0.529167 -1.221483,-0.529167 -0.906714,0 -1.083104,-0.08618 -1.083104,-0.529167 0,-0.341854 0.17639,-0.529167 0.498309,-0.529167 0.275791,0 0.560099,-0.236295 0.636688,-0.529166 0.07611,-0.291042 0.339267,-0.529167 0.584795,-0.529167 0.245528,0 0.508685,0.238125 0.584795,0.529167 0.160086,0.612164 1.134997,0.725797 1.134997,0.132291 0,-0.218281 0.178593,-0.396875 0.396875,-0.396875 0.304673,0 0.396875,0.338079 0.396875,1.455209 v 1.455208 h -0.895184 c -0.672666,0 -0.929579,-0.131535 -1.033563,-0.529166 z M 0.0804122,9.1297439 c 0,-3.1671099 0.02577491,-3.3266921 0.53731027,-3.3266921 0.51480133,0 0.53419813,0.1356429 0.46302083,3.2379244 C 1.0156129,11.879705 0.94936915,12.289845 0.54343305,12.367669 0.12230458,12.448405 0.0804122,12.155449 0.0804122,9.1297439 Z M 23.62833,7.9197186 c 0,-0.7401772 0.113476,-1.0583334 0.377475,-1.0583334 0.426927,0 0.620769,0.638601 0.461795,1.5213542 -0.190845,1.0597294 -0.83927,0.7019968 -0.83927,-0.4630208 z M 50.94656,7.7329934 C 50.465503,7.6403376 50.351248,7.4419967 50.351248,6.6995621 V 5.7807927 l 2.05052,0.077275 2.050521,0.077275 0.08212,0.9921876 0.08212,0.9921875 L 53.0792,7.8836871 C 52.233668,7.8638698 51.273982,7.7960576 50.94656,7.7329934 Z M 39.54079,5.0375569 c -0.374417,-0.2824215 -0.906915,-0.41583 -1.381667,-0.3461515 -0.627862,0.092151 -0.772459,0.016951 -0.772459,-0.4017264 0,-0.453177 0.190841,-0.5150996 1.5875,-0.5150996 1.558803,0 1.5875,0.013269 1.5875,0.7340381 0,0.9542624 -0.27092,1.0946321 -1.020874,0.5289394 z M 23.804719,4.5683295 C 23.409304,4.1729147 23.67881,3.9509684 24.554372,3.9509684 c 0.646759,0 0.926041,0.1196925 0.926041,0.396875 0,0.404634 -1.318111,0.5780697 -1.675694,0.2204861 z M 58.817915,2.6280517 V 1.5697183 h 3.175 3.175 v 1.0583334 1.0583334 h -3.175 -3.175 z M 30.087315,2.265849 c -0.198586,-0.5175049 0.07198,-0.960714 0.586491,-0.960714 0.259757,0 0.370065,0.2011364 0.315113,0.5745883 -0.102663,0.6977111 -0.686146,0.9475965 -0.901604,0.3861257 z m 2.540899,-0.081418 c 0.0046,-0.5417646 0.431478,-1.32776598 0.617152,-1.1362171 0.06644,0.068546 0.162213,0.4193505 0.212822,0.7795655 0.06448,0.4589155 -0.04656,0.682492 -0.371004,0.7470045 -0.306302,0.060906 -0.46165,-0.071217 -0.45897,-0.3903529 z M 47.969997,1.0557646 c 0,-0.47009483 0.165119,-0.54437964 1.210025,-0.54437964 1.009475,0 1.195469,0.0767414 1.122198,0.46302085 -0.06407,0.33775539 -0.391427,0.48503159 -1.210027,0.54437969 -0.982623,0.07124 -1.122196,0.013651 -1.122196,-0.4630209 z"
         id="path5981" /></g></g></svg>
