<?xml version="1.0" encoding="UTF-8" standalone="no"?>
<svg
   width="250"
   height="250"
   viewBox="0 0 66.145833 66.145833"
   version="1.1"
   id="svg8"
   inkscape:version="1.2.2 (b0a8486541, 2022-12-01)"
   sodipodi:docname="door-type-magical-barrier-right-v2.svg"
   inkscape:export-filename="png/door-type-magical-barrier-right-v2.png"
   inkscape:export-xdpi="96"
   inkscape:export-ydpi="96"
   xmlns:inkscape="http://www.inkscape.org/namespaces/inkscape"
   xmlns:sodipodi="http://sodipodi.sourceforge.net/DTD/sodipodi-0.dtd"
   xmlns="http://www.w3.org/2000/svg"
   xmlns:svg="http://www.w3.org/2000/svg"
   xmlns:rdf="http://www.w3.org/1999/02/22-rdf-syntax-ns#"
   xmlns:cc="http://creativecommons.org/ns#"
   xmlns:dc="http://purl.org/dc/elements/1.1/">
  <defs
     id="defs2" />
  <sodipodi:namedview
     id="base"
     pagecolor="#ffffff"
     bordercolor="#666666"
     borderopacity="1.0"
     inkscape:pageopacity="0"
     inkscape:pageshadow="2"
     inkscape:zoom="1.979899"
     inkscape:cx="7.576144"
     inkscape:cy="163.13963"
     inkscape:document-units="px"
     inkscape:current-layer="layer1"
     inkscape:document-rotation="0"
     showgrid="false"
     inkscape:window-width="1920"
     inkscape:window-height="1027"
     inkscape:window-x="0"
     inkscape:window-y="0"
     inkscape:window-maximized="1"
     units="px"
     fit-margin-top="0"
     fit-margin-left="0"
     fit-margin-right="0"
     fit-margin-bottom="0"
     showborder="true"
     inkscape:showpageshadow="true"
     showguides="true"
     inkscape:guide-bbox="true"
     inkscape:lockguides="false"
     inkscape:pagecheckerboard="true"
     inkscape:deskcolor="#d1d1d1">
    <sodipodi:guide
       position="9.2411051,60.308786"
       orientation="1,0"
       id="guide938"
       inkscape:locked="false" />
    <sodipodi:guide
       position="56.873751,59.111806"
       orientation="1,0"
       id="guide940"
       inkscape:locked="false" />
    <sodipodi:guide
       position="5.934793,56.881421"
       orientation="0,-1"
       id="guide942"
       inkscape:locked="false" />
    <sodipodi:guide
       position="52.614665,9.2823182"
       orientation="0,-1"
       id="guide944"
       inkscape:locked="false" />
    <sodipodi:guide
       position="38.470041,33.091492"
       orientation="0,-1"
       id="guide875"
       inkscape:locked="false" />
    <sodipodi:guide
       position="32.932681,39.748097"
       orientation="1,0"
       id="guide879"
       inkscape:locked="false" />
    <sodipodi:guide
       position="-3.6081386,14.696449"
       orientation="0,-1"
       id="guide887"
       inkscape:locked="false" />
  </sodipodi:namedview>
  <metadata
     id="metadata5">
    <rdf:RDF>
      <cc:Work
         rdf:about="">
        <dc:format>image/svg+xml</dc:format>
        <dc:type
           rdf:resource="http://purl.org/dc/dcmitype/StillImage" />
      </cc:Work>
    </rdf:RDF>
  </metadata>
  <g
     inkscape:label="Layer 1"
     inkscape:groupmode="layer"
     id="layer1"
     transform="translate(-0.08041364,-0.51138639)">
    <path
       id="path16484"
       style="font-weight:bold;font-size:58.9933px;line-height:1.25;font-family:'Source Code Pro';-inkscape-font-specification:'Source Code Pro Bold';text-align:center;text-anchor:middle;fill:#ffff00;fill-opacity:1;stroke:#000000;stroke-width:6.35;stroke-linejoin:round;stroke-dasharray:none;paint-order:markers stroke fill"
       d="M 19.47413,13.517311 V 30.196914 H 12.820789 V 33.5657 h 6.653341 v 18.415412 h 14.040486 c 8.318055,0 14.748456,-3.480331 14.748456,-11.326439 0,-3.212192 -1.1326,-5.546212 -3.32486,-7.088973 h 7.53752 c -0.20345,0.76821 -0.54522,1.506262 -1.03508,2.171959 -0.18362,0.25201 0.0703,0.589375 0.36329,0.482658 l 11.03912,-4.058666 c 0.27758,-0.100592 0.27758,-0.49317 0,-0.593762 l -11.03912,-4.058668 c -0.03,-0.01124 -0.0615,-0.01789 -0.0935,-0.01963 -0.008,-5.3e-4 -0.0162,-5.3e-4 -0.0243,-5.3e-4 -0.25477,0.0051 -0.39892,0.294262 -0.2496,0.500746 0.48904,0.681376 0.83198,1.431303 1.03663,2.207101 h -9.824207 c 2.624167,-1.692913 3.844207,-4.494082 3.844207,-7.122564 0,-7.374163 -6.135301,-9.557039 -14.099396,-9.557039 z m 8.672339,6.784598 h 3.893301 c 4.070538,0 5.958293,1.120536 5.958293,3.952214 0,2.949665 -1.769685,4.719609 -6.017202,4.719609 h -3.834392 z m 0,14.925186 h 4.66018 c 4.778457,0 6.961333,1.415902 6.961333,4.778521 0,3.480604 -2.24187,5.191413 -6.961333,5.191413 h -4.66018 z" />
  </g>
</svg>
