<?xml version="1.0" encoding="UTF-8" standalone="no"?>
<svg
   width="250"
   height="250"
   viewBox="0 0 66.145833 66.145833"
   version="1.1"
   id="svg8"
   inkscape:version="1.2.2 (b0a8486541, 2022-12-01)"
   sodipodi:docname="door-type-secret-right.svg"
   inkscape:export-filename="door-type-secret-right.png"
   inkscape:export-xdpi="125.61"
   inkscape:export-ydpi="125.61"
   xmlns:inkscape="http://www.inkscape.org/namespaces/inkscape"
   xmlns:sodipodi="http://sodipodi.sourceforge.net/DTD/sodipodi-0.dtd"
   xmlns="http://www.w3.org/2000/svg"
   xmlns:svg="http://www.w3.org/2000/svg"
   xmlns:rdf="http://www.w3.org/1999/02/22-rdf-syntax-ns#"
   xmlns:cc="http://creativecommons.org/ns#"
   xmlns:dc="http://purl.org/dc/elements/1.1/">
  <defs
     id="defs2" />
  <sodipodi:namedview
     id="base"
     pagecolor="#ffffff"
     bordercolor="#666666"
     borderopacity="1.0"
     inkscape:pageopacity="0"
     inkscape:pageshadow="2"
     inkscape:zoom="1.979899"
     inkscape:cx="10.101525"
     inkscape:cy="163.13963"
     inkscape:document-units="px"
     inkscape:current-layer="layer1"
     inkscape:document-rotation="0"
     showgrid="false"
     inkscape:window-width="1920"
     inkscape:window-height="1027"
     inkscape:window-x="0"
     inkscape:window-y="0"
     inkscape:window-maximized="1"
     units="px"
     fit-margin-top="0"
     fit-margin-left="0"
     fit-margin-right="0"
     fit-margin-bottom="0"
     showborder="true"
     inkscape:showpageshadow="true"
     showguides="true"
     inkscape:guide-bbox="true"
     inkscape:lockguides="false"
     inkscape:pagecheckerboard="true"
     inkscape:deskcolor="#d1d1d1">
    <sodipodi:guide
       position="9.2411051,60.308786"
       orientation="1,0"
       id="guide938"
       inkscape:locked="false" />
    <sodipodi:guide
       position="56.873751,59.111806"
       orientation="1,0"
       id="guide940"
       inkscape:locked="false" />
    <sodipodi:guide
       position="5.934793,56.881421"
       orientation="0,-1"
       id="guide942"
       inkscape:locked="false" />
    <sodipodi:guide
       position="52.614665,9.2823182"
       orientation="0,-1"
       id="guide944"
       inkscape:locked="false" />
    <sodipodi:guide
       position="38.470041,33.091492"
       orientation="0,-1"
       id="guide875"
       inkscape:locked="false" />
    <sodipodi:guide
       position="32.932681,39.748097"
       orientation="1,0"
       id="guide879"
       inkscape:locked="false" />
    <sodipodi:guide
       position="-3.6081386,14.696449"
       orientation="0,-1"
       id="guide887"
       inkscape:locked="false" />
  </sodipodi:namedview>
  <metadata
     id="metadata5">
    <rdf:RDF>
      <cc:Work
         rdf:about="">
        <dc:format>image/svg+xml</dc:format>
        <dc:type
           rdf:resource="http://purl.org/dc/dcmitype/StillImage" />
      </cc:Work>
    </rdf:RDF>
  </metadata>
  <g
     inkscape:label="Layer 1"
     inkscape:groupmode="layer"
     id="layer1"
     transform="translate(-0.08041364,-0.51138639)">
    <g
       aria-label="S"
       id="text1469"
       style="font-weight:bold;font-size:58.9933px;line-height:1.25;font-family:'Noto Sans';-inkscape-font-specification:'Noto Sans Bold';fill:#000000;stroke-width:1.05833;fill-opacity:1"
       inkscape:transform-center-x="5.0064505"
       inkscape:transform-center-y="3.5629031">
      <path
         id="path18561"
         style="font-family:'Source Code Pro';-inkscape-font-specification:'Source Code Pro Bold';text-align:center;text-anchor:middle;stroke:#000000;stroke-width:3.99999;fill:#000000;fill-opacity:1"
         d="M 127.1582 46.482422 C 95.719881 46.482422 73.869141 65.655915 73.869141 89.736328 C 73.869141 98.738447 76.533754 106.1652 80.839844 112.19727 L 50.275391 112.19727 L 50.275391 124.92969 L 95.244141 124.92969 C 98.312731 126.70604 101.55338 128.20229 104.86133 129.42578 L 123.58984 137.45117 C 137.41379 143.24831 146.10937 145.92517 146.10938 156.18164 C 146.10938 163.53955 139.64457 168.89063 125.59766 168.89062 C 111.55075 168.89062 97.948812 162.64719 87.023438 153.72852 L 68.072266 176.24805 C 83.679942 190.07199 103.74611 197.20703 123.36719 197.20703 C 159.48781 197.20703 179.77734 176.24839 179.77734 152.16797 C 179.77734 140.53516 175.90233 131.70141 169.05273 124.92969 L 200.15234 124.92969 C 199.38341 127.83316 198.09167 130.62265 196.24023 133.13867 C 195.54623 134.09115 196.50597 135.36623 197.61328 134.96289 L 239.33594 119.62305 C 240.38508 119.24286 240.38508 117.7591 239.33594 117.37891 L 197.61328 102.03906 C 197.4999 101.99654 197.38067 101.9715 197.25977 101.96484 C 197.22915 101.963 197.19858 101.96238 197.16797 101.96289 C 196.20508 101.98217 195.66027 103.07506 196.22461 103.85547 C 198.07294 106.43075 199.36909 109.26512 200.14258 112.19727 L 147.38672 112.19727 L 130.94727 105.12109 C 116.90036 99.992857 107.08984 96.648828 107.08984 87.953125 C 107.08984 79.480384 114.44768 74.798828 125.37305 74.798828 C 139.64293 74.798828 148.78486 79.034673 158.81836 86.392578 L 175.54102 65.65625 C 162.38597 53.170108 144.77258 46.482422 127.1582 46.482422 z "
         transform="matrix(0.26458333,0,0,0.26458333,0.08041364,0.51138639)" />
    </g>
  </g>
</svg>
