<?xml version="1.0" encoding="UTF-8" standalone="no"?>
<svg
   width="250"
   height="250"
   viewBox="0 0 66.145833 66.145833"
   version="1.1"
   id="svg8"
   inkscape:version="1.2.2 (b0a8486541, 2022-12-01)"
   sodipodi:docname="door-one-way.svg"
   xml:space="preserve"
   inkscape:export-filename="door-one-way.png"
   inkscape:export-xdpi="96"
   inkscape:export-ydpi="96"
   xmlns:inkscape="http://www.inkscape.org/namespaces/inkscape"
   xmlns:sodipodi="http://sodipodi.sourceforge.net/DTD/sodipodi-0.dtd"
   xmlns="http://www.w3.org/2000/svg"
   xmlns:svg="http://www.w3.org/2000/svg"
   xmlns:rdf="http://www.w3.org/1999/02/22-rdf-syntax-ns#"
   xmlns:cc="http://creativecommons.org/ns#"
   xmlns:dc="http://purl.org/dc/elements/1.1/"><defs
     id="defs2"><rect
       x="9.3215187"
       y="9.7757984"
       width="47.632646"
       height="47.599103"
       id="rect1569" /><clipPath
       clipPathUnits="userSpaceOnUse"
       id="clipPath4425"><g
         id="g4429"><path
           d="M 0.89466664,38.430692 H 816.89465 V 1094.4307 H 0.89466664 Z"
           id="path4427"
           style="stroke-width:1.33333" /></g></clipPath><clipPath
       clipPathUnits="userSpaceOnUse"
       id="clipPath4419"><g
         id="g4423"><path
           d="M 0.89466664,38.430692 H 816.89465 V 1094.4307 H 0.89466664 Z"
           id="path4421"
           style="stroke-width:1.33333" /></g></clipPath><clipPath
       clipPathUnits="userSpaceOnUse"
       id="clipPath4437"><g
         id="g4441"><path
           d="M 0.89466664,38.430692 H 816.89465 V 1094.4307 H 0.89466664 Z"
           id="path4439"
           style="stroke-width:1.33333" /></g></clipPath><clipPath
       clipPathUnits="userSpaceOnUse"
       id="clipPath4413"><g
         id="g4417"><path
           d="M 0.89466664,38.430692 H 816.89465 V 1094.4307 H 0.89466664 Z"
           id="path4415"
           style="stroke-width:1.33333" /></g></clipPath><clipPath
       clipPathUnits="userSpaceOnUse"
       id="clipPath4407"><g
         id="g4411"><path
           d="M 0.89466664,38.430692 H 816.89465 V 1094.4307 H 0.89466664 Z"
           id="path4409"
           style="stroke-width:1.33333" /></g></clipPath><clipPath
       clipPathUnits="userSpaceOnUse"
       id="clipPath4401"><g
         id="g4405"><path
           d="M 0.89466664,38.430692 H 816.89465 V 1094.4307 H 0.89466664 Z"
           id="path4403"
           style="stroke-width:1.33333" /></g></clipPath><clipPath
       clipPathUnits="userSpaceOnUse"
       id="clipPath4395"><g
         id="g4399"><path
           d="M 0.89466664,38.430692 H 816.89465 V 1094.4307 H 0.89466664 Z"
           id="path4397"
           style="stroke-width:1.33333" /></g></clipPath><clipPath
       clipPathUnits="userSpaceOnUse"
       id="clipPath4389"><g
         id="g4393"><path
           d="M 0.89466664,38.430692 H 816.89465 V 1094.4307 H 0.89466664 Z"
           id="path4391"
           style="stroke-width:1.33333" /></g></clipPath><clipPath
       clipPathUnits="userSpaceOnUse"
       id="clipPath4383"><g
         id="g4387"><path
           d="M 0.89466664,38.430692 H 816.89465 V 1094.4307 H 0.89466664 Z"
           id="path4385"
           style="stroke-width:1.33333" /></g></clipPath><clipPath
       clipPathUnits="userSpaceOnUse"
       id="clipPath4377"><g
         id="g4381"><path
           d="M 0.89466664,38.430692 H 816.89465 V 1094.4307 H 0.89466664 Z"
           id="path4379"
           style="stroke-width:1.33333" /></g></clipPath><clipPath
       clipPathUnits="userSpaceOnUse"
       id="clipPath4371"><g
         id="g4375"><path
           d="M 0.89466664,38.430692 H 816.89465 V 1094.4307 H 0.89466664 Z"
           id="path4373"
           style="stroke-width:1.33333" /></g></clipPath><clipPath
       clipPathUnits="userSpaceOnUse"
       id="clipPath4341"><g
         id="g4345"><path
           d="M 0.89466664,38.430692 H 816.89465 V 1094.4307 H 0.89466664 Z"
           id="path4343"
           style="stroke-width:1.33333" /></g></clipPath><clipPath
       clipPathUnits="userSpaceOnUse"
       id="clipPath4335"><g
         id="g4339"><path
           d="M 0.89466664,38.430692 H 816.89465 V 1094.4307 H 0.89466664 Z"
           id="path4337"
           style="stroke-width:1.33333" /></g></clipPath><clipPath
       clipPathUnits="userSpaceOnUse"
       id="clipPath4329"><g
         id="g4333"><path
           d="M 0.89466664,38.430692 H 816.89465 V 1094.4307 H 0.89466664 Z"
           id="path4331"
           style="stroke-width:1.33333" /></g></clipPath><clipPath
       clipPathUnits="userSpaceOnUse"
       id="clipPath4323"><g
         id="g4327"><path
           d="M 0.89466664,38.430692 H 816.89465 V 1094.4307 H 0.89466664 Z"
           id="path4325"
           style="stroke-width:1.33333" /></g></clipPath><clipPath
       clipPathUnits="userSpaceOnUse"
       id="clipPath4317"><g
         id="g4321"><path
           d="M 0.89466664,38.430692 H 816.89465 V 1094.4307 H 0.89466664 Z"
           id="path4319"
           style="stroke-width:1.33333" /></g></clipPath><clipPath
       clipPathUnits="userSpaceOnUse"
       id="clipPath4311"><g
         id="g4315"><path
           d="M 0.89466664,38.430692 H 816.89465 V 1094.4307 H 0.89466664 Z"
           id="path4313"
           style="stroke-width:1.33333" /></g></clipPath><clipPath
       clipPathUnits="userSpaceOnUse"
       id="clipPath4305"><g
         id="g4309"><path
           d="M 0.89466664,38.430692 H 816.89465 V 1094.4307 H 0.89466664 Z"
           id="path4307"
           style="stroke-width:1.33333" /></g></clipPath><clipPath
       clipPathUnits="userSpaceOnUse"
       id="clipPath6117"><g
         id="g6121"><path
           d="M 0.89466664,38.430692 H 816.89465 V 1094.4307 H 0.89466664 Z"
           id="path6119"
           style="stroke-width:1.33333" /></g></clipPath><clipPath
       clipPathUnits="userSpaceOnUse"
       id="clipPath6111"><g
         id="g6115"><path
           d="M 0.89466664,38.430692 H 816.89465 V 1094.4307 H 0.89466664 Z"
           id="path6113"
           style="stroke-width:1.33333" /></g></clipPath><clipPath
       clipPathUnits="userSpaceOnUse"
       id="clipPath6105"><g
         id="g6109"><path
           d="M 0.89466664,38.430692 H 816.89465 V 1094.4307 H 0.89466664 Z"
           id="path6107"
           style="stroke-width:1.33333" /></g></clipPath><clipPath
       clipPathUnits="userSpaceOnUse"
       id="clipPath6099"><g
         id="g6103"><path
           d="M 0.89466664,38.430692 H 816.89465 V 1094.4307 H 0.89466664 Z"
           id="path6101"
           style="stroke-width:1.33333" /></g></clipPath><clipPath
       clipPathUnits="userSpaceOnUse"
       id="clipPath6093"><g
         id="g6097"><path
           d="M 0.89466664,38.430692 H 816.89465 V 1094.4307 H 0.89466664 Z"
           id="path6095"
           style="stroke-width:1.33333" /></g></clipPath><clipPath
       clipPathUnits="userSpaceOnUse"
       id="clipPath6087"><g
         id="g6091"><path
           d="M 0.89466664,38.430692 H 816.89465 V 1094.4307 H 0.89466664 Z"
           id="path6089"
           style="stroke-width:1.33333" /></g></clipPath><clipPath
       clipPathUnits="userSpaceOnUse"
       id="clipPath6081"><g
         id="g6085"><path
           d="M 0.89466664,38.430692 H 816.89465 V 1094.4307 H 0.89466664 Z"
           id="path6083"
           style="stroke-width:1.33333" /></g></clipPath><clipPath
       clipPathUnits="userSpaceOnUse"
       id="clipPath6075"><g
         id="g6079"><path
           d="M 0.89466664,38.430692 H 816.89465 V 1094.4307 H 0.89466664 Z"
           id="path6077"
           style="stroke-width:1.33333" /></g></clipPath><clipPath
       clipPathUnits="userSpaceOnUse"
       id="clipPath4605"><g
         id="g4609"><path
           d="M 0.89466664,38.430692 H 816.89465 V 1094.4307 H 0.89466664 Z"
           id="path4607"
           style="stroke-width:1.33333" /></g></clipPath></defs><sodipodi:namedview
     id="base"
     pagecolor="#ffffff"
     bordercolor="#666666"
     borderopacity="1.0"
     inkscape:pageopacity="0.0"
     inkscape:pageshadow="2"
     inkscape:zoom="3.6203868"
     inkscape:cx="118.77184"
     inkscape:cy="108.27572"
     inkscape:document-units="px"
     inkscape:current-layer="layer1"
     inkscape:document-rotation="0"
     showgrid="false"
     inkscape:window-width="1920"
     inkscape:window-height="1027"
     inkscape:window-x="0"
     inkscape:window-y="0"
     inkscape:window-maximized="1"
     units="px"
     fit-margin-top="0"
     fit-margin-left="0"
     fit-margin-right="0"
     fit-margin-bottom="0"
     showborder="true"
     inkscape:showpageshadow="true"
     showguides="true"
     inkscape:guide-bbox="true"
     inkscape:lockguides="false"
     inkscape:pagecheckerboard="true"
     inkscape:deskcolor="#d1d1d1"><sodipodi:guide
       position="9.2411051,60.308786"
       orientation="1,0"
       id="guide938"
       inkscape:locked="false" /><sodipodi:guide
       position="56.873751,59.111806"
       orientation="1,0"
       id="guide940"
       inkscape:locked="false" /><sodipodi:guide
       position="5.934793,56.881421"
       orientation="0,-1"
       id="guide942"
       inkscape:locked="false" /><sodipodi:guide
       position="52.614665,9.2823182"
       orientation="0,-1"
       id="guide944"
       inkscape:locked="false" /><sodipodi:guide
       position="7.1619879,36.737505"
       orientation="0,-1"
       id="guide11239"
       inkscape:locked="false" /><sodipodi:guide
       position="4.8964611,29.408327"
       orientation="0,-1"
       id="guide11241"
       inkscape:locked="false" /><sodipodi:guide
       position="6.8756044,34.934076"
       orientation="0,-1"
       id="guide11258"
       inkscape:locked="false" /><sodipodi:guide
       position="4.5836594,31.240655"
       orientation="0,-1"
       id="guide11260"
       inkscape:locked="false" /></sodipodi:namedview><metadata
     id="metadata5"><rdf:RDF><cc:Work
         rdf:about=""><dc:format>image/svg+xml</dc:format><dc:type
           rdf:resource="http://purl.org/dc/dcmitype/StillImage" /></cc:Work></rdf:RDF></metadata><g
     inkscape:label="Layer 1"
     inkscape:groupmode="layer"
     id="layer1"
     transform="translate(-0.08041364,-0.51138639)"><path
       style="fill:#000000;stroke-width:1;stroke:none"
       d="m 71.842949,17.45574 v -3.664589 h 33.072921 33.07291 v 3.664589 3.664589 H 104.91587 71.842949 Z"
       id="path2059" /><path
       id="path1625-7"
       style="fill:#000000;stroke-width:1"
       d="M 9.2674497 29.919927 L 9.2478127 31.722918 L 4.6641132 31.722918 L 0.08041364 31.722918 L 0.08041364 33.569833 L 0.08041364 35.416749 L 4.6641132 35.416749 L 9.2478127 35.416749 L 9.2808856 38.41915 L 9.3139585 41.421551 L 9.6105812 41.869068 C 9.7736601 42.115332 10.075595 42.399961 10.281858 42.501588 C 10.626611 42.671448 12.464361 42.686873 33.045843 42.689173 L 55.434141 42.691757 L 55.927134 42.439576 C 56.881427 41.951955 56.876117 41.972559 56.913637 38.486329 L 56.94671 35.416749 L 61.586737 35.416749 L 66.226247 35.416749 L 66.226247 33.569833 L 66.226247 31.722918 L 61.581569 31.722918 L 56.936891 31.722918 L 56.936891 29.919927 L 53.24306 29.919927 L 53.24306 33.569833 L 53.24306 39.110064 L 33.09752 39.110064 L 12.951463 39.110064 L 12.951463 33.569833 L 12.951463 29.919927 L 9.2674497 29.919927 z " /><path
       id="path1625"
       style="fill:#000000;stroke:none;stroke-width:1"
       d="m 60.247327,-18.011832 v 1.846399 h 4.583699 4.5837 l 0.03307,3.0024 0.03307,3.002401 0.296623,0.4480349 c 0.163079,0.246264 0.465014,0.530891 0.671277,0.632519 0.344753,0.16986 2.182503,0.184769 22.763985,0.187069 l 22.388294,0.00258 0.493,-0.251665 c 0.95429,-0.487621 0.94898,-0.467017 0.9865,-3.9532469 l 0.0331,-3.070096 h 4.64003 4.63951 v -1.846399 h -12.98319 v 5.539713 H 93.264433 73.118376 v -5.539713 z" /><path
       style="color:#000000;fill:#000000;fill-opacity:1;stroke:#000000;stroke-width:1.05833;stroke-linecap:round;stroke-miterlimit:4;stroke-dasharray:none;stroke-opacity:1"
       d="m 29.942132,22.218646 c 0.004,0.0949 0.21662,0.148588 0.36861,0.09297 0.50158,-0.182167 1.05362,-0.309913 1.6247,-0.386148 v 11.182897 h 2.47984 V 21.924511 c 0.5655,0.07578 1.1088,0.203097 1.59883,0.385571 0.18551,0.0684 0.43386,-0.02619 0.3553,-0.135326 l -2.98768,-4.112111 c -0.074,-0.103399 -0.36303,-0.103399 -0.43708,0 l -2.98768,4.112111 c -0.008,0.01117 -0.0132,0.02292 -0.0145,0.03484 -3.5e-4,0.003 -4.8e-4,0.0059 -3.9e-4,0.0089 z"
       id="path10744" /><rect
       style="fill:#000000;fill-rule:evenodd;stroke:none;stroke-width:3.70416;stroke-linecap:round;stroke-linejoin:round;stroke-dasharray:none;paint-order:stroke markers fill"
       id="rect11262"
       width="66.145836"
       height="3.7178161"
       x="0.080413282"
       y="29.919714" /><rect
       style="fill:#ffffff;fill-rule:evenodd;stroke:none;stroke-width:2.64583;stroke-linejoin:round;paint-order:stroke markers fill"
       id="rect1473"
       width="40.291595"
       height="5.5402308"
       x="12.951463"
       y="33.569832" /></g></svg>
