<?xml version="1.0" encoding="UTF-8" standalone="no"?>
<svg
   width="250"
   height="250"
   viewBox="0 0 66.145833 66.145833"
   version="1.1"
   id="svg8"
   inkscape:version="1.2.2 (b0a8486541, 2022-12-01)"
   sodipodi:docname="door-type-secret-right-v2.svg"
   inkscape:export-filename="png/door-type-secret-right-v2.png"
   inkscape:export-xdpi="96"
   inkscape:export-ydpi="96"
   xmlns:inkscape="http://www.inkscape.org/namespaces/inkscape"
   xmlns:sodipodi="http://sodipodi.sourceforge.net/DTD/sodipodi-0.dtd"
   xmlns="http://www.w3.org/2000/svg"
   xmlns:svg="http://www.w3.org/2000/svg"
   xmlns:rdf="http://www.w3.org/1999/02/22-rdf-syntax-ns#"
   xmlns:cc="http://creativecommons.org/ns#"
   xmlns:dc="http://purl.org/dc/elements/1.1/">
  <defs
     id="defs2" />
  <sodipodi:namedview
     id="base"
     pagecolor="#ffffff"
     bordercolor="#666666"
     borderopacity="1.0"
     inkscape:pageopacity="0"
     inkscape:pageshadow="2"
     inkscape:zoom="1.979899"
     inkscape:cx="10.101525"
     inkscape:cy="163.13963"
     inkscape:document-units="px"
     inkscape:current-layer="layer1"
     inkscape:document-rotation="0"
     showgrid="false"
     inkscape:window-width="1920"
     inkscape:window-height="1027"
     inkscape:window-x="0"
     inkscape:window-y="0"
     inkscape:window-maximized="1"
     units="px"
     fit-margin-top="0"
     fit-margin-left="0"
     fit-margin-right="0"
     fit-margin-bottom="0"
     showborder="true"
     inkscape:showpageshadow="true"
     showguides="true"
     inkscape:guide-bbox="true"
     inkscape:lockguides="false"
     inkscape:pagecheckerboard="true"
     inkscape:deskcolor="#d1d1d1">
    <sodipodi:guide
       position="9.2411051,60.308786"
       orientation="1,0"
       id="guide938"
       inkscape:locked="false" />
    <sodipodi:guide
       position="56.873751,59.111806"
       orientation="1,0"
       id="guide940"
       inkscape:locked="false" />
    <sodipodi:guide
       position="5.934793,56.881421"
       orientation="0,-1"
       id="guide942"
       inkscape:locked="false" />
    <sodipodi:guide
       position="52.614665,9.2823182"
       orientation="0,-1"
       id="guide944"
       inkscape:locked="false" />
    <sodipodi:guide
       position="38.470041,33.091492"
       orientation="0,-1"
       id="guide875"
       inkscape:locked="false" />
    <sodipodi:guide
       position="32.932681,39.748097"
       orientation="1,0"
       id="guide879"
       inkscape:locked="false" />
    <sodipodi:guide
       position="-3.6081386,14.696449"
       orientation="0,-1"
       id="guide887"
       inkscape:locked="false" />
  </sodipodi:namedview>
  <metadata
     id="metadata5">
    <rdf:RDF>
      <cc:Work
         rdf:about="">
        <dc:format>image/svg+xml</dc:format>
        <dc:type
           rdf:resource="http://purl.org/dc/dcmitype/StillImage" />
      </cc:Work>
    </rdf:RDF>
  </metadata>
  <g
     inkscape:label="Layer 1"
     inkscape:groupmode="layer"
     id="layer1"
     transform="translate(-0.08041364,-0.51138639)">
    <path
       id="path18561"
       style="font-weight:bold;font-size:58.9933px;line-height:1.25;font-family:'Source Code Pro';-inkscape-font-specification:'Source Code Pro Bold';text-align:center;text-anchor:middle;fill:#ffff00;fill-opacity:1;stroke:#000000;stroke-width:6.35;stroke-linejoin:round;stroke-dasharray:none;paint-order:markers stroke fill"
       d="m 33.162698,12.80986 c -8.318055,0 -14.099397,5.072987 -14.099397,11.444263 0,2.38181 0.705012,4.346806 1.844332,5.942791 H 12.820788 V 33.5657 H 24.71877 c 0.811897,0.469992 1.669319,0.865875 2.544548,1.18959 l 4.955251,2.123385 c 3.657587,1.533826 5.958292,2.242079 5.958295,4.95577 0,1.94678 -1.710481,3.362587 -5.427059,3.362584 -3.716578,0 -7.315425,-1.651907 -10.206096,-4.011639 l -5.014165,5.958292 c 4.129531,3.657584 9.438705,5.545397 14.630116,5.545397 9.556914,0 14.925185,-5.545307 14.925185,-11.916584 0,-3.077848 -1.025263,-5.415111 -2.837553,-7.206795 h 8.228438 c -0.203446,0.76821 -0.545219,1.506262 -1.035079,2.171959 -0.183621,0.25201 0.07031,0.589375 0.363286,0.482658 l 11.039121,-4.058666 c 0.277585,-0.100592 0.277585,-0.49317 0,-0.593762 L 51.803937,27.509221 c -0.03,-0.01124 -0.06154,-0.01789 -0.09353,-0.01963 -0.0081,-5.3e-4 -0.01619,-5.3e-4 -0.02429,-5.3e-4 -0.254765,0.0051 -0.398913,0.294262 -0.249598,0.500746 0.489038,0.681376 0.831977,1.431303 1.03663,2.207101 H 38.514827 l -4.349605,-1.87224 c -3.716578,-1.356846 -6.312278,-2.241621 -6.312278,-4.542359 0,-2.241746 1.946762,-3.480408 4.837433,-3.480408 3.775572,0 6.194374,1.120734 8.849071,3.067513 l 4.424537,-5.486478 C 42.483378,14.579311 37.823169,12.80986 33.162698,12.80986 Z" />
  </g>
</svg>
