<?xml version="1.0" encoding="UTF-8" standalone="no"?>
<svg
   width="250"
   height="250"
   viewBox="0 0 66.145833 66.145833"
   version="1.1"
   id="svg8"
   inkscape:version="1.2.2 (b0a8486541, 2022-12-01)"
   sodipodi:docname="door-type-magical-barrier-right.svg"
   inkscape:export-filename="door-type-magical-barrier-right.png"
   inkscape:export-xdpi="125.61"
   inkscape:export-ydpi="125.61"
   xmlns:inkscape="http://www.inkscape.org/namespaces/inkscape"
   xmlns:sodipodi="http://sodipodi.sourceforge.net/DTD/sodipodi-0.dtd"
   xmlns="http://www.w3.org/2000/svg"
   xmlns:svg="http://www.w3.org/2000/svg"
   xmlns:rdf="http://www.w3.org/1999/02/22-rdf-syntax-ns#"
   xmlns:cc="http://creativecommons.org/ns#"
   xmlns:dc="http://purl.org/dc/elements/1.1/">
  <defs
     id="defs2" />
  <sodipodi:namedview
     id="base"
     pagecolor="#ffffff"
     bordercolor="#666666"
     borderopacity="1.0"
     inkscape:pageopacity="0"
     inkscape:pageshadow="2"
     inkscape:zoom="1.979899"
     inkscape:cx="7.576144"
     inkscape:cy="163.13963"
     inkscape:document-units="px"
     inkscape:current-layer="layer1"
     inkscape:document-rotation="0"
     showgrid="false"
     inkscape:window-width="1920"
     inkscape:window-height="1027"
     inkscape:window-x="0"
     inkscape:window-y="0"
     inkscape:window-maximized="1"
     units="px"
     fit-margin-top="0"
     fit-margin-left="0"
     fit-margin-right="0"
     fit-margin-bottom="0"
     showborder="true"
     inkscape:showpageshadow="true"
     showguides="true"
     inkscape:guide-bbox="true"
     inkscape:lockguides="false"
     inkscape:pagecheckerboard="true"
     inkscape:deskcolor="#d1d1d1">
    <sodipodi:guide
       position="9.2411051,60.308786"
       orientation="1,0"
       id="guide938"
       inkscape:locked="false" />
    <sodipodi:guide
       position="56.873751,59.111806"
       orientation="1,0"
       id="guide940"
       inkscape:locked="false" />
    <sodipodi:guide
       position="5.934793,56.881421"
       orientation="0,-1"
       id="guide942"
       inkscape:locked="false" />
    <sodipodi:guide
       position="52.614665,9.2823182"
       orientation="0,-1"
       id="guide944"
       inkscape:locked="false" />
    <sodipodi:guide
       position="38.470041,33.091492"
       orientation="0,-1"
       id="guide875"
       inkscape:locked="false" />
    <sodipodi:guide
       position="32.932681,39.748097"
       orientation="1,0"
       id="guide879"
       inkscape:locked="false" />
    <sodipodi:guide
       position="-3.6081386,14.696449"
       orientation="0,-1"
       id="guide887"
       inkscape:locked="false" />
  </sodipodi:namedview>
  <metadata
     id="metadata5">
    <rdf:RDF>
      <cc:Work
         rdf:about="">
        <dc:format>image/svg+xml</dc:format>
        <dc:type
           rdf:resource="http://purl.org/dc/dcmitype/StillImage" />
      </cc:Work>
    </rdf:RDF>
  </metadata>
  <g
     inkscape:label="Layer 1"
     inkscape:groupmode="layer"
     id="layer1"
     transform="translate(-0.08041364,-0.51138639)">
    <g
       aria-label="B"
       id="text1469"
       style="font-weight:bold;font-size:58.9933px;line-height:1.25;font-family:'Noto Sans';-inkscape-font-specification:'Noto Sans Bold';fill:#000000;stroke-width:1.05833;fill-opacity:1"
       inkscape:transform-center-x="5.0064505"
       inkscape:transform-center-y="3.5629031">
      <path
         id="path16484"
         style="font-family:'Source Code Pro';-inkscape-font-specification:'Source Code Pro Bold';text-align:center;text-anchor:middle;stroke:#000000;stroke-width:3.99999;fill:#000000;fill-opacity:1"
         d="M 73.421875 49.15625 L 73.421875 112.19727 L 48.275391 112.19727 L 48.275391 124.92969 L 73.421875 124.92969 L 73.421875 194.53125 L 126.48828 194.53125 C 157.9266 194.53125 182.23047 181.37724 182.23047 151.72266 C 182.23047 139.58209 177.9498 130.7606 169.66406 124.92969 L 198.15234 124.92969 C 197.38341 127.83316 196.09167 130.62265 194.24023 133.13867 C 193.54623 134.09115 194.50597 135.36623 195.61328 134.96289 L 237.33594 119.62305 C 238.38508 119.24286 238.38508 117.7591 237.33594 117.37891 L 195.61328 102.03906 C 195.4999 101.99654 195.38067 101.9715 195.25977 101.96484 C 195.22915 101.963 195.19858 101.96238 195.16797 101.96289 C 194.20508 101.98217 193.66027 103.07506 194.22461 103.85547 C 196.07294 106.43075 197.36909 109.26512 198.14258 112.19727 L 161.01172 112.19727 C 170.92985 105.79886 175.54102 95.211763 175.54102 85.277344 C 175.54102 57.406491 152.35247 49.15625 122.25195 49.15625 L 73.421875 49.15625 z M 106.19922 74.798828 L 120.91406 74.798828 C 136.29877 74.798828 143.43359 79.033923 143.43359 89.736328 C 143.43359 100.88467 136.74502 107.57422 120.69141 107.57422 L 106.19922 107.57422 L 106.19922 74.798828 z M 106.19922 131.20898 L 123.8125 131.20898 C 141.87281 131.20898 150.12305 136.56042 150.12305 149.26953 C 150.12305 162.42457 141.64984 168.89062 123.8125 168.89062 L 106.19922 168.89062 L 106.19922 131.20898 z "
         transform="matrix(0.26458333,0,0,0.26458333,0.08041364,0.51138639)" />
    </g>
  </g>
</svg>
