<?xml version="1.0" encoding="UTF-8" standalone="no"?>
<svg
   width="250"
   height="250"
   viewBox="0 0 66.145833 66.145833"
   version="1.1"
   id="svg8"
   inkscape:version="1.2.2 (b0a8486541, 2022-12-01)"
   sodipodi:docname="fountain.svg"
   inkscape:export-filename="png/fountain.png"
   inkscape:export-xdpi="96"
   inkscape:export-ydpi="96"
   xmlns:inkscape="http://www.inkscape.org/namespaces/inkscape"
   xmlns:sodipodi="http://sodipodi.sourceforge.net/DTD/sodipodi-0.dtd"
   xmlns="http://www.w3.org/2000/svg"
   xmlns:svg="http://www.w3.org/2000/svg"
   xmlns:rdf="http://www.w3.org/1999/02/22-rdf-syntax-ns#"
   xmlns:cc="http://creativecommons.org/ns#"
   xmlns:dc="http://purl.org/dc/elements/1.1/">
  <defs
     id="defs2" />
  <sodipodi:namedview
     id="base"
     pagecolor="#ffffff"
     bordercolor="#666666"
     borderopacity="1.0"
     inkscape:pageopacity="0.0"
     inkscape:pageshadow="2"
     inkscape:zoom="1.4"
     inkscape:cx="102.85714"
     inkscape:cy="109.28571"
     inkscape:document-units="px"
     inkscape:current-layer="layer1"
     inkscape:document-rotation="0"
     showgrid="false"
     inkscape:window-width="1920"
     inkscape:window-height="1027"
     inkscape:window-x="0"
     inkscape:window-y="0"
     inkscape:window-maximized="1"
     units="px"
     fit-margin-top="0"
     fit-margin-left="0"
     fit-margin-right="0"
     fit-margin-bottom="0"
     showborder="true"
     inkscape:showpageshadow="true"
     showguides="true"
     inkscape:guide-bbox="true"
     inkscape:lockguides="false"
     inkscape:pagecheckerboard="true"
     inkscape:deskcolor="#d1d1d1">
    <sodipodi:guide
       position="9.2411051,60.308786"
       orientation="1,0"
       id="guide938"
       inkscape:locked="false" />
    <sodipodi:guide
       position="56.873751,59.111806"
       orientation="1,0"
       id="guide940"
       inkscape:locked="false" />
    <sodipodi:guide
       position="5.934793,56.881421"
       orientation="0,-1"
       id="guide942"
       inkscape:locked="false" />
    <sodipodi:guide
       position="52.614665,9.2823182"
       orientation="0,-1"
       id="guide944"
       inkscape:locked="false" />
  </sodipodi:namedview>
  <metadata
     id="metadata5">
    <rdf:RDF>
      <cc:Work
         rdf:about="">
        <dc:format>image/svg+xml</dc:format>
        <dc:type
           rdf:resource="http://purl.org/dc/dcmitype/StillImage" />
      </cc:Work>
    </rdf:RDF>
  </metadata>
  <g
     inkscape:label="Layer 1"
     inkscape:groupmode="layer"
     id="layer1"
     transform="translate(-0.08041364,-0.51138639)">
    <ellipse
       style="fill:#ffffff;fill-rule:evenodd;stroke-width:6.35;stroke-linecap:round;stroke-linejoin:round;paint-order:markers stroke fill"
       id="path4698"
       cx="33.13784"
       cy="33.575352"
       rx="23.816322"
       ry="23.799551" />
    <path
       style="color:#000000;fill:#000000;fill-opacity:1;stroke:#000000;stroke-width:0.795073;stroke-linecap:round;stroke-miterlimit:4;stroke-dasharray:none;stroke-opacity:1"
       d="m 20.799564,13.959365 c -4.716912,3.105713 -6.717976,9.14791 -5.112522,10.932798 1.605454,1.784888 7.864788,1.279286 12.581702,-1.826428 4.716914,-3.105711 7.54442,-8.902106 5.938966,-10.686994 -1.605454,-1.784887 -8.691232,-1.525088 -13.408146,1.580624 z m 1.301361,1.683026 c 3.792501,-2.49706 7.887755,-3.352562 9.177974,-1.918141 1.290219,1.434421 -0.72514,4.602273 -4.517641,7.099334 -3.7925,2.49706 -7.888387,3.352977 -9.178607,1.918556 -1.290218,-1.43442 0.725775,-4.602689 4.518274,-7.099749 z"
       id="path8758-3"
       sodipodi:nodetypes="ssssssssss" />
    <path
       style="color:#000000;fill:#000000;stroke-linecap:round;stroke-width:1.05833333;stroke-miterlimit:4;stroke-dasharray:none;stroke:#000000;stroke-opacity:1;fill-opacity:1"
       d="m 33.154297,7.1386719 c -14.582286,0 -26.4628907,11.8702751 -26.4628908,26.4453121 10e-8,14.575038 11.8806048,26.445313 26.4628908,26.445313 14.582285,0 26.460937,-11.870275 26.460937,-26.445313 0,-14.575037 -11.878652,-26.4453121 -26.460937,-26.4453121 z m 0,5.2910161 c 11.724471,0 21.169922,9.441102 21.169922,21.154296 0,11.713195 -9.445451,21.154297 -21.169922,21.154297 -11.724472,0 -21.171875,-9.441102 -21.171875,-21.154297 0,-11.713194 9.447403,-21.154296 21.171875,-21.154296 z"
       id="path8758" />
  </g>
</svg>
