<?xml version="1.0" encoding="UTF-8" standalone="no"?>
<svg
   width="250"
   height="250"
   viewBox="0 0 66.145833 66.145833"
   version="1.1"
   id="svg8"
   inkscape:version="1.2.2 (b0a8486541, 2022-12-01)"
   sodipodi:docname="gate.svg"
   xml:space="preserve"
   inkscape:export-filename="water-v2.png"
   inkscape:export-xdpi="96"
   inkscape:export-ydpi="96"
   xmlns:inkscape="http://www.inkscape.org/namespaces/inkscape"
   xmlns:sodipodi="http://sodipodi.sourceforge.net/DTD/sodipodi-0.dtd"
   xmlns="http://www.w3.org/2000/svg"
   xmlns:svg="http://www.w3.org/2000/svg"
   xmlns:rdf="http://www.w3.org/1999/02/22-rdf-syntax-ns#"
   xmlns:cc="http://creativecommons.org/ns#"
   xmlns:dc="http://purl.org/dc/elements/1.1/"><defs
     id="defs2"><rect
       x="9.3215187"
       y="9.7757984"
       width="47.632646"
       height="47.599103"
       id="rect1569" /><clipPath
       clipPathUnits="userSpaceOnUse"
       id="clipPath4425"><g
         id="g4429"><path
           d="M 0.89466664,38.430692 H 816.89465 V 1094.4307 H 0.89466664 Z"
           id="path4427"
           style="stroke-width:1.33333" /></g></clipPath><clipPath
       clipPathUnits="userSpaceOnUse"
       id="clipPath4419"><g
         id="g4423"><path
           d="M 0.89466664,38.430692 H 816.89465 V 1094.4307 H 0.89466664 Z"
           id="path4421"
           style="stroke-width:1.33333" /></g></clipPath><clipPath
       clipPathUnits="userSpaceOnUse"
       id="clipPath4437"><g
         id="g4441"><path
           d="M 0.89466664,38.430692 H 816.89465 V 1094.4307 H 0.89466664 Z"
           id="path4439"
           style="stroke-width:1.33333" /></g></clipPath><clipPath
       clipPathUnits="userSpaceOnUse"
       id="clipPath4413"><g
         id="g4417"><path
           d="M 0.89466664,38.430692 H 816.89465 V 1094.4307 H 0.89466664 Z"
           id="path4415"
           style="stroke-width:1.33333" /></g></clipPath><clipPath
       clipPathUnits="userSpaceOnUse"
       id="clipPath4407"><g
         id="g4411"><path
           d="M 0.89466664,38.430692 H 816.89465 V 1094.4307 H 0.89466664 Z"
           id="path4409"
           style="stroke-width:1.33333" /></g></clipPath><clipPath
       clipPathUnits="userSpaceOnUse"
       id="clipPath4401"><g
         id="g4405"><path
           d="M 0.89466664,38.430692 H 816.89465 V 1094.4307 H 0.89466664 Z"
           id="path4403"
           style="stroke-width:1.33333" /></g></clipPath><clipPath
       clipPathUnits="userSpaceOnUse"
       id="clipPath4395"><g
         id="g4399"><path
           d="M 0.89466664,38.430692 H 816.89465 V 1094.4307 H 0.89466664 Z"
           id="path4397"
           style="stroke-width:1.33333" /></g></clipPath><clipPath
       clipPathUnits="userSpaceOnUse"
       id="clipPath4389"><g
         id="g4393"><path
           d="M 0.89466664,38.430692 H 816.89465 V 1094.4307 H 0.89466664 Z"
           id="path4391"
           style="stroke-width:1.33333" /></g></clipPath><clipPath
       clipPathUnits="userSpaceOnUse"
       id="clipPath4383"><g
         id="g4387"><path
           d="M 0.89466664,38.430692 H 816.89465 V 1094.4307 H 0.89466664 Z"
           id="path4385"
           style="stroke-width:1.33333" /></g></clipPath><clipPath
       clipPathUnits="userSpaceOnUse"
       id="clipPath4377"><g
         id="g4381"><path
           d="M 0.89466664,38.430692 H 816.89465 V 1094.4307 H 0.89466664 Z"
           id="path4379"
           style="stroke-width:1.33333" /></g></clipPath><clipPath
       clipPathUnits="userSpaceOnUse"
       id="clipPath4371"><g
         id="g4375"><path
           d="M 0.89466664,38.430692 H 816.89465 V 1094.4307 H 0.89466664 Z"
           id="path4373"
           style="stroke-width:1.33333" /></g></clipPath><clipPath
       clipPathUnits="userSpaceOnUse"
       id="clipPath4341"><g
         id="g4345"><path
           d="M 0.89466664,38.430692 H 816.89465 V 1094.4307 H 0.89466664 Z"
           id="path4343"
           style="stroke-width:1.33333" /></g></clipPath><clipPath
       clipPathUnits="userSpaceOnUse"
       id="clipPath4335"><g
         id="g4339"><path
           d="M 0.89466664,38.430692 H 816.89465 V 1094.4307 H 0.89466664 Z"
           id="path4337"
           style="stroke-width:1.33333" /></g></clipPath><clipPath
       clipPathUnits="userSpaceOnUse"
       id="clipPath4329"><g
         id="g4333"><path
           d="M 0.89466664,38.430692 H 816.89465 V 1094.4307 H 0.89466664 Z"
           id="path4331"
           style="stroke-width:1.33333" /></g></clipPath><clipPath
       clipPathUnits="userSpaceOnUse"
       id="clipPath4323"><g
         id="g4327"><path
           d="M 0.89466664,38.430692 H 816.89465 V 1094.4307 H 0.89466664 Z"
           id="path4325"
           style="stroke-width:1.33333" /></g></clipPath><clipPath
       clipPathUnits="userSpaceOnUse"
       id="clipPath4317"><g
         id="g4321"><path
           d="M 0.89466664,38.430692 H 816.89465 V 1094.4307 H 0.89466664 Z"
           id="path4319"
           style="stroke-width:1.33333" /></g></clipPath><clipPath
       clipPathUnits="userSpaceOnUse"
       id="clipPath4311"><g
         id="g4315"><path
           d="M 0.89466664,38.430692 H 816.89465 V 1094.4307 H 0.89466664 Z"
           id="path4313"
           style="stroke-width:1.33333" /></g></clipPath><clipPath
       clipPathUnits="userSpaceOnUse"
       id="clipPath4305"><g
         id="g4309"><path
           d="M 0.89466664,38.430692 H 816.89465 V 1094.4307 H 0.89466664 Z"
           id="path4307"
           style="stroke-width:1.33333" /></g></clipPath><clipPath
       clipPathUnits="userSpaceOnUse"
       id="clipPath6117"><g
         id="g6121"><path
           d="M 0.89466664,38.430692 H 816.89465 V 1094.4307 H 0.89466664 Z"
           id="path6119"
           style="stroke-width:1.33333" /></g></clipPath><clipPath
       clipPathUnits="userSpaceOnUse"
       id="clipPath6111"><g
         id="g6115"><path
           d="M 0.89466664,38.430692 H 816.89465 V 1094.4307 H 0.89466664 Z"
           id="path6113"
           style="stroke-width:1.33333" /></g></clipPath><clipPath
       clipPathUnits="userSpaceOnUse"
       id="clipPath6105"><g
         id="g6109"><path
           d="M 0.89466664,38.430692 H 816.89465 V 1094.4307 H 0.89466664 Z"
           id="path6107"
           style="stroke-width:1.33333" /></g></clipPath><clipPath
       clipPathUnits="userSpaceOnUse"
       id="clipPath6099"><g
         id="g6103"><path
           d="M 0.89466664,38.430692 H 816.89465 V 1094.4307 H 0.89466664 Z"
           id="path6101"
           style="stroke-width:1.33333" /></g></clipPath><clipPath
       clipPathUnits="userSpaceOnUse"
       id="clipPath6093"><g
         id="g6097"><path
           d="M 0.89466664,38.430692 H 816.89465 V 1094.4307 H 0.89466664 Z"
           id="path6095"
           style="stroke-width:1.33333" /></g></clipPath><clipPath
       clipPathUnits="userSpaceOnUse"
       id="clipPath6087"><g
         id="g6091"><path
           d="M 0.89466664,38.430692 H 816.89465 V 1094.4307 H 0.89466664 Z"
           id="path6089"
           style="stroke-width:1.33333" /></g></clipPath><clipPath
       clipPathUnits="userSpaceOnUse"
       id="clipPath6081"><g
         id="g6085"><path
           d="M 0.89466664,38.430692 H 816.89465 V 1094.4307 H 0.89466664 Z"
           id="path6083"
           style="stroke-width:1.33333" /></g></clipPath><clipPath
       clipPathUnits="userSpaceOnUse"
       id="clipPath6075"><g
         id="g6079"><path
           d="M 0.89466664,38.430692 H 816.89465 V 1094.4307 H 0.89466664 Z"
           id="path6077"
           style="stroke-width:1.33333" /></g></clipPath><clipPath
       clipPathUnits="userSpaceOnUse"
       id="clipPath4605"><g
         id="g4609"><path
           d="M 0.89466664,38.430692 H 816.89465 V 1094.4307 H 0.89466664 Z"
           id="path4607"
           style="stroke-width:1.33333" /></g></clipPath></defs><sodipodi:namedview
     id="base"
     pagecolor="#ffffff"
     bordercolor="#666666"
     borderopacity="1.0"
     inkscape:pageopacity="0.0"
     inkscape:pageshadow="2"
     inkscape:zoom="1.8101934"
     inkscape:cx="123.19126"
     inkscape:cy="103.85631"
     inkscape:document-units="px"
     inkscape:current-layer="layer1"
     inkscape:document-rotation="0"
     showgrid="false"
     inkscape:window-width="1920"
     inkscape:window-height="1027"
     inkscape:window-x="0"
     inkscape:window-y="0"
     inkscape:window-maximized="1"
     units="px"
     fit-margin-top="0"
     fit-margin-left="0"
     fit-margin-right="0"
     fit-margin-bottom="0"
     showborder="true"
     inkscape:showpageshadow="true"
     showguides="true"
     inkscape:guide-bbox="true"
     inkscape:lockguides="false"
     inkscape:pagecheckerboard="true"
     inkscape:deskcolor="#d1d1d1"><sodipodi:guide
       position="9.2411051,60.308786"
       orientation="1,0"
       id="guide938"
       inkscape:locked="false" /><sodipodi:guide
       position="56.873751,59.111806"
       orientation="1,0"
       id="guide940"
       inkscape:locked="false" /><sodipodi:guide
       position="5.934793,56.881421"
       orientation="0,-1"
       id="guide942"
       inkscape:locked="false" /><sodipodi:guide
       position="52.614665,9.2823182"
       orientation="0,-1"
       id="guide944"
       inkscape:locked="false" /></sodipodi:namedview><metadata
     id="metadata5"><rdf:RDF><cc:Work
         rdf:about=""><dc:format>image/svg+xml</dc:format><dc:type
           rdf:resource="http://purl.org/dc/dcmitype/StillImage" /></cc:Work></rdf:RDF></metadata><g
     inkscape:label="Layer 1"
     inkscape:groupmode="layer"
     id="layer1"
     transform="translate(-0.08041364,-0.51138639)"><path
       style="fill:#000000;stroke-width:0.0800799"
       d="m 6.1664044,23.374116 h 5.1651536 5.165153 v 1.881878 1.881877 H 13.213435 9.9301596 v 6.606592 6.606591 h 3.2832754 3.283276 v 1.881878 1.881877 H 11.331558 6.1664044 Z M 49.729869,42.232932 v -1.881878 h 3.283276 3.283276 v -6.606591 -6.606592 h -3.283276 -3.283276 v -1.881877 -1.881878 h 5.165153 5.165154 V 44.114809 H 54.895022 49.729869 Z M 14.569136,36.237561 c -1.531525,-0.412944 -2.385094,-2.04865 -1.835539,-3.517467 0.669428,-1.789208 3.007714,-2.30788 4.35167,-0.965275 1.044641,1.04359 1.044145,2.824116 -0.0011,3.797174 -0.430351,0.400647 -0.674711,0.537862 -1.202823,0.675417 -0.542794,0.141381 -0.817661,0.143507 -1.31225,0.01015 z m 8.814446,-0.01398 c -0.833479,-0.230394 -1.518915,-0.855976 -1.812692,-1.654407 -0.184968,-0.502708 -0.166164,-1.369218 0.0415,-1.912161 0.218615,-0.571588 0.765602,-1.145136 1.355939,-1.421781 0.374236,-0.175375 0.569358,-0.213362 1.095937,-0.213362 1.087554,0 1.905864,0.501906 2.376296,1.457488 0.450528,0.915152 0.380552,1.872451 -0.198268,2.712374 -0.617426,0.895944 -1.802679,1.32376 -2.858708,1.031849 z m 8.92173,0.03265 c -0.501773,-0.112883 -1.155297,-0.546271 -1.493239,-0.990249 -0.927218,-1.218149 -0.611328,-3.041547 0.666694,-3.848326 1.95029,-1.231164 4.471816,0.434847 4.062183,2.683947 -0.194642,1.068687 -0.919736,1.854358 -1.961906,2.125808 -0.508373,0.132415 -0.785388,0.138683 -1.273732,0.02882 z m 8.782444,-0.03163 c -1.978429,-0.553579 -2.627799,-2.996992 -1.182688,-4.450152 1.409711,-1.417561 3.837364,-0.79319 4.421858,1.137264 0.593361,1.959737 -1.26875,3.864226 -3.23917,3.312888 z m 8.915214,0.0363 c -0.509338,-0.121856 -1.158629,-0.55506 -1.491201,-0.994924 -0.751363,-0.993763 -0.707553,-2.434807 0.102055,-3.356899 1.0119,-1.152491 2.828154,-1.215574 3.886106,-0.134974 1.089872,1.113204 1.035093,2.831861 -0.123459,3.873499 -0.614089,0.552119 -1.582877,0.802448 -2.373501,0.613298 z"
       id="path3221"
       sodipodi:nodetypes="cccccccccccccccccccccccccccccccccsscsccsssssssssssssssssssssssss" /></g></svg>
