<?xml version="1.0" encoding="UTF-8" standalone="no"?>
<svg
   width="250"
   height="250"
   viewBox="0 0 66.145833 66.145833"
   version="1.1"
   id="svg8"
   inkscape:version="1.2.2 (b0a8486541, 2022-12-01)"
   sodipodi:docname="pit-trap-round-covered-v2.svg"
   inkscape:export-filename="png/pit-trap-round-covered-v2.png"
   inkscape:export-xdpi="96"
   inkscape:export-ydpi="96"
   xmlns:inkscape="http://www.inkscape.org/namespaces/inkscape"
   xmlns:sodipodi="http://sodipodi.sourceforge.net/DTD/sodipodi-0.dtd"
   xmlns="http://www.w3.org/2000/svg"
   xmlns:svg="http://www.w3.org/2000/svg"
   xmlns:rdf="http://www.w3.org/1999/02/22-rdf-syntax-ns#"
   xmlns:cc="http://creativecommons.org/ns#"
   xmlns:dc="http://purl.org/dc/elements/1.1/">
  <defs
     id="defs2" />
  <sodipodi:namedview
     id="base"
     pagecolor="#ffffff"
     bordercolor="#666666"
     borderopacity="1.0"
     inkscape:pageopacity="0.0"
     inkscape:pageshadow="2"
     inkscape:zoom="2.8"
     inkscape:cx="152.85714"
     inkscape:cy="123.92857"
     inkscape:document-units="px"
     inkscape:current-layer="layer1"
     inkscape:document-rotation="0"
     showgrid="false"
     inkscape:window-width="1920"
     inkscape:window-height="1027"
     inkscape:window-x="0"
     inkscape:window-y="0"
     inkscape:window-maximized="1"
     units="px"
     fit-margin-top="0"
     fit-margin-left="0"
     fit-margin-right="0"
     fit-margin-bottom="0"
     showborder="true"
     inkscape:showpageshadow="true"
     showguides="true"
     inkscape:guide-bbox="true"
     inkscape:lockguides="false"
     inkscape:pagecheckerboard="true"
     inkscape:deskcolor="#d1d1d1">
    <sodipodi:guide
       position="9.2411051,60.308786"
       orientation="1,0"
       id="guide938"
       inkscape:locked="false" />
    <sodipodi:guide
       position="56.873751,59.111806"
       orientation="1,0"
       id="guide940"
       inkscape:locked="false" />
    <sodipodi:guide
       position="5.934793,56.881421"
       orientation="0,-1"
       id="guide942"
       inkscape:locked="false" />
    <sodipodi:guide
       position="52.614665,9.2823182"
       orientation="0,-1"
       id="guide944"
       inkscape:locked="false" />
  </sodipodi:namedview>
  <metadata
     id="metadata5">
    <rdf:RDF>
      <cc:Work
         rdf:about="">
        <dc:format>image/svg+xml</dc:format>
        <dc:type
           rdf:resource="http://purl.org/dc/dcmitype/StillImage" />
      </cc:Work>
    </rdf:RDF>
  </metadata>
  <g
     inkscape:label="Layer 1"
     inkscape:groupmode="layer"
     id="layer1"
     transform="translate(-0.08041364,-0.51138639)">
    <ellipse
       style="fill:#ffff00;fill-rule:evenodd;stroke:none;stroke-width:0.264583;stroke-linecap:square;stroke-linejoin:round;paint-order:fill markers stroke"
       id="path6143"
       cx="33.13784"
       cy="33.575352"
       rx="23.816322"
       ry="23.799551" />
    <path
       id="path8758"
       style="color:#000000;fill:#000000;stroke-width:4.00000003;stroke-linecap:round;stroke:#000000;stroke-opacity:1;stroke-miterlimit:4;stroke-dasharray:none;fill-opacity:1"
       d="M 125.00391 25.048828 C 69.889754 25.048827 24.986328 69.911293 24.986328 124.99805 C 24.986328 180.0848 69.889754 224.94922 125.00391 224.94922 C 180.11805 224.94922 225.01367 180.0848 225.01367 124.99805 C 225.01367 69.911293 180.11805 25.048828 125.00391 25.048828 z M 125.00391 45.044922 C 143.53967 45.044922 160.56627 51.291223 174.10547 61.794922 L 125 110.86523 L 75.898438 61.796875 C 89.439487 51.292163 106.46715 45.04492 125.00391 45.044922 z M 61.751953 75.929688 L 110.85547 125.00195 L 61.753906 174.06836 C 51.237638 160.53696 44.984375 143.52046 44.984375 124.99805 C 44.984375 106.4765 51.236571 89.460786 61.751953 75.929688 z M 188.25 75.929688 C 198.76388 89.460786 205.01562 106.4765 205.01562 124.99805 C 205.01562 143.52102 198.76339 160.53871 188.24805 174.07031 L 139.14453 125.00195 L 188.25 75.929688 z M 125 139.13477 L 174.10352 188.20312 C 160.56463 198.70591 143.53878 204.95117 125.00391 204.95117 C 106.46804 204.95117 89.441125 198.70497 75.900391 188.20117 L 125 139.13477 z "
       transform="matrix(0.26458333,0,0,0.26458333,0.08041364,0.51138639)" />
  </g>
</svg>
