<?xml version="1.0" encoding="UTF-8" standalone="no"?>
<svg
   width="250"
   height="250"
   viewBox="0 0 66.145833 66.145833"
   version="1.1"
   id="svg8"
   inkscape:version="1.2.2 (b0a8486541, 2022-12-01)"
   sodipodi:docname="railing.svg"
   inkscape:export-filename="railing.png"
   inkscape:export-xdpi="125.61"
   inkscape:export-ydpi="125.61"
   xmlns:inkscape="http://www.inkscape.org/namespaces/inkscape"
   xmlns:sodipodi="http://sodipodi.sourceforge.net/DTD/sodipodi-0.dtd"
   xmlns="http://www.w3.org/2000/svg"
   xmlns:svg="http://www.w3.org/2000/svg"
   xmlns:rdf="http://www.w3.org/1999/02/22-rdf-syntax-ns#"
   xmlns:cc="http://creativecommons.org/ns#"
   xmlns:dc="http://purl.org/dc/elements/1.1/">
  <defs
     id="defs2">
    <rect
       x="9.3215187"
       y="9.7757984"
       width="47.632646"
       height="47.599103"
       id="rect1569" />
  </defs>
  <sodipodi:namedview
     id="base"
     pagecolor="#ffffff"
     bordercolor="#666666"
     borderopacity="1.0"
     inkscape:pageopacity="0.0"
     inkscape:pageshadow="2"
     inkscape:zoom="1.979899"
     inkscape:cx="76.266517"
     inkscape:cy="169.70563"
     inkscape:document-units="px"
     inkscape:current-layer="layer1"
     inkscape:document-rotation="0"
     showgrid="false"
     inkscape:window-width="1920"
     inkscape:window-height="1027"
     inkscape:window-x="0"
     inkscape:window-y="0"
     inkscape:window-maximized="1"
     units="px"
     fit-margin-top="0"
     fit-margin-left="0"
     fit-margin-right="0"
     fit-margin-bottom="0"
     showborder="true"
     inkscape:showpageshadow="true"
     showguides="true"
     inkscape:guide-bbox="true"
     inkscape:lockguides="false"
     inkscape:pagecheckerboard="true"
     inkscape:deskcolor="#d1d1d1">
    <sodipodi:guide
       position="9.2411051,60.308786"
       orientation="1,0"
       id="guide938"
       inkscape:locked="false" />
    <sodipodi:guide
       position="56.873751,59.111806"
       orientation="1,0"
       id="guide940"
       inkscape:locked="false" />
    <sodipodi:guide
       position="5.934793,56.881421"
       orientation="0,-1"
       id="guide942"
       inkscape:locked="false" />
    <sodipodi:guide
       position="52.614665,9.2823182"
       orientation="0,-1"
       id="guide944"
       inkscape:locked="false" />
  </sodipodi:namedview>
  <metadata
     id="metadata5">
    <rdf:RDF>
      <cc:Work
         rdf:about="">
        <dc:format>image/svg+xml</dc:format>
        <dc:type
           rdf:resource="http://purl.org/dc/dcmitype/StillImage" />
      </cc:Work>
    </rdf:RDF>
  </metadata>
  <g
     inkscape:label="Layer 1"
     inkscape:groupmode="layer"
     id="layer1"
     transform="translate(-0.08041364,-0.51138639)">
    <path
       id="circle846"
       style="fill:#000000;stroke:#000000;stroke-width:1.05833;stroke-linecap:round;fill-opacity:1"
       d="m 36.350378,17.395578 a 3.1970458,3.1970458 0 0 1 -3.197046,3.197046 3.1970458,3.1970458 0 0 1 -3.197046,-3.197046 3.1970458,3.1970458 0 0 1 3.197046,-3.197045 3.1970458,3.1970458 0 0 1 3.197046,3.197045 z" />
    <path
       id="circle849"
       style="fill:#000000;stroke:#000000;stroke-width:1.05833;stroke-linecap:round;fill-opacity:1"
       d="M 36.350378,6.5999508 A 3.1970458,3.1970458 0 0 1 33.153332,9.7969966 3.1970458,3.1970458 0 0 1 29.956286,6.5999508 3.1970458,3.1970458 0 0 1 33.153332,3.402905 3.1970458,3.1970458 0 0 1 36.350378,6.5999508 Z" />
    <path
       id="circle852"
       style="fill:#000000;stroke:#000000;stroke-width:1.05833;stroke-linecap:round;fill-opacity:1"
       d="m 36.350378,28.191208 a 3.1970458,3.1970458 0 0 1 -3.197046,3.197046 3.1970458,3.1970458 0 0 1 -3.197046,-3.197046 3.1970458,3.1970458 0 0 1 3.197046,-3.197046 3.1970458,3.1970458 0 0 1 3.197046,3.197046 z" />
    <path
       id="circle855"
       style="fill:#000000;stroke:#000000;stroke-width:1.05833;stroke-linecap:round;fill-opacity:1"
       d="m 36.350378,38.986839 a 3.1970458,3.1970458 0 0 1 -3.197046,3.197046 3.1970458,3.1970458 0 0 1 -3.197046,-3.197046 3.1970458,3.1970458 0 0 1 3.197046,-3.197046 3.1970458,3.1970458 0 0 1 3.197046,3.197046 z" />
    <path
       id="circle858"
       style="fill:#000000;stroke:#000000;stroke-width:1.05833;stroke-linecap:round;fill-opacity:1"
       d="m 36.350378,49.782463 a 3.1970458,3.1970458 0 0 1 -3.197046,3.197046 3.1970458,3.1970458 0 0 1 -3.197046,-3.197046 3.1970458,3.1970458 0 0 1 3.197046,-3.197046 3.1970458,3.1970458 0 0 1 3.197046,3.197046 z" />
    <path
       id="circle861"
       style="fill:#000000;stroke:#000000;stroke-width:1.05833;stroke-linecap:round;fill-opacity:1"
       d="m 36.350378,60.578091 a 3.1970458,3.1970458 0 0 1 -3.197046,3.197045 3.1970458,3.1970458 0 0 1 -3.197046,-3.197045 3.1970458,3.1970458 0 0 1 3.197046,-3.197046 3.1970458,3.1970458 0 0 1 3.197046,3.197046 z" />
    <path
       style="fill:#000000;fill-rule:evenodd;stroke:#000000;stroke-width:2.11666666;stroke-linecap:butt;stroke-linejoin:round;paint-order:stroke markers fill;stroke-dasharray:none"
       d="M 33.153333,0.51138639 V 66.657219"
       id="path12743" />
  </g>
</svg>
