<?xml version="1.0" encoding="UTF-8" standalone="no"?>
<svg
   width="250"
   height="250"
   viewBox="0 0 66.145833 66.145833"
   version="1.1"
   id="svg8"
   inkscape:version="1.2.2 (b0a8486541, 2022-12-01)"
   sodipodi:docname="rubble-2.svg"
   inkscape:export-filename="rubble-v2.png"
   inkscape:export-xdpi="96"
   inkscape:export-ydpi="96"
   xml:space="preserve"
   xmlns:inkscape="http://www.inkscape.org/namespaces/inkscape"
   xmlns:sodipodi="http://sodipodi.sourceforge.net/DTD/sodipodi-0.dtd"
   xmlns="http://www.w3.org/2000/svg"
   xmlns:svg="http://www.w3.org/2000/svg"
   xmlns:rdf="http://www.w3.org/1999/02/22-rdf-syntax-ns#"
   xmlns:cc="http://creativecommons.org/ns#"
   xmlns:dc="http://purl.org/dc/elements/1.1/"><defs
     id="defs2"><rect
       x="9.3215187"
       y="9.7757984"
       width="47.632646"
       height="30.499322"
       id="rect4949" /></defs><sodipodi:namedview
     id="base"
     pagecolor="#ffffff"
     bordercolor="#666666"
     borderopacity="1.0"
     inkscape:pageopacity="0.0"
     inkscape:pageshadow="2"
     inkscape:zoom="1.4"
     inkscape:cx="48.571429"
     inkscape:cy="130"
     inkscape:document-units="px"
     inkscape:current-layer="text4947"
     inkscape:document-rotation="0"
     showgrid="false"
     inkscape:window-width="1920"
     inkscape:window-height="1027"
     inkscape:window-x="0"
     inkscape:window-y="0"
     inkscape:window-maximized="1"
     units="px"
     fit-margin-top="0"
     fit-margin-left="0"
     fit-margin-right="0"
     fit-margin-bottom="0"
     showborder="true"
     inkscape:showpageshadow="true"
     showguides="true"
     inkscape:guide-bbox="true"
     inkscape:lockguides="false"
     inkscape:pagecheckerboard="true"
     inkscape:deskcolor="#d1d1d1"><sodipodi:guide
       position="9.2411051,60.308786"
       orientation="1,0"
       id="guide938"
       inkscape:locked="false" /><sodipodi:guide
       position="56.873751,59.111806"
       orientation="1,0"
       id="guide940"
       inkscape:locked="false" /><sodipodi:guide
       position="5.934793,56.881421"
       orientation="0,-1"
       id="guide942"
       inkscape:locked="false" /><sodipodi:guide
       position="52.614665,9.2823182"
       orientation="0,-1"
       id="guide944"
       inkscape:locked="false" /><sodipodi:guide
       position="15.033911,12.491476"
       orientation="0,-1"
       id="guide21845"
       inkscape:locked="false" /><sodipodi:guide
       position="23.519718,28.193561"
       orientation="0,-1"
       id="guide25974"
       inkscape:locked="false" /></sodipodi:namedview><metadata
     id="metadata5"><rdf:RDF><cc:Work
         rdf:about=""><dc:format>image/svg+xml</dc:format><dc:type
           rdf:resource="http://purl.org/dc/dcmitype/StillImage" /></cc:Work></rdf:RDF></metadata><g
     inkscape:label="Layer 1"
     inkscape:groupmode="layer"
     id="layer1"
     transform="translate(-0.08041364,-0.51138639)"><g
       aria-label="I"
       id="text4947"
       style="font-weight:bold;font-size:22.5778px;line-height:1.25;font-family:'Source Code Pro';-inkscape-font-specification:'Source Code Pro Bold';letter-spacing:-7.9666px;white-space:pre;shape-inside:url(#rect4949);fill:#000000;fill-opacity:1;stroke:none"><path
         style="fill:#000000;stroke-width:1"
         d="m 7.9397762,50.857204 c -0.145484,-0.07201 -0.264453,-0.184565 -0.350763,-0.331842 -0.123743,-0.211152 -0.128856,-0.249393 -0.09725,-0.72746 0.0464,-0.701887 0.140885,-0.996884 0.458377,-1.431149 0.323278,-0.442179 0.445874,-0.540491 0.673998,-0.540491 0.264205,0 0.670344,0.134936 0.836691,0.277983 0.481374,0.413951 0.7221078,1.361969 0.471871,1.858244 -0.261742,0.519092 -0.323128,0.625576 -0.426687,0.740158 -0.178276,0.197254 -0.403369,0.263615 -0.894018,0.263571 -0.356689,-3.2e-5 -0.49851,-0.02303 -0.672217,-0.109014 z M 18.350966,50.08978 c -0.372225,-0.05179 -0.899733,-0.351789 -0.899733,-0.511684 0,-0.02519 -0.02895,-0.07676 -0.06434,-0.1146 -0.304161,-0.325254 -0.365338,-1.023953 -0.125326,-1.431333 0.07506,-0.127401 0.157611,-0.278918 0.183447,-0.336705 0.02584,-0.05779 0.08413,-0.135905 0.129549,-0.173598 0.04542,-0.03769 0.08284,-0.09465 0.08317,-0.126572 3.08e-4,-0.03192 0.09278,-0.102206 0.205446,-0.156184 0.45296,-0.217003 1.600139,0.108341 1.675205,0.475095 0.01551,0.07579 0.108201,0.299948 0.205974,0.498128 0.213292,0.43233 0.234643,0.746948 0.06966,1.026565 -0.05942,0.100708 -0.127717,0.183106 -0.151773,0.183106 -0.06811,0 -0.274504,0.216718 -0.353198,0.370867 -0.123713,0.242335 -0.503792,0.360124 -0.958077,0.296915 z m 15.881233,-1.090758 c -0.184025,-0.05888 -0.346172,-0.121459 -0.360328,-0.139069 -0.01416,-0.01761 -0.08365,-0.05897 -0.154426,-0.09191 -0.07078,-0.03294 -0.3473,-0.229364 -0.614492,-0.436493 -0.613775,-0.475804 -0.723867,-0.662243 -0.723867,-1.225857 0,-0.453633 0.06523,-0.704753 0.312957,-1.204833 0.18397,-0.371374 0.447924,-0.670535 1.048941,-1.188856 0.196971,-0.169869 0.522151,-0.475727 0.722622,-0.679685 0.454155,-0.462054 0.695405,-0.578814 1.199085,-0.580331 0.626933,-0.0019 0.921731,0.204952 1.069349,0.750295 0.04906,0.181256 0.105578,0.329557 0.125587,0.329557 0.02001,0 0.130788,0.191102 0.246175,0.424672 0.155754,0.315281 0.225556,0.537377 0.270982,0.862212 0.05835,0.417231 0.05589,0.4465 -0.053,0.630573 -0.0628,0.106168 -0.135061,0.193033 -0.160577,0.193033 -0.02551,0 -0.04639,0.02113 -0.04639,0.04695 0,0.04466 -0.606261,0.991059 -0.718714,1.121943 -0.02938,0.03419 -0.05342,0.07456 -0.05342,0.08969 0,0.06267 -0.725678,0.826635 -0.933006,0.982225 -0.100834,0.07567 -0.602497,0.230672 -0.732985,0.226474 -0.06045,-0.0019 -0.260474,-0.05171 -0.444498,-0.110588 z M 21.208933,48.212327 c -0.09909,-0.03816 -0.222578,-0.07114 -0.274416,-0.0733 -0.125659,-0.0052 -0.741989,-0.317211 -0.933042,-0.472312 -0.205336,-0.166696 -0.903031,-0.85287 -0.903031,-0.888119 0,-0.01549 -0.06949,-0.131126 -0.154426,-0.256974 -0.08493,-0.125849 -0.154426,-0.254412 -0.154426,-0.285695 0,-0.03128 -0.01737,-0.05693 -0.03861,-0.057 -0.07334,-2.06e-4 -0.314101,-0.593119 -0.397112,-0.977913 -0.04581,-0.212336 -0.130684,-0.571377 -0.188614,-0.797868 -0.219707,-0.858987 -0.223823,-0.888861 -0.156935,-1.13895 0.03471,-0.129783 0.129775,-0.33286 0.211253,-0.451284 l 0.148141,-0.215315 -0.368161,0.0353 c -0.202488,0.01942 -0.514146,0.06408 -0.692572,0.09926 -0.396636,0.0782 -0.993162,0.04002 -1.272225,-0.08144 -0.112751,-0.04907 -0.251329,-0.107911 -0.307952,-0.130752 -0.05662,-0.02284 -0.211708,-0.08912 -0.344635,-0.147292 -0.132925,-0.05817 -0.266118,-0.105761 -0.295983,-0.105761 -0.02986,0 -0.0543,-0.0216 -0.0543,-0.04801 0,-0.0264 -0.05069,-0.0641 -0.112641,-0.08376 -0.163865,-0.05201 -0.616175,-0.540894 -0.741911,-0.801907 -0.05949,-0.123489 -0.18689,-0.380713 -0.283115,-0.57161 -0.165026,-0.327389 -0.174955,-0.377048 -0.174955,-0.875081 0,-0.604385 0.08085,-0.879013 0.370463,-1.258431 l 0.179286,-0.234878 -0.287813,0.03596 c -0.331204,0.04138 -1.171579,-0.04626 -1.54882,-0.161514 -0.580437,-0.177343 -1.01238,-0.429663 -1.389424,-0.811634 -0.339735,-0.344174 -0.489551,-0.582291 -0.746209,-1.18602 -0.13165,-0.309677 -0.254569,-1.086015 -0.256262,-1.618512 -0.0024,-0.749924 0.214746,-1.998505 0.385436,-2.216402 0.03327,-0.04247 0.07486,-0.11775 0.09243,-0.167295 0.01757,-0.04955 0.05661,-0.09008 0.08675,-0.09008 0.03014,0 0.135276,-0.08047 0.233627,-0.17882 0.409915,-0.409915 1.179139,-0.786386 1.481945,-0.725288 0.08975,0.01811 0.267416,0.05211 0.394818,0.07556 0.411043,0.07566 1.255122,0.339517 1.531314,0.478686 0.154371,0.07779 0.198545,0.02122 0.118549,-0.151807 -0.03605,-0.07798 -0.120887,-0.325377 -0.188525,-0.549781 -0.161637,-0.536261 -0.17568,-1.506085 -0.02808,-1.938933 0.0522,-0.153067 0.108823,-0.36623 0.125835,-0.473696 0.02657,-0.167857 0.01501,-0.202188 -0.08203,-0.243618 -0.06213,-0.02652 -0.205622,-0.105852 -0.318868,-0.176285 -0.113246,-0.07043 -0.246657,-0.152839 -0.296469,-0.183126 -0.07398,-0.04498 -0.09886,-0.03325 -0.135834,0.06399 -0.06385,0.16794 -0.349113,0.434238 -0.51164,0.477625 -0.07537,0.02012 -0.322351,0.05139 -0.548842,0.06948 l -0.411803,0.0329 -0.01598,0.180163 c -0.03295,0.371397 -0.343015,1.193422 -0.543664,1.44131 -0.03437,0.04247 -0.09243,0.137297 -0.12902,0.210734 -0.08485,0.170315 -0.49533,0.612872 -0.568447,0.612872 -0.03053,0 -0.05551,0.01822 -0.05551,0.04049 0,0.07037 -0.504569,0.420571 -0.8639398,0.599623 -0.455244,0.22682 -1.005778,0.305325 -1.434252,0.20452 -0.165715,-0.03897 -0.482396,-0.09395 -0.703728,-0.122148 -0.624633,-0.07959 -0.963015,-0.283821 -1.313988,-0.79307 -0.153592,-0.222856 -0.368794,-0.624403 -0.478227,-0.892327 -0.175793,-0.430397 -0.198806,-0.536088 -0.197575,-0.90743 0.0024,-0.730373 0.338518,-1.323865 1.185415,-2.093244 0.23373,-0.212335 0.467683,-0.426602 0.519897,-0.476147 0.05221,-0.04955 0.112306,-0.09073 0.133539,-0.09151 0.02123,-7.88e-4 0.103699,-0.06781 0.183256,-0.148939 0.07956,-0.08113 0.322777,-0.23476 0.540491,-0.341401 0.380281,-0.186271 0.426196,-0.195851 1.167973,-0.243687 0.424672,-0.02739 0.8184578,-0.05054 0.8750808,-0.05146 0.103676,-0.0017 0.402121,0.066 0.872298,0.197784 0.140027,0.03925 0.264868,0.06109 0.277424,0.04853 0.01256,-0.01256 -0.03467,-0.09874 -0.104942,-0.191525 -0.07028,-0.09278 -0.186652,-0.274759 -0.258616,-0.404392 -0.07196,-0.129632 -0.155557,-0.280198 -0.185764,-0.334589 -0.03021,-0.05439 -0.08755,-0.179969 -0.127421,-0.279059 -0.418937,-1.041069 -0.300849,-1.95579 0.349778,-2.709408 0.252869,-0.292897 0.709674,-0.66479 1.034434,-0.842151 0.111003,-0.06062 0.263478,-0.149176 0.338832,-0.196788 0.07536,-0.04761 0.248729,-0.15443 0.385277,-0.237374 0.136548,-0.08294 0.294951,-0.19562 0.352008,-0.25039 0.09594,-0.0921 0.158888,-0.09732 0.837048,-0.06949 0.709972,0.02914 1.033306,0.09977 1.351442,0.295215 0.04247,0.02609 0.111959,0.0604 0.154426,0.07625 0.285739,0.106643 0.758719,0.387405 0.965352,0.573034 0.134376,0.120716 0.261692,0.219848 0.282926,0.220292 0.02123,4.63e-4 0.03861,0.03085 0.03861,0.06757 0,0.03672 0.06851,0.123582 0.152246,0.193033 0.08374,0.06945 0.153228,0.155228 0.154427,0.190618 0.0012,0.03539 0.01955,0.06455 0.04079,0.06479 0.02123,2.58e-4 0.128021,0.139231 0.237306,0.308853 0.207815,0.32255 0.290316,0.380208 0.290316,0.202894 0,-0.18833 0.149328,-0.40125 0.466568,-0.66526 0.371205,-0.30892 0.50133,-0.324333 0.949233,-0.112437 0.169995,0.08042 0.398083,0.175595 0.506861,0.211495 0.10878,0.0359 0.259242,0.09734 0.334362,0.136535 0.07512,0.03919 0.154891,0.0714 0.177271,0.07158 0.05905,4.63e-4 0.344046,0.208163 0.523194,0.381301 l 0.154528,0.149346 0.0346,-0.123608 c 0.01903,-0.06798 0.03691,-0.175218 0.03973,-0.238298 0.01499,-0.335034 0.579494,-1.220766 0.97356,-1.527555 0.184826,-0.14389 0.291892,-0.237154 0.627307,-0.546436 0.155713,-0.143582 0.49159,-0.391528 0.746393,-0.550991 0.254803,-0.159465 0.62752,-0.395846 0.82826,-0.525294 0.20074,-0.129447 0.509151,-0.316432 0.685358,-0.415522 0.176207,-0.09909 0.521572,-0.310588 0.767477,-0.469996 0.530268,-0.343747 0.91607,-0.548967 1.18071,-0.628053 0.439681,-0.131397 2.12257,-0.01262 2.483393,0.175277 0.04258,0.02217 0.191452,0.09231 0.330827,0.155855 0.139375,0.06355 0.29046,0.15207 0.335745,0.19672 0.04529,0.04465 0.181801,0.165794 0.303369,0.269209 0.261497,0.222448 0.42287,0.631242 0.528152,1.337927 0.04754,0.319115 0.08476,0.437885 0.131586,0.419916 0.03591,-0.01378 0.08022,-0.07208 0.09846,-0.129551 0.04702,-0.148157 0.511893,-0.73881 0.865003,-1.099054 0.164678,-0.168004 0.433709,-0.490918 0.597848,-0.717585 0.320065,-0.441993 0.764136,-0.859263 1.198313,-1.125991 0.411921,-0.253055 0.715787,-0.455128 0.917262,-0.609987 0.20264,-0.155756 0.757267,-0.41916 1.153798,-0.547965 0.205249,-0.06667 0.451675,-0.08167 1.216702,-0.07406 1.03711,0.01032 1.49375,0.06861 1.812868,0.231411 0.112213,0.05725 0.417314,0.146991 0.678002,0.199432 0.260689,0.05244 0.602724,0.152284 0.760077,0.221873 0.36483,0.161345 0.888728,0.516238 0.989807,0.670503 0.04292,0.0655 0.158678,0.162518 0.25725,0.215603 0.09857,0.05308 0.179223,0.114415 0.179223,0.136288 0,0.02187 0.03282,0.03977 0.07292,0.03977 0.04011,0 0.08064,0.01851 0.09008,0.04113 0.0094,0.02262 0.20247,0.183763 0.428961,0.358092 0.382543,0.29444 0.439234,0.320933 0.797868,0.372857 0.57824,0.08372 1.183887,0.206828 1.417293,0.288092 0.114193,0.03976 0.246599,0.07229 0.294238,0.07229 0.04764,0 0.162682,0.03241 0.255655,0.07202 0.09297,0.03961 0.273279,0.11223 0.400681,0.161379 0.127401,0.04915 0.37583,0.160169 0.552064,0.24671 0.176234,0.08654 0.328837,0.147113 0.339117,0.134604 0.01028,-0.01251 0.09363,-0.133617 0.185224,-0.269128 0.09159,-0.135512 0.279989,-0.367151 0.41866,-0.514754 0.138671,-0.147603 0.252797,-0.285742 0.253613,-0.306976 8.18e-4,-0.02123 0.03375,-0.03861 0.07319,-0.03861 0.03944,0 0.08504,-0.03475 0.101335,-0.07721 0.0163,-0.04247 0.06262,-0.07721 0.102951,-0.07721 0.04033,0 0.08473,-0.02973 0.09867,-0.06606 0.01394,-0.03634 0.120394,-0.111619 0.236556,-0.167295 0.116163,-0.05568 0.21147,-0.118603 0.211795,-0.139837 3.09e-4,-0.02123 0.03185,-0.03861 0.07005,-0.03861 0.0382,0 0.22817,-0.08423 0.422154,-0.187169 0.349947,-0.185707 1.193377,-0.429835 1.490072,-0.431296 0.085,-4.12e-4 0.305112,-0.03626 0.489136,-0.07965 0.406678,-0.09589 0.708455,-0.143133 1.7759,-0.278008 0.675459,-0.08535 0.899336,-0.0947 1.244623,-0.05199 0.496423,0.0614 0.653109,0.114113 1.303407,0.438494 0.637996,0.318244 0.78171,0.436497 1.286323,1.05842 0.491224,0.605431 0.739186,0.998776 0.856426,1.35858 0.04613,0.141557 0.135535,0.373196 0.198685,0.514754 0.274168,0.614606 0.306479,0.75499 0.308034,1.338359 0.0012,0.44155 -0.02058,0.622901 -0.0988,0.823606 -0.05517,0.141557 -0.114111,0.268959 -0.130984,0.283114 -0.05948,0.0499 -0.257722,0.418467 -0.257686,0.47909 1.6e-5,0.03377 -0.08685,0.234499 -0.193032,0.446061 -0.144687,0.288271 -0.309161,0.501103 -0.656347,0.849344 -0.460169,0.461564 -0.550915,0.536292 -0.797868,0.657042 -0.07078,0.03461 -0.140271,0.07734 -0.154426,0.09497 -0.05263,0.06553 -0.863186,0.407045 -0.971706,0.409415 -0.04595,0.001 -0.139462,0.03281 -0.207811,0.07068 -0.115516,0.064 -0.09993,0.0704 0.22119,0.09085 0.324469,0.02066 0.356183,0.03405 0.521893,0.220312 0.09704,0.109073 0.301429,0.328444 0.454198,0.487491 0.280741,0.292276 0.496989,0.676457 0.496989,0.88294 0,0.06189 0.07136,0.320373 0.15858,0.574397 0.302186,0.880105 0.144775,1.415533 -0.711574,2.420392 -0.162992,0.191259 -0.423751,0.453499 -0.579464,0.582756 -0.155713,0.129256 -0.349198,0.291276 -0.429963,0.360043 -0.08077,0.06877 -0.167635,0.12503 -0.193033,0.12503 -0.0254,0 -0.04618,0.02036 -0.04618,0.04524 0,0.02488 -0.179521,0.179856 -0.398934,0.344388 -0.219414,0.164532 -0.422098,0.329824 -0.45041,0.367315 -0.03828,0.05069 -0.323466,0.07661 -1.112635,0.10111 -1.036491,0.03218 -1.067011,0.03018 -1.312624,-0.0861 -0.33407,-0.158153 -1.036662,-0.88365 -1.232825,-1.273014 -0.127248,-0.252576 -0.148926,-0.354333 -0.145474,-0.682869 0.0043,-0.409784 0.177161,-1.379154 0.297121,-1.666258 0.230708,-0.552163 0.936753,-1.39244 1.4762,-1.756853 0.12573,-0.08494 0.236321,-0.171799 0.245756,-0.193033 0.0094,-0.02123 0.04083,-0.03861 0.06975,-0.03861 0.02892,0 0.155559,-0.06949 0.281406,-0.154426 0.125847,-0.08493 0.250819,-0.154426 0.27771,-0.154426 0.02689,0 0.0489,-0.0178 0.0489,-0.03955 0,-0.02175 0.05967,-0.07576 0.132606,-0.120013 0.122882,-0.07456 0.07194,-0.07871 -0.694743,-0.05662 -0.765584,0.02206 -1.994944,-0.06247 -2.789501,-0.191809 l -0.237378,-0.03864 -0.02919,0.62225 c -0.05672,1.209257 -0.239649,2.05847 -0.605293,2.809953 -0.153944,0.31639 -0.417281,0.720655 -0.469432,0.720655 -0.02354,0 -0.04281,0.02078 -0.04281,0.04618 0,0.111524 -0.741456,0.88581 -1.44131,1.505127 -0.557027,0.492927 -0.668913,0.600721 -0.67136,0.646805 -0.0012,0.02258 -0.07069,0.09789 -0.154426,0.167338 -0.08374,0.06945 -0.152246,0.143961 -0.152246,0.165579 0,0.05576 -0.354112,0.403065 -0.410961,0.403065 -0.02596,0 -0.06572,0.02895 -0.08837,0.06434 -0.04355,0.06808 -0.134519,0.128292 -0.427229,0.282797 -0.307233,0.16217 -0.922639,0.311287 -1.647212,0.399129 -0.976408,0.118374 -1.453147,0.230323 -1.981801,0.465369 -0.152974,0.06802 -0.151807,0.06869 0.124164,0.07195 0.501738,0.0059 1.127591,0.238518 1.459162,0.542277 0.09433,0.08642 0.226738,0.272672 0.294244,0.413903 0.06751,0.14123 0.180727,0.349438 0.2516,0.462684 0.14718,0.235173 0.258169,0.771767 0.260854,1.261146 0.0018,0.326435 -0.0038,0.340586 -0.228931,0.580607 -0.126922,0.135309 -0.230767,0.25468 -0.230767,0.265268 0,0.02836 -0.492677,0.572105 -0.861199,0.950472 l -0.320731,0.329298 -0.657313,-0.03609 C 38.827593,38.981044 38.38808,38.72036 37.878183,37.697692 l -0.274344,-0.550235 0.0066,-0.490183 c 0.0054,-0.400385 0.03225,-0.556195 0.146606,-0.850512 0.077,-0.19818 0.152433,-0.414656 0.167629,-0.481058 0.02712,-0.118483 0.02478,-0.119258 -0.125302,-0.04165 -0.190032,0.09827 -0.991463,0.208834 -1.256278,0.173315 -0.221917,-0.02977 -0.421471,-0.166435 -0.615061,-0.421242 -0.07235,-0.09522 -0.257659,-0.271858 -0.411803,-0.392516 -0.154144,-0.12066 -0.298786,-0.24998 -0.321426,-0.287378 -0.02264,-0.0374 -0.06601,-0.068 -0.09639,-0.068 -0.03374,0 -0.02852,0.03217 0.01342,0.0827 0.192021,0.231371 0.486838,0.889154 0.608924,1.358608 0.08838,0.339846 0.207662,1.452848 0.208981,1.949988 0.0018,0.660265 -0.114691,0.795694 -0.944569,1.098583 -0.939838,0.343022 -1.409583,0.491707 -2.024135,0.640685 l -0.370342,0.08978 0.293129,0.09153 c 0.161222,0.05034 0.335884,0.09187 0.388138,0.09228 0.05226,4.12e-4 0.156493,0.03196 0.231639,0.0701 0.07515,0.03813 0.249246,0.125 0.386886,0.193033 0.228783,0.113082 0.80499,0.670541 0.80499,0.778797 0,0.02507 0.07399,0.189066 0.164431,0.364424 0.151789,0.29432 0.164652,0.358412 0.167295,0.833587 0.0028,0.499998 -0.06706,0.870066 -0.257445,1.364097 -0.03819,0.09909 -0.07654,0.22601 -0.08522,0.282044 -0.01452,0.0937 -0.397814,0.339847 -0.761189,0.488841 -0.07078,0.02902 -0.163434,0.07122 -0.205901,0.09377 -0.04247,0.02255 -0.204614,0.07914 -0.360327,0.125739 -1.649211,0.493604 -2.218214,0.244812 -2.79486,-1.222033 -0.261057,-0.664064 -0.314181,-2.068029 -0.09349,-2.470817 0.160479,-0.292897 0.339024,-0.536633 0.556187,-0.759262 l 0.188293,-0.193032 h -0.262641 c -0.385944,0 -1.264431,-0.186194 -1.577689,-0.334389 -0.149848,-0.07089 -0.29724,-0.128889 -0.327538,-0.128889 -0.0303,0 -0.06281,-0.01737 -0.07225,-0.03861 -0.0094,-0.02123 -0.09823,-0.104737 -0.197322,-0.185564 -0.210455,-0.171666 -0.566229,-0.685068 -0.566229,-0.8171 0,-0.05015 -0.02088,-0.09119 -0.04639,-0.09119 -0.08323,0 -0.268217,-0.37182 -0.324553,-0.652333 -0.03029,-0.150823 -0.07145,-0.274224 -0.09146,-0.274224 -0.02002,0 -0.07686,0.04471 -0.12631,0.09936 -0.06213,0.06865 -0.192083,0.110301 -0.420497,0.134762 -0.359479,0.0385 -0.454416,0.09984 -0.267899,0.173112 0.300466,0.118031 0.883254,0.753431 1.137307,1.239978 0.252086,0.482779 0.448658,1.313743 0.448658,1.896598 0,0.351214 -0.02189,0.453351 -0.154426,0.720475 -0.08494,0.171186 -0.154742,0.353084 -0.155129,0.404217 -0.0011,0.151698 -0.05936,0.324608 -0.109274,0.324608 -0.02557,0 -0.144481,0.06323 -0.264242,0.140506 -0.283642,0.183024 -0.407968,0.259301 -0.492913,0.302411 -0.0381,0.01933 -0.141592,0.101213 -0.229994,0.181955 -0.203291,0.185678 -0.397845,0.221392 -0.982792,0.180408 -0.756142,-0.05298 -1.721259,-0.265367 -1.866685,-0.410794 -0.01879,-0.01879 -0.05662,-0.03416 -0.08407,-0.03416 -0.02745,0 0.01106,0.06097 0.08558,0.135497 0.07452,0.07452 0.187711,0.242461 0.251528,0.373196 0.06382,0.130735 0.141903,0.260863 0.173525,0.289175 0.03162,0.02831 0.09353,0.120967 0.137577,0.205901 0.247091,0.476477 0.290294,0.633385 0.330173,1.199171 l 0.04098,0.581466 0.180164,-0.135911 c 0.169475,-0.127847 0.204274,-0.134157 0.586551,-0.106355 0.437989,0.03185 0.558086,0.08606 0.858575,0.387535 0.291204,0.292159 0.444516,0.642575 0.536927,1.227212 0.02948,0.186493 0.01292,0.253375 -0.111504,0.450317 -0.08037,0.127212 -0.163497,0.231337 -0.184731,0.231387 -0.02123,5.1e-5 -0.03861,0.02326 -0.03861,0.05157 0,0.0922 -0.185378,0.239867 -0.468734,0.37338 -0.261155,0.123053 -0.300605,0.12775 -0.663723,0.07902 -0.212336,-0.0285 -0.451775,-0.07609 -0.532087,-0.105773 -0.151162,-0.05586 -0.339963,-0.309683 -0.43013,-0.578264 l -0.05184,-0.154426 -0.03638,0.161957 c -0.0633,0.281796 -0.511087,0.561332 -1.471853,0.918814 -0.602186,0.224061 -1.765601,0.307276 -2.161965,0.154637 z m 2.25417,-6.241387 c -0.07313,-0.07786 -0.197832,-0.263168 -0.277121,-0.411803 -0.07929,-0.148635 -0.162776,-0.270246 -0.185525,-0.270246 -0.02275,0 -0.04136,-0.02562 -0.04136,-0.05694 0,-0.03131 -0.0637,-0.141343 -0.141557,-0.244507 -0.370533,-0.490977 -0.461264,-0.886305 -0.348545,-1.51866 0.04108,-0.230491 0.09867,-0.499995 0.127975,-0.598898 0.0293,-0.0989 0.05378,-0.272632 0.05441,-0.386065 0.0013,-0.245548 0.122778,-0.529414 0.379086,-0.886178 0.402225,-0.559866 0.832522,-0.744832 1.641721,-0.705703 0.44057,0.0213 0.509907,0.01466 0.426522,-0.04085 -0.660043,-0.439446 -0.945458,-1.06969 -0.968205,-2.137962 -0.01219,-0.572485 -0.02014,-0.616505 -0.103288,-0.572206 -0.04955,0.0264 -0.09008,0.07034 -0.09008,0.09765 0,0.02732 -0.03282,0.04967 -0.07292,0.04967 -0.04011,0 -0.08064,0.01737 -0.09008,0.03861 -0.04714,0.106067 -0.707615,0.475054 -0.855217,0.477784 -0.04867,9.01e-4 -0.133462,0.03565 -0.188418,0.07721 -0.05496,0.04157 -0.146837,0.07558 -0.20418,0.07558 -0.05734,0 -0.19769,0.03272 -0.311883,0.07272 -0.389445,0.136409 -1.388247,0.253083 -1.894913,0.221353 -0.691844,-0.04333 -1.433568,-0.177603 -2.109016,-0.381801 -0.08072,-0.0244 -0.09021,0.01753 -0.09134,0.403443 -6.9e-4,0.236871 -0.02565,0.534913 -0.05546,0.662314 -0.02981,0.127402 -0.07479,0.347459 -0.09996,0.489016 -0.02517,0.141557 -0.06032,0.307554 -0.07811,0.368883 -0.02986,0.102926 -0.0092,0.11415 0.268513,0.145863 0.361472,0.04128 0.703791,0.159561 0.8139,0.281229 0.0443,0.04895 0.133987,0.199739 0.19931,0.335089 l 0.118769,0.246093 -0.02217,-0.306557 c -0.05075,-0.701681 0.525025,-1.207728 1.284595,-1.129018 0.719482,0.07456 0.985104,0.304138 1.174086,1.014781 0.140889,0.529794 0.13674,0.931442 -0.01181,1.143342 -0.0637,0.09087 -0.133193,0.172932 -0.154426,0.182369 -0.02123,0.0094 -0.03865,0.04418 -0.03871,0.07721 -1.55e-4,0.08771 -0.449701,0.373814 -0.735223,0.467904 -0.135469,0.04464 -0.334689,0.08117 -0.442711,0.08117 h -0.196404 l -0.03563,0.682048 c -0.04353,0.833316 -0.09006,1.002001 -0.393975,1.428441 -0.34257,0.480678 -0.337724,0.463584 -0.113982,0.402048 0.106482,-0.02929 0.281528,-0.09799 0.38899,-0.152682 0.164198,-0.08356 0.320317,-0.101129 0.978031,-0.110055 0.430455,-0.0058 0.852137,0.0045 0.937071,0.02296 0.439757,0.09564 1.40285,0.369828 1.516763,0.431807 0.186338,0.101384 0.191927,0.09264 0.04249,-0.06646 z m 5.71372,-8.472366 c -0.237154,-0.08863 -0.789007,-0.368004 -0.85755,-0.43413 -0.03876,-0.03739 -0.08505,-0.05341 -0.10287,-0.03559 -0.01782,0.01782 0.0081,0.06201 0.0576,0.09821 0.0495,0.0362 0.09,0.09221 0.09,0.12448 0,0.03227 0.01915,0.05867 0.04255,0.05867 0.0234,0 0.14357,0.13944 0.267035,0.309868 l 0.224483,0.309867 0.198322,-0.193656 c 0.195844,-0.191236 0.196849,-0.194205 0.08042,-0.237716 z m 4.715956,-0.355658 c -0.137806,-0.148635 -0.268378,-0.277967 -0.290158,-0.287404 -0.02178,-0.0094 -0.0396,-0.04997 -0.0396,-0.09008 0,-0.04011 -0.01945,-0.07292 -0.04321,-0.07292 -0.02377,0 -0.07101,-0.05212 -0.104989,-0.115819 -0.07279,-0.136472 -0.138839,-0.244776 -0.328779,-0.539123 -0.142662,-0.221082 -0.267288,-0.520005 -0.345647,-0.829052 -0.06696,-0.264081 -0.09258,-0.24881 -0.129133,0.07696 -0.04695,0.418402 -0.164762,0.789894 -0.408369,1.287644 l -0.08013,0.163721 0.295456,0.0577 c 0.588499,0.114937 1.183288,0.316228 1.520995,0.514741 0.09036,0.05312 0.173258,0.09822 0.18421,0.10023 0.01095,0.002 -0.09284,-0.117958 -0.230644,-0.266593 z m -7.792747,-0.884734 c 0.44353,-0.09253 0.887934,-0.104218 1.031951,-0.02714 0.05476,0.02931 0.09957,0.04536 0.09957,0.03566 0,-0.0097 -0.213556,-0.232609 -0.47457,-0.495367 l -0.47457,-0.47774 -0.193074,0.223309 c -0.10619,0.122821 -0.193765,0.252265 -0.194609,0.287655 -8.45e-4,0.03539 -0.02124,0.06434 -0.04532,0.06434 -0.03728,0 -0.121459,0.117644 -0.439113,0.61367 -0.02848,0.04447 0.02208,0.03057 0.128873,-0.03543 0.09666,-0.05974 0.349044,-0.144766 0.560862,-0.188956 z m -0.390071,-3.840576 c 0.04281,-0.324236 0.111093,-0.708323 0.151742,-0.853526 0.08096,-0.289217 0.356392,-0.872517 0.472753,-1.001194 0.04042,-0.0447 0.07349,-0.09443 0.07349,-0.110527 0,-0.04531 0.261455,-0.34258 0.482652,-0.548767 0.109746,-0.102298 0.242939,-0.226533 0.295983,-0.276079 0.05305,-0.04955 0.111265,-0.09008 0.129378,-0.09008 0.01811,0 0.05865,-0.03195 0.09008,-0.07099 0.03143,-0.03904 0.265625,-0.226314 0.520428,-0.416156 0.254803,-0.189843 0.50408,-0.377956 0.553949,-0.418028 0.04987,-0.04007 0.111639,-0.07286 0.137267,-0.07286 0.02563,0 0.05432,-0.01938 0.06376,-0.04308 0.0094,-0.02369 0.137167,-0.148983 0.283845,-0.278427 0.292804,-0.258402 0.749835,-0.430062 1.007696,-0.378489 0.08101,0.0162 0.284907,0.110109 0.453096,0.208682 0.168189,0.09857 0.305798,0.172705 0.305798,0.164736 0,-0.008 -0.05462,-0.128851 -0.121379,-0.268629 -0.256292,-0.536623 -0.307529,-0.783649 -0.303085,-1.461243 l 0.0042,-0.640873 -0.176015,0.203332 c -0.09681,0.111833 -0.384257,0.473656 -0.638773,0.80405 -0.254517,0.330395 -0.491912,0.631526 -0.527543,0.66918 -0.03563,0.03765 -0.194456,0.230805 -0.352941,0.429225 -0.323909,0.405522 -0.95187,1.054809 -1.020166,1.054809 -0.02462,0 -0.05618,0.02977 -0.07015,0.06615 -0.01396,0.03638 -0.126468,0.134765 -0.250015,0.218626 -0.123547,0.08386 -0.236213,0.166101 -0.250369,0.182756 -0.01415,0.01666 -0.226488,0.127351 -0.471849,0.245989 -0.483132,0.233607 -1.079239,0.412759 -1.407001,0.422855 -0.113246,0.0035 -0.263811,0.02247 -0.33459,0.04219 -0.11151,0.03106 -0.116322,0.0406 -0.03605,0.07145 0.173948,0.06685 0.332392,0.534868 0.369728,1.092116 0.01897,0.283114 0.0777,0.65758 0.130507,0.832145 0.08936,0.295375 0.319789,0.843873 0.344707,0.820511 0.0061,-0.0057 0.04605,-0.27562 0.08886,-0.599857 z m 7.685011,-0.826903 c 0.529246,-0.499264 1.141247,-0.7107 2.304212,-0.796067 0.505783,-0.03713 0.565712,-0.113158 0.09548,-0.121128 -0.180213,-0.0031 -0.635636,-0.09094 -1.613938,-0.311436 -0.230739,-0.05201 -0.655657,-0.200789 -0.831548,-0.291161 -0.07515,-0.03861 -0.161503,-0.0702 -0.191903,-0.0702 -0.08625,0 -0.853332,-0.367619 -0.872558,-0.418166 -0.0094,-0.02481 -0.06156,-0.04511 -0.115819,-0.04511 -0.05426,0 -0.09866,-0.01945 -0.09866,-0.04321 0,-0.02377 -0.05642,-0.06892 -0.125378,-0.100339 -0.12393,-0.05647 -0.122791,-0.04957 0.09856,0.596573 0.123167,0.359534 0.260339,0.815846 0.304826,1.014026 0.04449,0.19818 0.115955,0.515654 0.158816,0.705497 0.04286,0.189843 0.07793,0.446576 0.07793,0.570518 0,0.123943 0.01538,0.240734 0.03419,0.259536 0.0188,0.0188 0.122129,-0.112653 0.229613,-0.292125 0.107484,-0.179472 0.353268,-0.475213 0.546186,-0.657202 z m 10.403065,-2.012967 c 0.0094,-0.02217 0.03675,-0.0403 0.0607,-0.0403 0.02395,0 0.184474,-0.09361 0.356718,-0.208015 0.340072,-0.225882 0.344374,-0.24845 0.09807,-0.514479 -0.06647,-0.07179 -0.200783,-0.231562 -0.298482,-0.35505 -0.110544,-0.139725 -0.184403,-0.197355 -0.195559,-0.152588 -0.0099,0.03956 -0.08929,0.222501 -0.17651,0.406526 -0.08722,0.184024 -0.190751,0.404081 -0.230066,0.489016 -0.04752,0.102663 -0.06044,0.234565 -0.03854,0.393508 l 0.03294,0.239083 0.18678,-0.108697 c 0.102729,-0.05978 0.194501,-0.126833 0.203938,-0.149 z M 46.8694,47.897647 c -0.54474,-0.213292 -1.137235,-0.543467 -1.415572,-0.788845 -0.07078,-0.0624 -0.19246,-0.169958 -0.270404,-0.239024 l -0.141716,-0.125575 0.02983,-0.758723 c 0.0417,-1.060472 0.132644,-1.548465 0.316718,-1.699428 0.252961,-0.207458 0.266668,-0.217491 0.29712,-0.217491 0.04346,0 0.357298,-0.224625 0.377574,-0.270246 0.0094,-0.02123 0.04997,-0.03861 0.09008,-0.03861 0.04011,0 0.07292,-0.02009 0.07292,-0.04463 0,-0.02455 0.09216,-0.105624 0.204798,-0.180164 0.187614,-0.124157 0.248877,-0.135529 0.730147,-0.135529 0.521879,0 0.765423,0.0437 1.522226,0.273154 0.315359,0.09561 0.384223,0.137457 0.44946,0.273115 0.04237,0.08811 0.112214,0.189395 0.155203,0.225073 0.04299,0.03568 0.07816,0.08749 0.07816,0.115132 0,0.02764 0.0316,0.123254 0.07022,0.212467 0.376357,0.869349 0.461392,1.495274 0.284282,2.092531 -0.09922,0.334589 -0.224738,0.539437 -0.488886,0.797868 -0.347823,0.340295 -0.387896,0.369511 -0.647605,0.472132 -0.316133,0.124918 -1.428536,0.148789 -1.714568,0.03679 z M 12.219274,46.810816 c -0.161447,-0.01472 -0.261282,-0.06611 -0.411803,-0.212005 -0.752957,-0.729787 -0.95136,-1.086656 -0.986363,-1.774171 -0.02086,-0.409698 -0.01066,-0.476946 0.105396,-0.694918 0.07067,-0.132728 0.171452,-0.357145 0.223962,-0.498702 0.137881,-0.371708 0.677673,-0.900156 1.080141,-1.057443 0.535264,-0.209184 0.984247,-0.157934 1.704517,0.194567 0.387481,0.189633 0.484489,0.260813 0.535353,0.392812 0.03417,0.08867 0.0935,0.242286 0.131844,0.341376 0.103492,0.267424 0.223578,0.869864 0.223626,1.121878 1.03e-4,0.433104 -0.14605,0.835663 -0.480335,1.323201 -0.334035,0.487173 -0.641918,0.747304 -1.003281,0.84767 -0.181115,0.0503 -0.668889,0.05714 -1.123057,0.01573 z M 8.3599662,44.284455 c -0.116472,-0.04796 -0.243874,-0.112918 -0.283115,-0.144345 -0.03924,-0.03143 -0.218868,-0.106117 -0.399172,-0.16598 -0.670466,-0.222604 -0.973615,-0.503995 -1.156436,-1.073437 -0.155634,-0.484759 -0.0974,-1.021094 0.208529,-1.920654 0.11226,-0.330088 0.361215,-0.706743 0.534974,-0.809384 0.08184,-0.04834 0.148791,-0.106063 0.148791,-0.128271 0,-0.02221 0.03696,-0.04038 0.08214,-0.04038 0.118646,0 0.366256,-0.141286 0.664253,-0.379023 0.08493,-0.06776 0.296995,-0.163197 0.471246,-0.212086 0.268305,-0.07527 0.396084,-0.08133 0.834449,-0.03951 0.449631,0.04289 0.5556958,0.07234 0.8073878,0.224178 0.381882,0.230382 0.571864,0.420466 0.821013,0.821454 l 0.205901,0.331383 0.01773,0.674301 c 0.01508,0.573653 8.6e-4,0.734438 -0.09532,1.077203 -0.06218,0.221596 -0.139652,0.450521 -0.172159,0.508724 -0.101781,0.182231 -0.631051,0.818716 -0.864889,1.040091 -0.2084218,0.197313 -0.2536448,0.215799 -0.6612628,0.270312 -0.590793,0.07901 -0.911359,0.06949 -1.164061,-0.03458 z M 53.522585,44.171538 C 53.165408,44.064052 52.491714,43.676999 52.235516,43.432084 51.808481,43.023859 51.52792,42.65599 51.52792,42.504287 c 0,-0.130455 -0.0095,-0.134443 -0.321721,-0.135426 -0.434288,-0.0014 -1.008013,-0.108038 -1.50429,-0.279686 -1.017583,-0.351955 -2.118481,-1.030962 -2.83577,-1.749033 -0.541553,-0.542142 -0.722001,-0.927882 -0.777642,-1.662341 -0.02761,-0.364433 -0.02027,-0.427918 0.05269,-0.455917 0.04662,-0.01789 0.08477,-0.06196 0.08477,-0.09793 0,-0.03597 0.03323,-0.09298 0.07384,-0.126688 0.04061,-0.03371 0.121315,-0.152362 0.179337,-0.263679 l 0.105494,-0.202396 h -0.193603 c -0.143226,0 -0.237598,-0.04018 -0.362678,-0.154426 -0.09299,-0.08493 -0.190809,-0.154426 -0.217374,-0.154426 -0.02656,0 -0.0483,-0.0184 -0.0483,-0.0409 0,-0.02249 -0.121611,-0.132522 -0.270246,-0.244508 -0.676052,-0.509355 -1.0445,-0.982271 -1.142787,-1.466809 -0.01987,-0.09796 -0.07198,-0.275828 -0.11579,-0.395259 -0.118094,-0.321912 -0.07245,-1.046619 0.0851,-1.351271 0.304348,-0.588503 0.949846,-1.258412 1.751162,-1.817386 0.255073,-0.177931 1.527846,-0.099 2.420757,0.150128 0.774831,0.216181 1.595736,0.758153 1.595736,1.053526 0,0.103883 0.0872,0.305952 0.153102,0.354776 0.05294,0.03923 0.238915,0.40954 0.33606,0.66918 0.09952,0.265994 0.116712,1.240894 0.02722,1.543921 -0.02921,0.0989 -0.05311,0.192773 -0.05311,0.208601 0,0.01583 0.121611,0.07238 0.270246,0.125665 0.682254,0.244599 1.382664,0.841499 2.009145,1.712219 0.08657,0.120323 0.173518,0.21877 0.193213,0.21877 0.01969,0 0.0947,-0.04633 0.166687,-0.102951 0.113884,-0.08958 0.208826,-0.10295 0.731172,-0.10295 0.55144,0 0.632472,0.01296 0.995652,0.159187 0.541139,0.217885 0.73671,0.318414 0.766843,0.394173 0.01408,0.03539 0.05786,0.06434 0.0973,0.06434 0.03944,0 0.07171,0.03475 0.07171,0.07721 0,0.04247 0.02374,0.07721 0.05275,0.07721 0.02901,0 0.07528,0.05212 0.102827,0.11582 0.02754,0.0637 0.07166,0.150565 0.09803,0.193032 0.02637,0.04247 0.09949,0.193033 0.162477,0.33459 0.06298,0.141557 0.14096,0.292123 0.173271,0.33459 0.03231,0.04247 0.104027,0.204614 0.159368,0.360327 0.08462,0.238111 0.100387,0.418125 0.0992,1.132458 -0.0012,0.753929 -0.01476,0.886931 -0.1202,1.183933 -0.06534,0.184025 -0.142684,0.363386 -0.171891,0.39858 -0.02921,0.03519 -0.118718,0.202731 -0.198917,0.372305 -0.147127,0.311107 -0.305882,0.495302 -0.710916,0.824852 -0.121785,0.09909 -0.248317,0.204734 -0.281179,0.234764 -0.07491,0.06846 -1.03486,0.230024 -1.331435,0.22409 -0.121606,-0.0024 -0.284798,-0.0236 -0.36266,-0.04702 z M 40.785269,43.955251 c -0.286315,-0.205999 -0.551987,-1.228002 -0.423404,-1.62878 0.08417,-0.262343 0.184321,-0.363239 0.510656,-0.514445 0.220801,-0.102309 0.368087,-0.131829 0.66918,-0.134126 0.54439,-0.0041 0.679117,0.06587 0.870151,0.452212 0.260148,0.526124 0.290779,0.75829 0.166963,1.265505 -0.153664,0.629487 -0.174732,0.643818 -0.974053,0.662584 -0.614303,0.01442 -0.665253,0.008 -0.819493,-0.10295 z m 3.368544,-2.241688 c -0.337531,-0.623124 -0.425194,-1.165761 -0.25959,-1.606884 0.121163,-0.322746 0.216617,-0.472546 0.52593,-0.825364 0.298903,-0.340943 0.235152,-0.32963 0.956462,-0.169736 l 0.360327,0.07987 0.147952,0.315196 c 0.471308,1.004073 0.45673,1.615746 -0.04924,2.065881 -0.25522,0.227058 -0.750935,0.385541 -1.205925,0.385541 h -0.343477 z m 17.051475,-0.723355 c -0.07078,-0.04806 -0.13641,-0.104755 -0.145846,-0.125988 -0.0094,-0.02123 -0.03884,-0.03861 -0.06534,-0.03861 -0.110786,0 -0.55405,-0.401533 -0.65349,-0.591966 -0.08681,-0.166237 -0.254906,-1.104641 -0.20271,-1.131607 0.0067,-0.0034 0.08163,-0.05081 0.166569,-0.105245 0.08493,-0.05443 0.2355,-0.143084 0.33459,-0.196999 0.09909,-0.05392 0.241785,-0.147141 0.317098,-0.20717 0.365269,-0.291129 0.349796,-0.285573 0.706788,-0.253777 0.187118,0.01667 0.402764,0.06182 0.47921,0.100337 0.07645,0.03852 0.173353,0.07004 0.215342,0.07004 0.149391,0 0.586752,0.487915 0.651111,0.726374 0.132467,0.490793 0.186331,1.075264 0.0991,1.075264 -0.02951,0 -0.08163,0.02426 -0.11582,0.0539 -0.122789,0.106453 -0.625142,0.417507 -0.805116,0.498522 -0.168731,0.07595 -0.679897,0.212276 -0.801317,0.213703 -0.02831,3.09e-4 -0.109385,-0.03872 -0.180163,-0.08678 z M 3.5884042,36.257175 c -0.03435,-0.07786 -0.121811,-0.234213 -0.194349,-0.347459 -0.258634,-0.403779 -0.289714,-0.693694 -0.172051,-1.604926 0.02977,-0.230529 0.05446,-0.274867 0.182651,-0.327966 0.08153,-0.03377 0.14823,-0.08175 0.14823,-0.106629 0,-0.02488 0.02471,-0.04523 0.05491,-0.04523 0.0302,0 0.14023,-0.08087 0.244508,-0.179717 0.221385,-0.20985 0.292434,-0.21491 0.850438,-0.06057 l 0.403465,0.111597 0.184008,0.33459 c 0.236379,0.429815 0.37143,0.95411 0.371263,1.44131 l -1.55e-4,0.386065 -0.294968,0.172828 c -0.512942,0.300555 -0.741402,0.367663 -1.251632,0.367663 -0.456567,0 -0.464839,-0.0022 -0.52632,-0.141557 z M 55.192858,36.103313 c -0.176829,-0.01231 -0.282986,-0.04521 -0.301492,-0.09343 -0.01571,-0.04094 -0.05265,-0.07443 -0.0821,-0.07443 -0.02944,0 -0.152475,-0.08107 -0.273401,-0.180164 -0.120926,-0.09909 -0.234352,-0.180163 -0.252054,-0.180163 -0.06309,0 -0.45253,-0.39012 -0.627958,-0.629053 -0.384887,-0.524207 -0.447228,-0.691731 -0.445967,-1.198323 0.0012,-0.465219 0.04902,-0.623371 0.342949,-1.133317 0.123212,-0.213765 0.41343,-0.591107 0.454625,-0.591107 0.02351,0 0.04275,-0.0214 0.04275,-0.04756 0,-0.02616 0.166631,-0.214528 0.370293,-0.418594 0.504474,-0.505476 0.739814,-0.594871 1.160059,-0.440654 0.106739,0.03917 0.344638,0.111312 0.528662,0.160312 0.380388,0.101286 0.80091,0.263306 0.913482,0.35195 0.17219,0.135588 0.476353,0.432346 0.476353,0.464756 0,0.01913 0.06338,0.132777 0.140847,0.252538 0.280741,0.434021 0.324624,0.622392 0.324681,1.393795 0,0.732596 -0.09575,1.318408 -0.239052,1.461711 -0.03764,0.03764 -0.106199,0.13236 -0.152347,0.210481 -0.132703,0.224645 -0.364373,0.349049 -1.016545,0.545865 -0.59766,0.180365 -0.701826,0.191469 -1.363788,0.14539 z m 3.284236,-5.97861 c -0.426669,-0.09121 -0.559383,-0.309593 -0.723095,-1.189898 -0.183541,-0.986897 -0.183875,-1.076751 -0.0052,-1.389834 0.02423,-0.04247 0.08687,-0.16597 0.139179,-0.274451 0.08586,-0.178032 0.498307,-0.544777 0.785555,-0.698507 0.266293,-0.142515 0.516808,-0.04131 0.964489,0.389636 0.420394,0.404686 0.665648,1.020758 0.727944,1.828588 0.02651,0.343747 0.01747,0.417665 -0.0618,0.50525 -0.05107,0.05643 -0.122851,0.102597 -0.159522,0.102597 -0.03667,0 -0.154694,0.105343 -0.262267,0.234096 -0.324434,0.388298 -0.918624,0.596551 -1.405267,0.492523 z"
         id="path714" /></g></g></svg>
