<?xml version="1.0" encoding="UTF-8" standalone="no"?>
<svg
   width="250"
   height="250"
   viewBox="0 0 66.145833 66.145833"
   version="1.1"
   id="svg8"
   inkscape:version="1.2.2 (b0a8486541, 2022-12-01)"
   sodipodi:docname="stairs-spiral-square-up.svg"
   inkscape:export-filename="png/stairs-spiral-square-up.png"
   inkscape:export-xdpi="96"
   inkscape:export-ydpi="96"
   xmlns:inkscape="http://www.inkscape.org/namespaces/inkscape"
   xmlns:sodipodi="http://sodipodi.sourceforge.net/DTD/sodipodi-0.dtd"
   xmlns="http://www.w3.org/2000/svg"
   xmlns:svg="http://www.w3.org/2000/svg"
   xmlns:rdf="http://www.w3.org/1999/02/22-rdf-syntax-ns#"
   xmlns:cc="http://creativecommons.org/ns#"
   xmlns:dc="http://purl.org/dc/elements/1.1/">
  <defs
     id="defs2" />
  <sodipodi:namedview
     id="base"
     pagecolor="#ffffff"
     bordercolor="#666666"
     borderopacity="1.0"
     inkscape:pageopacity="0.0"
     inkscape:pageshadow="2"
     inkscape:zoom="2.8284272"
     inkscape:cx="75.30687"
     inkscape:cy="119.50104"
     inkscape:document-units="px"
     inkscape:current-layer="g4287"
     inkscape:document-rotation="0"
     showgrid="false"
     inkscape:window-width="1920"
     inkscape:window-height="1027"
     inkscape:window-x="0"
     inkscape:window-y="0"
     inkscape:window-maximized="1"
     units="px"
     fit-margin-top="0"
     fit-margin-left="0"
     fit-margin-right="0"
     fit-margin-bottom="0"
     showborder="true"
     inkscape:showpageshadow="true"
     showguides="true"
     inkscape:guide-bbox="true"
     inkscape:lockguides="false"
     inkscape:pagecheckerboard="true"
     inkscape:deskcolor="#d1d1d1">
    <sodipodi:guide
       position="9.2411051,60.308786"
       orientation="1,0"
       id="guide938"
       inkscape:locked="false" />
    <sodipodi:guide
       position="56.873751,59.111806"
       orientation="1,0"
       id="guide940"
       inkscape:locked="false" />
    <sodipodi:guide
       position="20.800776,56.431375"
       orientation="0,-1"
       id="guide942"
       inkscape:locked="false" />
    <sodipodi:guide
       position="52.614665,9.2823182"
       orientation="0,-1"
       id="guide944"
       inkscape:locked="false" />
    <sodipodi:guide
       position="33.067943,65.761536"
       orientation="1,0"
       id="guide2690"
       inkscape:locked="false" />
    <sodipodi:guide
       position="6.4672111,33.0726"
       orientation="0,-1"
       id="guide2692"
       inkscape:locked="false" />
  </sodipodi:namedview>
  <metadata
     id="metadata5">
    <rdf:RDF>
      <cc:Work
         rdf:about="">
        <dc:format>image/svg+xml</dc:format>
        <dc:type
           rdf:resource="http://purl.org/dc/dcmitype/StillImage" />
      </cc:Work>
    </rdf:RDF>
  </metadata>
  <g
     inkscape:label="Layer 1"
     inkscape:groupmode="layer"
     id="layer1"
     transform="translate(-0.08041364,-0.51138639)">
    <g
       id="g4287"
       transform="matrix(0.85261813,0,0,0.85261813,4.8425164,4.7654928)">
      <path
         id="rect2617"
         style="fill:#ffffff;fill-rule:evenodd;stroke-width:7.44765;stroke-linecap:round;stroke-linejoin:round;paint-order:markers stroke fill"
         d="M 9.0245573 9.8500735 L 9.0245573 57.750671 L 57.384572 57.750671 L 57.384572 33.800978 L 33.204565 33.800978 L 33.204565 9.8500735 L 9.0245573 9.8500735 z " />
      <g
         id="g7007">
        <path
           id="rect5069"
           style="display:none;fill:#ffd433;fill-opacity:1;stroke-width:1.24127;stroke-linecap:square;paint-order:markers fill stroke"
           d="m 13.67974,8.6384974 h 38.915703 c 3.293835,0 5.945551,2.6517156 5.945551,5.9455506 v 38.433255 c 0,3.293835 -2.651716,5.94555 -5.945551,5.94555 H 13.67974 c -3.293835,0 -5.9455505,-2.651715 -5.9455505,-5.94555 V 14.584048 c 0,-3.293835 2.6517155,-5.9455506 5.9455505,-5.9455506 z" />
      </g>
      <path
         id="rect3393"
         style="color:#000000;fill:#000000;stroke:none;stroke-width:1.24127;stroke-linecap:round;stroke-miterlimit:4;stroke-dasharray:none;stroke-opacity:1"
         d="M 7.7341892 8.6384972 L 7.7341892 10.226456 L 7.7341892 58.962853 L 58.540994 58.962853 L 58.540994 32.371815 L 34.276134 32.371815 L 34.276134 32.311206 L 34.263406 32.311206 L 34.263406 11.812597 L 34.276134 11.812597 L 34.276134 8.6384972 L 7.7341892 8.6384972 z M 13.065367 11.812597 L 31.963896 11.812597 L 31.963896 30.709913 L 13.065367 11.812597 z M 10.908289 13.021749 L 30.279569 32.392422 L 10.908289 32.392422 L 10.908289 13.021749 z M 10.908289 34.774967 L 30.279569 34.774967 L 10.908289 54.145641 L 10.908289 34.774967 z M 36.028343 34.774967 L 55.366894 34.774967 L 55.366894 54.112912 L 36.028343 34.774967 z M 31.963896 36.458688 L 31.963896 55.786935 L 12.635649 55.786935 L 31.963896 36.458688 z M 34.344016 36.458688 L 53.672263 55.786935 L 34.344016 55.786935 L 34.344016 36.458688 z " />
      <g
         aria-label="U"
         id="text3634"
         style="font-weight:bold;font-size:22.5778px;line-height:1.25;font-family:'Source Code Pro';-inkscape-font-specification:'Source Code Pro Bold';letter-spacing:0px;fill:#000000;fill-opacity:1;stroke:none;stroke-width:1.24127"
         transform="translate(-19.001293,-1.4000611)">
        <path
           d="m 65.458377,29.401061 c 3.567292,0 5.283205,-2.122314 5.283205,-5.937962 v -9.053698 h -3.206047 v 9.392365 c 0,1.761068 -0.677334,2.731914 -2.077158,2.731914 -1.399824,0 -2.05458,-0.970846 -2.05458,-2.731914 V 14.409401 H 60.08486 v 9.053698 c 0,3.815648 1.783647,5.937962 5.373517,5.937962 z"
           id="path834"
           style="fill:#000000;fill-opacity:1;stroke:none" />
      </g>
    </g>
  </g>
</svg>
