<?xml version="1.0" encoding="UTF-8" standalone="no"?>
<svg
   width="250"
   height="250"
   viewBox="0 0 66.145833 66.145833"
   version="1.1"
   id="svg8"
   inkscape:version="1.2.2 (b0a8486541, 2022-12-01)"
   sodipodi:docname="stairs-spiral-round-up.svg"
   inkscape:export-filename="png/stairs-spiral-round-up.png"
   inkscape:export-xdpi="96"
   inkscape:export-ydpi="96"
   xmlns:inkscape="http://www.inkscape.org/namespaces/inkscape"
   xmlns:sodipodi="http://sodipodi.sourceforge.net/DTD/sodipodi-0.dtd"
   xmlns="http://www.w3.org/2000/svg"
   xmlns:svg="http://www.w3.org/2000/svg"
   xmlns:rdf="http://www.w3.org/1999/02/22-rdf-syntax-ns#"
   xmlns:cc="http://creativecommons.org/ns#"
   xmlns:dc="http://purl.org/dc/elements/1.1/">
  <defs
     id="defs2">
    <rect
       x="-109.40839"
       y="-71.490522"
       width="397.04651"
       height="351.91655"
       id="rect6392" />
  </defs>
  <sodipodi:namedview
     id="base"
     pagecolor="#ffffff"
     bordercolor="#666666"
     borderopacity="1.0"
     inkscape:pageopacity="0.0"
     inkscape:pageshadow="2"
     inkscape:zoom="1.979899"
     inkscape:cx="113.13708"
     inkscape:cy="129.8046"
     inkscape:document-units="px"
     inkscape:current-layer="layer1"
     inkscape:document-rotation="0"
     showgrid="false"
     inkscape:window-width="1920"
     inkscape:window-height="1027"
     inkscape:window-x="0"
     inkscape:window-y="0"
     inkscape:window-maximized="1"
     units="px"
     fit-margin-top="0"
     fit-margin-left="0"
     fit-margin-right="0"
     fit-margin-bottom="0"
     showborder="true"
     inkscape:showpageshadow="true"
     showguides="true"
     inkscape:guide-bbox="true"
     inkscape:lockguides="false"
     inkscape:pagecheckerboard="true"
     inkscape:deskcolor="#d1d1d1">
    <sodipodi:guide
       position="9.2411051,60.308786"
       orientation="1,0"
       id="guide938"
       inkscape:locked="false" />
    <sodipodi:guide
       position="56.873751,59.111806"
       orientation="1,0"
       id="guide940"
       inkscape:locked="false" />
    <sodipodi:guide
       position="5.934793,56.881421"
       orientation="0,-1"
       id="guide942"
       inkscape:locked="false" />
    <sodipodi:guide
       position="52.614665,9.2823182"
       orientation="0,-1"
       id="guide944"
       inkscape:locked="false" />
  </sodipodi:namedview>
  <metadata
     id="metadata5">
    <rdf:RDF>
      <cc:Work
         rdf:about="">
        <dc:format>image/svg+xml</dc:format>
        <dc:type
           rdf:resource="http://purl.org/dc/dcmitype/StillImage" />
      </cc:Work>
    </rdf:RDF>
  </metadata>
  <g
     inkscape:label="Layer 1"
     inkscape:groupmode="layer"
     id="layer1"
     transform="translate(-0.08041364,-0.51138639)">
    <path
       id="path2725"
       style="fill:#ffffff;fill-rule:evenodd;stroke:none;stroke-width:6.35;stroke-linecap:round;stroke-linejoin:round;paint-order:markers stroke fill"
       d="M 32.787978 9.7888562 A 23.816322 23.799551 0 0 0 9.32171 33.575518 A 23.816322 23.799551 0 0 0 33.137827 57.375099 A 23.816322 23.799551 0 0 0 56.94826 33.735198 L 32.787978 33.735198 L 32.787978 9.7888562 z " />
    <path
       style="fill:none;stroke:#000000;stroke-width:12.00000009;stroke-linecap:round;stroke-miterlimit:4;stroke-dasharray:none;fill-opacity:1"
       d="m 125.57031,126.38086 -0.49804,88.57031 a 90.014447,89.951059 0 0 0 63.28125,-26.05078 z"
       transform="matrix(0.26458333,0,0,0.26458333,0.08041364,0.51138639)"
       id="path2203" />
    <path
       style="fill:none;stroke:#000000;stroke-width:12.00000009;stroke-linecap:round;stroke-miterlimit:4;stroke-dasharray:none;fill-opacity:1"
       d="m 124.42578,126.37891 -63.001952,62.29882 a 90.014447,89.951059 0 0 0 63.189452,26.27149 z"
       transform="matrix(0.26458333,0,0,0.26458333,0.08041364,0.51138639)"
       id="path2201" />
    <path
       style="fill:none;stroke:#000000;stroke-width:12.00000009;stroke-linecap:round;stroke-miterlimit:4;stroke-dasharray:none;fill-opacity:1"
       d="m 215.01367,125.38672 -88.63476,0.1875 62.29882,63.00195 a 90.014447,89.951059 0 0 0 26.33594,-63.18945 z"
       transform="matrix(0.26458333,0,0,0.26458333,0.08041364,0.51138639)"
       id="path2199" />
    <path
       style="fill:none;stroke:#000000;stroke-width:12.00000009;stroke-linecap:round;stroke-miterlimit:4;stroke-dasharray:none;fill-opacity:1"
       d="m 34.986328,125.07227 a 90.014447,89.951059 0 0 0 26.113281,63.28125 l 62.519531,-62.78321 z"
       transform="matrix(0.26458333,0,0,0.26458333,0.08041364,0.51138639)"
       id="path2197" />
    <path
       style="fill:none;stroke:#000000;stroke-width:12.00000009;stroke-linecap:round;stroke-miterlimit:4;stroke-dasharray:none;fill-opacity:1"
       d="M 61.322266,61.423828 A 90.014447,89.951059 0 0 0 34.986328,124.61328 l 88.634762,-0.1875 z"
       transform="matrix(0.26458333,0,0,0.26458333,0.08041364,0.51138639)"
       id="path2193" />
    <path
       style="fill:none;stroke:#000000;stroke-width:12.00000009;stroke-linecap:round;stroke-miterlimit:4;stroke-dasharray:none;fill-opacity:1"
       d="M 124.8418,35.048828 A 90.014447,89.951059 0 0 0 61.646484,61.099609 l 62.783206,62.519531 0.49804,-88.570312 a 90.014447,89.951059 0 0 0 -0.0859,0 z"
       transform="matrix(0.26458333,0,0,0.26458333,0.08041364,0.51138639)"
       id="path1621" />
    <path
       d="m 45.547699,28.029234 c 3.965057,0 5.8723,-2.358958 5.8723,-6.600064 V 11.365954 h -3.563533 v 10.439645 c 0,1.957434 -0.752859,3.036532 -2.308767,3.036532 -1.555909,0 -2.283673,-1.079098 -2.283673,-3.036532 V 11.365954 H 39.575017 V 21.42917 c 0,4.241106 1.982529,6.600064 5.972682,6.600064 z"
       style="font-weight:bold;font-size:25.0953px;line-height:1.25;font-family:'Source Code Pro';-inkscape-font-specification:'Source Code Pro Bold';letter-spacing:0px;fill:#000000;stroke:none;stroke-width:1.5875;fill-opacity:1"
       id="path837" />
    <g
       transform="matrix(0.26458333,0,0,0.26458333,0.08041364,0.51138639)"
       id="text6390"
       style="font-size:12px;font-family:'Source Code Pro';-inkscape-font-specification:'Source Code Pro';text-align:center;white-space:pre;shape-inside:url(#rect6392);fill:#ffff00;stroke:#000000;stroke-width:4;stroke-linecap:square;paint-order:markers fill stroke" />
  </g>
</svg>
