<?xml version="1.0" encoding="UTF-8" standalone="no"?>
<svg
   width="250"
   height="250"
   viewBox="0 0 66.145833 66.145833"
   version="1.1"
   id="svg8"
   inkscape:version="1.2.2 (b0a8486541, 2022-12-01)"
   sodipodi:docname="statue-large.svg"
   inkscape:export-filename="png/yellow/256/statue-large.png"
   inkscape:export-xdpi="96"
   inkscape:export-ydpi="96"
   xmlns:inkscape="http://www.inkscape.org/namespaces/inkscape"
   xmlns:sodipodi="http://sodipodi.sourceforge.net/DTD/sodipodi-0.dtd"
   xmlns="http://www.w3.org/2000/svg"
   xmlns:svg="http://www.w3.org/2000/svg"
   xmlns:rdf="http://www.w3.org/1999/02/22-rdf-syntax-ns#"
   xmlns:cc="http://creativecommons.org/ns#"
   xmlns:dc="http://purl.org/dc/elements/1.1/">
  <defs
     id="defs2">
    <rect
       x="9.3215187"
       y="9.7757984"
       width="47.632646"
       height="47.599103"
       id="rect1569" />
    <clipPath
       clipPathUnits="userSpaceOnUse"
       id="clipPath4425">
      <g
         id="g4429">
        <path
           d="M 0.89466664,38.430692 H 816.89465 V 1094.4307 H 0.89466664 Z"
           id="path4427"
           style="stroke-width:1.33333" />
      </g>
    </clipPath>
    <clipPath
       clipPathUnits="userSpaceOnUse"
       id="clipPath4419">
      <g
         id="g4423">
        <path
           d="M 0.89466664,38.430692 H 816.89465 V 1094.4307 H 0.89466664 Z"
           id="path4421"
           style="stroke-width:1.33333" />
      </g>
    </clipPath>
    <clipPath
       clipPathUnits="userSpaceOnUse"
       id="clipPath4437">
      <g
         id="g4441">
        <path
           d="M 0.89466664,38.430692 H 816.89465 V 1094.4307 H 0.89466664 Z"
           id="path4439"
           style="stroke-width:1.33333" />
      </g>
    </clipPath>
    <clipPath
       clipPathUnits="userSpaceOnUse"
       id="clipPath4413">
      <g
         id="g4417">
        <path
           d="M 0.89466664,38.430692 H 816.89465 V 1094.4307 H 0.89466664 Z"
           id="path4415"
           style="stroke-width:1.33333" />
      </g>
    </clipPath>
    <clipPath
       clipPathUnits="userSpaceOnUse"
       id="clipPath4407">
      <g
         id="g4411">
        <path
           d="M 0.89466664,38.430692 H 816.89465 V 1094.4307 H 0.89466664 Z"
           id="path4409"
           style="stroke-width:1.33333" />
      </g>
    </clipPath>
    <clipPath
       clipPathUnits="userSpaceOnUse"
       id="clipPath4401">
      <g
         id="g4405">
        <path
           d="M 0.89466664,38.430692 H 816.89465 V 1094.4307 H 0.89466664 Z"
           id="path4403"
           style="stroke-width:1.33333" />
      </g>
    </clipPath>
    <clipPath
       clipPathUnits="userSpaceOnUse"
       id="clipPath4395">
      <g
         id="g4399">
        <path
           d="M 0.89466664,38.430692 H 816.89465 V 1094.4307 H 0.89466664 Z"
           id="path4397"
           style="stroke-width:1.33333" />
      </g>
    </clipPath>
    <clipPath
       clipPathUnits="userSpaceOnUse"
       id="clipPath4389">
      <g
         id="g4393">
        <path
           d="M 0.89466664,38.430692 H 816.89465 V 1094.4307 H 0.89466664 Z"
           id="path4391"
           style="stroke-width:1.33333" />
      </g>
    </clipPath>
    <clipPath
       clipPathUnits="userSpaceOnUse"
       id="clipPath4383">
      <g
         id="g4387">
        <path
           d="M 0.89466664,38.430692 H 816.89465 V 1094.4307 H 0.89466664 Z"
           id="path4385"
           style="stroke-width:1.33333" />
      </g>
    </clipPath>
    <clipPath
       clipPathUnits="userSpaceOnUse"
       id="clipPath4377">
      <g
         id="g4381">
        <path
           d="M 0.89466664,38.430692 H 816.89465 V 1094.4307 H 0.89466664 Z"
           id="path4379"
           style="stroke-width:1.33333" />
      </g>
    </clipPath>
    <clipPath
       clipPathUnits="userSpaceOnUse"
       id="clipPath4371">
      <g
         id="g4375">
        <path
           d="M 0.89466664,38.430692 H 816.89465 V 1094.4307 H 0.89466664 Z"
           id="path4373"
           style="stroke-width:1.33333" />
      </g>
    </clipPath>
    <clipPath
       clipPathUnits="userSpaceOnUse"
       id="clipPath4341">
      <g
         id="g4345">
        <path
           d="M 0.89466664,38.430692 H 816.89465 V 1094.4307 H 0.89466664 Z"
           id="path4343"
           style="stroke-width:1.33333" />
      </g>
    </clipPath>
    <clipPath
       clipPathUnits="userSpaceOnUse"
       id="clipPath4335">
      <g
         id="g4339">
        <path
           d="M 0.89466664,38.430692 H 816.89465 V 1094.4307 H 0.89466664 Z"
           id="path4337"
           style="stroke-width:1.33333" />
      </g>
    </clipPath>
    <clipPath
       clipPathUnits="userSpaceOnUse"
       id="clipPath4329">
      <g
         id="g4333">
        <path
           d="M 0.89466664,38.430692 H 816.89465 V 1094.4307 H 0.89466664 Z"
           id="path4331"
           style="stroke-width:1.33333" />
      </g>
    </clipPath>
    <clipPath
       clipPathUnits="userSpaceOnUse"
       id="clipPath4323">
      <g
         id="g4327">
        <path
           d="M 0.89466664,38.430692 H 816.89465 V 1094.4307 H 0.89466664 Z"
           id="path4325"
           style="stroke-width:1.33333" />
      </g>
    </clipPath>
    <clipPath
       clipPathUnits="userSpaceOnUse"
       id="clipPath4317">
      <g
         id="g4321">
        <path
           d="M 0.89466664,38.430692 H 816.89465 V 1094.4307 H 0.89466664 Z"
           id="path4319"
           style="stroke-width:1.33333" />
      </g>
    </clipPath>
    <clipPath
       clipPathUnits="userSpaceOnUse"
       id="clipPath4311">
      <g
         id="g4315">
        <path
           d="M 0.89466664,38.430692 H 816.89465 V 1094.4307 H 0.89466664 Z"
           id="path4313"
           style="stroke-width:1.33333" />
      </g>
    </clipPath>
    <clipPath
       clipPathUnits="userSpaceOnUse"
       id="clipPath4305">
      <g
         id="g4309">
        <path
           d="M 0.89466664,38.430692 H 816.89465 V 1094.4307 H 0.89466664 Z"
           id="path4307"
           style="stroke-width:1.33333" />
      </g>
    </clipPath>
    <clipPath
       clipPathUnits="userSpaceOnUse"
       id="clipPath6117">
      <g
         id="g6121">
        <path
           d="M 0.89466664,38.430692 H 816.89465 V 1094.4307 H 0.89466664 Z"
           id="path6119"
           style="stroke-width:1.33333" />
      </g>
    </clipPath>
    <clipPath
       clipPathUnits="userSpaceOnUse"
       id="clipPath6111">
      <g
         id="g6115">
        <path
           d="M 0.89466664,38.430692 H 816.89465 V 1094.4307 H 0.89466664 Z"
           id="path6113"
           style="stroke-width:1.33333" />
      </g>
    </clipPath>
    <clipPath
       clipPathUnits="userSpaceOnUse"
       id="clipPath6105">
      <g
         id="g6109">
        <path
           d="M 0.89466664,38.430692 H 816.89465 V 1094.4307 H 0.89466664 Z"
           id="path6107"
           style="stroke-width:1.33333" />
      </g>
    </clipPath>
    <clipPath
       clipPathUnits="userSpaceOnUse"
       id="clipPath6099">
      <g
         id="g6103">
        <path
           d="M 0.89466664,38.430692 H 816.89465 V 1094.4307 H 0.89466664 Z"
           id="path6101"
           style="stroke-width:1.33333" />
      </g>
    </clipPath>
    <clipPath
       clipPathUnits="userSpaceOnUse"
       id="clipPath6093">
      <g
         id="g6097">
        <path
           d="M 0.89466664,38.430692 H 816.89465 V 1094.4307 H 0.89466664 Z"
           id="path6095"
           style="stroke-width:1.33333" />
      </g>
    </clipPath>
    <clipPath
       clipPathUnits="userSpaceOnUse"
       id="clipPath6087">
      <g
         id="g6091">
        <path
           d="M 0.89466664,38.430692 H 816.89465 V 1094.4307 H 0.89466664 Z"
           id="path6089"
           style="stroke-width:1.33333" />
      </g>
    </clipPath>
    <clipPath
       clipPathUnits="userSpaceOnUse"
       id="clipPath6081">
      <g
         id="g6085">
        <path
           d="M 0.89466664,38.430692 H 816.89465 V 1094.4307 H 0.89466664 Z"
           id="path6083"
           style="stroke-width:1.33333" />
      </g>
    </clipPath>
    <clipPath
       clipPathUnits="userSpaceOnUse"
       id="clipPath6075">
      <g
         id="g6079">
        <path
           d="M 0.89466664,38.430692 H 816.89465 V 1094.4307 H 0.89466664 Z"
           id="path6077"
           style="stroke-width:1.33333" />
      </g>
    </clipPath>
  </defs>
  <sodipodi:namedview
     id="base"
     pagecolor="#ffffff"
     bordercolor="#666666"
     borderopacity="1.0"
     inkscape:pageopacity="0.0"
     inkscape:pageshadow="2"
     inkscape:zoom="1.979899"
     inkscape:cx="131.82491"
     inkscape:cy="129.8046"
     inkscape:document-units="px"
     inkscape:current-layer="layer1"
     inkscape:document-rotation="0"
     showgrid="false"
     inkscape:window-width="1920"
     inkscape:window-height="1027"
     inkscape:window-x="0"
     inkscape:window-y="0"
     inkscape:window-maximized="1"
     units="px"
     fit-margin-top="0"
     fit-margin-left="0"
     fit-margin-right="0"
     fit-margin-bottom="0"
     showborder="true"
     inkscape:showpageshadow="true"
     showguides="true"
     inkscape:guide-bbox="true"
     inkscape:lockguides="false"
     inkscape:pagecheckerboard="true"
     inkscape:deskcolor="#d1d1d1">
    <sodipodi:guide
       position="9.2411051,60.308786"
       orientation="1,0"
       id="guide938"
       inkscape:locked="false" />
    <sodipodi:guide
       position="56.873751,59.111806"
       orientation="1,0"
       id="guide940"
       inkscape:locked="false" />
    <sodipodi:guide
       position="5.934793,56.881421"
       orientation="0,-1"
       id="guide942"
       inkscape:locked="false" />
    <sodipodi:guide
       position="52.614665,9.2823182"
       orientation="0,-1"
       id="guide944"
       inkscape:locked="false" />
  </sodipodi:namedview>
  <metadata
     id="metadata5">
    <rdf:RDF>
      <cc:Work
         rdf:about="">
        <dc:format>image/svg+xml</dc:format>
        <dc:type
           rdf:resource="http://purl.org/dc/dcmitype/StillImage" />
      </cc:Work>
    </rdf:RDF>
  </metadata>
  <g
     inkscape:label="Layer 1"
     inkscape:groupmode="layer"
     id="layer1"
     transform="translate(-0.08041364,-0.51138639)">
    <path
       d="m 687.70665,733.22267 c 0,0 -0.228,-5.90533 1.58933,-6.13066 1.816,-0.228 2.49867,-0.45467 2.72534,0.68 0.22666,1.136 2.04266,2.49866 2.04266,2.49866"
       style="fill:none;stroke:#000000;stroke-width:1.33333;stroke-linecap:butt;stroke-linejoin:round;stroke-miterlimit:4;stroke-dasharray:none;stroke-opacity:1"
       id="path1206"
       clip-path="url(#clipPath6105)"
       transform="matrix(1.705472,0,0,-1.705472,-1154.4416,1285.9014)" />
    <path
       d="m 705.58798,733.22267 c 0,0 0.22667,-5.90533 -1.58933,-6.13066 -1.816,-0.228 -2.49867,-0.45467 -2.72533,0.68 -0.22667,1.136 -2.04267,2.49866 -2.04267,2.49866"
       style="fill:none;stroke:#000000;stroke-width:1.33333;stroke-linecap:butt;stroke-linejoin:round;stroke-miterlimit:4;stroke-dasharray:none;stroke-opacity:1"
       id="path1208"
       clip-path="url(#clipPath6099)"
       transform="matrix(1.705472,0,0,-1.705472,-1154.4416,1285.9014)" />
    <path
       d="m 696.64665,741.68534 c 2.044,0 5.592,-0.744 6.72667,-0.97067 1.136,-0.228 1.81733,0 4.99466,-1.136 3.17867,-1.13466 -0.45333,-5.22133 -2.044,-6.12933 -1.58933,-0.90933 -1.588,0 -3.63066,-1.58933 -2.044,-1.58934 -2.952,-1.81734 -6.35867,-1.81734 -3.40667,0 -4.31467,0.228 -6.35733,1.81734 -2.044,1.58933 -2.04267,0.68 -3.632,1.58933 -1.58934,0.908 -5.22267,4.99467 -2.044,6.12933 3.17733,1.136 3.85866,0.908 4.99466,1.136 1.13467,0.22667 5.308,0.97067 7.35067,0.97067"
       style="fill:none;fill-opacity:1;fill-rule:nonzero;stroke:#000000;stroke-width:1.33333"
       id="path1210"
       clip-path="url(#clipPath6093)"
       transform="matrix(1.705472,0,0,-1.705472,-1154.4416,1285.9014)" />
    <path
       d="m 696.64665,741.68534 c 2.044,0 5.592,-0.744 6.72667,-0.97067 1.136,-0.228 1.81733,0 4.99466,-1.136 3.17867,-1.13466 -0.45333,-5.22133 -2.044,-6.12933 -1.58933,-0.90933 -1.588,0 -3.63066,-1.58933 -2.044,-1.58934 -2.952,-1.81734 -6.35867,-1.81734 -3.40667,0 -4.31467,0.228 -6.35733,1.81734 -2.044,1.58933 -2.04267,0.68 -3.632,1.58933 -1.58934,0.908 -5.22267,4.99467 -2.044,6.12933 3.17733,1.136 3.85866,0.908 4.99466,1.136 1.13467,0.22667 5.308,0.97067 7.35067,0.97067 z"
       style="fill:none;stroke:#000000;stroke-width:1.33333;stroke-linecap:butt;stroke-linejoin:round;stroke-miterlimit:4;stroke-dasharray:none;stroke-opacity:1"
       id="path1212"
       clip-path="url(#clipPath6087)"
       transform="matrix(1.705472,0,0,-1.705472,-1154.4416,1285.9014)" />
    <path
       d="m 696.64665,740.74267 c 1.81733,0 4.088,-1.13466 4.088,-2.95066 0,-1.81867 -0.68133,-3.86 -1.58933,-4.54267 -0.90934,-0.68 -0.908,-0.90667 -2.49867,-0.90667 -1.58933,0 -1.588,0.22667 -2.49733,0.90667 -0.908,0.68267 -1.58934,2.724 -1.58934,4.54267 0,1.816 2.27067,2.95066 4.08667,2.95066"
       style="fill:none;fill-opacity:1;fill-rule:nonzero;stroke:#000000;stroke-width:1.33333"
       id="path1214"
       clip-path="url(#clipPath6081)"
       transform="matrix(1.705472,0,0,-1.705472,-1154.4416,1285.9014)" />
    <path
       d="m 696.64665,740.74267 c 1.81733,0 4.088,-1.13466 4.088,-2.95066 0,-1.81867 -0.68133,-3.86 -1.58933,-4.54267 -0.90934,-0.68 -0.908,-0.90667 -2.49867,-0.90667 -1.58933,0 -1.588,0.22667 -2.49733,0.90667 -0.908,0.68267 -1.58934,2.724 -1.58934,4.54267 0,1.816 2.27067,2.95066 4.08667,2.95066 z"
       style="fill:none;stroke:#000000;stroke-width:1.33333;stroke-linecap:butt;stroke-linejoin:round;stroke-miterlimit:4;stroke-dasharray:none;stroke-opacity:1"
       id="path1216"
       clip-path="url(#clipPath6075)"
       transform="matrix(1.705472,0,0,-1.705472,-1154.4416,1285.9014)" />
  </g>
</svg>
