<?xml version="1.0" encoding="UTF-8" standalone="no"?>
<svg
   xmlns:dc="http://purl.org/dc/elements/1.1/"
   xmlns:cc="http://creativecommons.org/ns#"
   xmlns:rdf="http://www.w3.org/1999/02/22-rdf-syntax-ns#"
   xmlns:svg="http://www.w3.org/2000/svg"
   xmlns="http://www.w3.org/2000/svg"
   xmlns:sodipodi="http://sodipodi.sourceforge.net/DTD/sodipodi-0.dtd"
   xmlns:inkscape="http://www.inkscape.org/namespaces/inkscape"
   width="250"
   height="250"
   viewBox="0 0 66.145833 66.145833"
   version="1.1"
   id="svg8"
   inkscape:version="1.0.2 (e86c870879, 2021-01-15)"
   sodipodi:docname="tracker.svg">
  <defs
     id="defs2" />
  <sodipodi:namedview
     id="base"
     pagecolor="#ffffff"
     bordercolor="#666666"
     borderopacity="1.0"
     inkscape:pageopacity="0.0"
     inkscape:pageshadow="2"
     inkscape:zoom="2"
     inkscape:cx="80.03492"
     inkscape:cy="148.93897"
     inkscape:document-units="px"
     inkscape:current-layer="layer1"
     inkscape:document-rotation="0"
     showgrid="false"
     inkscape:window-width="1920"
     inkscape:window-height="1027"
     inkscape:window-x="0"
     inkscape:window-y="0"
     inkscape:window-maximized="1"
     units="px"
     fit-margin-top="0"
     fit-margin-left="0"
     fit-margin-right="0"
     fit-margin-bottom="0"
     showborder="true"
     inkscape:showpageshadow="true"
     showguides="true"
     inkscape:guide-bbox="true"
     inkscape:lockguides="false">
    <sodipodi:guide
       position="9.2411051,60.308786"
       orientation="1,0"
       id="guide938"
       inkscape:locked="false" />
    <sodipodi:guide
       position="56.873751,59.111806"
       orientation="1,0"
       id="guide940"
       inkscape:locked="false" />
    <sodipodi:guide
       position="5.934793,56.881421"
       orientation="0,-1"
       id="guide942"
       inkscape:locked="false" />
    <sodipodi:guide
       position="52.614665,9.2823182"
       orientation="0,-1"
       id="guide944"
       inkscape:locked="false" />
  </sodipodi:namedview>
  <metadata
     id="metadata5">
    <rdf:RDF>
      <cc:Work
         rdf:about="">
        <dc:format>image/svg+xml</dc:format>
        <dc:type
           rdf:resource="http://purl.org/dc/dcmitype/StillImage" />
        <dc:title></dc:title>
      </cc:Work>
    </rdf:RDF>
  </metadata>
  <g
     inkscape:label="Layer 1"
     inkscape:groupmode="layer"
     id="layer1"
     transform="translate(-0.08041364,-0.51138639)">
    <path
       id="path2657"
       style="fill:none;stroke:#000000;stroke-width:2.04522;stroke-linecap:round;stroke-miterlimit:4;stroke-dasharray:none;stroke-dashoffset:0"
       d="M 65.203636,33.584301 A 32.050304,32.050308 0 0 1 33.153332,65.634609 32.050304,32.050308 0 0 1 1.1030273,33.584301 32.050304,32.050308 0 0 1 33.153332,1.5339928 32.050304,32.050308 0 0 1 65.203636,33.584301 Z M 33.0201,2.7355028 V 33.361948 l 0.126124,0.07241 0.132707,-0.07647 V 2.7355028 A 30.856256,30.849463 0 0 0 33.153315,2.7349963 30.856256,30.849463 0 0 0 33.0201,2.7355028 Z m 0,0 A 30.856256,30.849463 0 0 0 6.4942628,18.050751 L 33.0201,33.361948 Z m 0,30.6264452 v 0.154959 l 0.07091,-0.04102 0.05116,0.08812 -0.0547,-0.09572 0.05876,-0.03393 z m 0,0 L 6.4942628,18.050751 a 30.856256,30.849463 0 0 0 -0.130175,0.225858 L 32.893472,33.58983 33.0201,33.51692 Z m 0,0.154959 v 0.06837 h 0.0096 v -0.0021 h 0.123593 l -0.01115,-0.01924 -0.05116,-0.08812 z m 0,0 -0.126628,0.07292 0.136254,0.0785 v -0.08305 h -0.0096 z m 0.0096,0.06837 h 0.123593 l 5.17e-4,-0.0011 -5.17e-4,-0.0011 h -0.12359 z m 0,0 v 0.08305 l 0.05775,0.03342 0.0051,-0.0086 -0.0016,-5.18e-4 0.06235,-0.107345 z m 0.12359,0 -0.0623,0.107357 0.0016,5.18e-4 0.06179,-0.107358 v -5.17e-4 z m 0.0011,0 v 5.17e-4 l 0.06129,0.106852 0.0011,-5.19e-4 -0.06178,-0.10685 z m 5.19e-4,0 h 0.124098 v -0.0021 h -0.123084 z m 0,0 0.06178,0.10685 0.07142,-0.04152 v -0.06735 h -0.0091 v 0.0021 z m 0.124098,-0.0021 v -0.08155 l -0.05775,-0.03343 -0.004,0.007 5.17e-4,5.2e-4 -0.06178,0.107357 z m 0,0 h 0.0091 v 0.06735 l 0.124555,-0.07186 -0.133718,-0.07698 z m 0,-0.08155 v -0.143814 l -0.132707,0.07647 0.07091,0.04102 0.004,-0.007 z m 0,0 0.133685,0.07702 26.525345,-15.310655 A 30.856256,30.849463 0 0 0 59.808346,18.043654 L 33.278965,33.357887 Z m 0,-0.143821 26.529289,-15.314202 A 30.856256,30.849463 0 0 0 33.278931,2.7355028 Z M 59.938014,18.267994 33.412684,33.578686 59.942574,48.891908 A 30.856256,30.849463 0 0 0 64.009405,33.584256 30.856256,30.849463 0 0 0 59.938014,18.267994 Z m 0.0046,30.623914 -26.52989,-15.313222 -0.124602,0.07191 v 0.155972 l 26.524787,15.310188 a 30.856256,30.849463 0 0 0 0.129668,-0.224845 z M 59.812871,49.116758 33.288048,33.806573 V 64.433021 A 30.856256,30.849463 0 0 0 59.812871,49.116758 Z M 33.288048,64.433021 V 33.806573 l -0.125616,-0.07241 -0.132706,0.07647 V 64.43303 a 30.856256,30.849463 0 0 0 0.123589,5.2e-4 30.856256,30.849463 0 0 0 0.134733,-5.2e-4 z m -0.258322,0 V 33.810626 L 6.4988214,49.125876 A 30.856256,30.849463 0 0 0 33.029726,64.433021 Z M 6.4988214,49.125876 33.029726,33.810626 V 33.668325 L 32.893472,33.589825 6.3691529,48.90153 a 30.856256,30.849463 0 0 0 0.1296685,0.224341 z M 6.3691529,48.901535 32.893472,33.58983 6.3640878,18.276609 A 30.856256,30.849463 0 0 0 2.2972555,33.584261 30.856256,30.849463 0 0 0 6.3691529,48.901535 Z M 33.029726,33.668325 v 0.142301 l 0.132706,-0.07647 -0.0699,-0.04103 -0.0051,0.0086 z m 0.0628,0.02481 0.0699,0.04102 0.05875,-0.03393 -0.0046,-0.0081 -0.0011,5.2e-4 -0.06129,-0.106851 z m 0.124098,-0.0011 0.0046,0.0081 -0.05875,0.03393 0.125616,0.07241 v -0.155964 z m 5.18e-4,-0.216742 -0.0628,0.107863 h 0.0016 l 0.06179,-0.107358 z m 0,0 -0.07091,-0.04103 -0.05876,0.03393 0.0547,0.09572 0.01115,0.01924 h 0.0011 z" />
  </g>
</svg>
