<?xml version="1.0" encoding="UTF-8" standalone="no"?>
<svg
   width="250"
   height="250"
   viewBox="0 0 66.145833 66.145833"
   version="1.1"
   id="svg8"
   inkscape:version="1.2.2 (b0a8486541, 2022-12-01)"
   sodipodi:docname="trap_door-secret.svg"
   inkscape:export-filename="png/trap_door-secret.png"
   inkscape:export-xdpi="96"
   inkscape:export-ydpi="96"
   xmlns:inkscape="http://www.inkscape.org/namespaces/inkscape"
   xmlns:sodipodi="http://sodipodi.sourceforge.net/DTD/sodipodi-0.dtd"
   xmlns="http://www.w3.org/2000/svg"
   xmlns:svg="http://www.w3.org/2000/svg"
   xmlns:rdf="http://www.w3.org/1999/02/22-rdf-syntax-ns#"
   xmlns:cc="http://creativecommons.org/ns#"
   xmlns:dc="http://purl.org/dc/elements/1.1/">
  <defs
     id="defs2">
    <rect
       x="82.30465"
       y="76.047334"
       width="77.523782"
       height="97.903936"
       id="rect10819" />
  </defs>
  <sodipodi:namedview
     id="base"
     pagecolor="#ffffff"
     bordercolor="#666666"
     borderopacity="1.0"
     inkscape:pageopacity="0.0"
     inkscape:pageshadow="2"
     inkscape:zoom="1.979899"
     inkscape:cx="-12.626907"
     inkscape:cy="135.36044"
     inkscape:document-units="px"
     inkscape:current-layer="layer1"
     inkscape:document-rotation="0"
     showgrid="false"
     inkscape:window-width="1920"
     inkscape:window-height="1027"
     inkscape:window-x="0"
     inkscape:window-y="0"
     inkscape:window-maximized="1"
     units="px"
     fit-margin-top="0"
     fit-margin-left="0"
     fit-margin-right="0"
     fit-margin-bottom="0"
     showborder="true"
     inkscape:showpageshadow="true"
     showguides="true"
     inkscape:guide-bbox="true"
     inkscape:lockguides="false"
     inkscape:pagecheckerboard="true"
     inkscape:deskcolor="#d1d1d1">
    <sodipodi:guide
       position="9.2411051,60.308786"
       orientation="1,0"
       id="guide938"
       inkscape:locked="false" />
    <sodipodi:guide
       position="56.873751,59.111806"
       orientation="1,0"
       id="guide940"
       inkscape:locked="false" />
    <sodipodi:guide
       position="5.934793,56.881421"
       orientation="0,-1"
       id="guide942"
       inkscape:locked="false" />
    <sodipodi:guide
       position="52.614665,9.2823182"
       orientation="0,-1"
       id="guide944"
       inkscape:locked="false" />
  </sodipodi:namedview>
  <metadata
     id="metadata5">
    <rdf:RDF>
      <cc:Work
         rdf:about="">
        <dc:format>image/svg+xml</dc:format>
        <dc:type
           rdf:resource="http://purl.org/dc/dcmitype/StillImage" />
      </cc:Work>
    </rdf:RDF>
  </metadata>
  <g
     inkscape:label="Layer 1"
     inkscape:groupmode="layer"
     id="layer1"
     transform="translate(-0.08041364,-0.51138639)">
    <ellipse
       style="fill:#ffffff;fill-rule:evenodd;stroke-width:6.35;stroke-linecap:round;stroke-linejoin:round;paint-order:markers stroke fill"
       id="path2499"
       cx="33.13784"
       cy="33.575352"
       rx="23.816322"
       ry="23.799551" />
    <path
       style="color:#000000;fill:#000000;stroke:#000000;stroke-width:1.05833;stroke-linecap:round;stroke-miterlimit:4;stroke-dasharray:none;stroke-opacity:1;fill-opacity:1"
       d="m 33.154307,7.1386719 c -14.582286,0 -26.4628907,11.8702751 -26.4628908,26.4453121 1e-7,14.575038 11.8806048,26.445313 26.4628908,26.445313 14.582285,0 26.460937,-11.870275 26.460937,-26.445313 0,-14.575037 -11.878652,-26.4453121 -26.460937,-26.4453121 z m 0,5.2910161 c 11.724471,0 21.169922,9.441102 21.169922,21.154296 0,11.713195 -9.445451,21.154297 -21.169922,21.154297 -11.724472,0 -21.171875,-9.441102 -21.171875,-21.154297 0,-11.713194 9.447403,-21.154296 21.171875,-21.154296 z"
       id="path8758" />
    <g
       aria-label="S"
       transform="matrix(3.1723501,0,0,3.1723501,-350.93072,-228.44206)"
       id="text10817"
       style="font-size:12px;font-family:'Source Code Pro';-inkscape-font-specification:'Source Code Pro';text-align:center;text-anchor:middle;white-space:pre;shape-inside:url(#rect10819);fill:#000000;stroke:#000000;stroke-width:0.333612;stroke-linecap:square;paint-order:markers fill stroke;fill-opacity:1">
      <path
         d="m 121.0424,86.690875 c 1.944,0 3.036,-1.128 3.036,-2.424 0,-1.104 -0.648,-1.74 -1.68,-2.124 l -0.948,-0.408 c -0.756,-0.276 -1.284,-0.456 -1.284,-0.924 0,-0.456 0.396,-0.708 0.984,-0.708 0.768,0 1.26,0.228 1.8,0.624 l 0.9,-1.116 c -0.708,-0.672 -1.656,-1.032 -2.604,-1.032 -1.692,0 -2.868,1.032 -2.868,2.328 0,1.14 0.792,1.812 1.668,2.136 l 1.008,0.432 c 0.744,0.312 1.212,0.456 1.212,1.008 0,0.396 -0.348,0.684 -1.104,0.684 -0.756,0 -1.488,-0.336 -2.076,-0.816 l -1.02,1.212 c 0.84,0.744 1.92,1.128 2.976,1.128 z"
         style="font-weight:bold;-inkscape-font-specification:'Source Code Pro Bold';fill:#000000;fill-opacity:1;stroke:#000000"
         id="path29090" />
    </g>
  </g>
</svg>
