<?xml version="1.0" encoding="UTF-8" standalone="no"?>
<svg
   width="250"
   height="250"
   viewBox="0 0 66.145833 66.145833"
   version="1.1"
   id="svg8"
   inkscape:version="1.2.2 (b0a8486541, 2022-12-01)"
   sodipodi:docname="water-v2.svg"
   xml:space="preserve"
   inkscape:export-filename="water-v2.png"
   inkscape:export-xdpi="96"
   inkscape:export-ydpi="96"
   xmlns:inkscape="http://www.inkscape.org/namespaces/inkscape"
   xmlns:sodipodi="http://sodipodi.sourceforge.net/DTD/sodipodi-0.dtd"
   xmlns="http://www.w3.org/2000/svg"
   xmlns:svg="http://www.w3.org/2000/svg"
   xmlns:rdf="http://www.w3.org/1999/02/22-rdf-syntax-ns#"
   xmlns:cc="http://creativecommons.org/ns#"
   xmlns:dc="http://purl.org/dc/elements/1.1/"><defs
     id="defs2"><rect
       x="9.3215187"
       y="9.7757984"
       width="47.632646"
       height="47.599103"
       id="rect1569" /><clipPath
       clipPathUnits="userSpaceOnUse"
       id="clipPath4425"><g
         id="g4429"><path
           d="M 0.89466664,38.430692 H 816.89465 V 1094.4307 H 0.89466664 Z"
           id="path4427"
           style="stroke-width:1.33333" /></g></clipPath><clipPath
       clipPathUnits="userSpaceOnUse"
       id="clipPath4419"><g
         id="g4423"><path
           d="M 0.89466664,38.430692 H 816.89465 V 1094.4307 H 0.89466664 Z"
           id="path4421"
           style="stroke-width:1.33333" /></g></clipPath><clipPath
       clipPathUnits="userSpaceOnUse"
       id="clipPath4437"><g
         id="g4441"><path
           d="M 0.89466664,38.430692 H 816.89465 V 1094.4307 H 0.89466664 Z"
           id="path4439"
           style="stroke-width:1.33333" /></g></clipPath><clipPath
       clipPathUnits="userSpaceOnUse"
       id="clipPath4413"><g
         id="g4417"><path
           d="M 0.89466664,38.430692 H 816.89465 V 1094.4307 H 0.89466664 Z"
           id="path4415"
           style="stroke-width:1.33333" /></g></clipPath><clipPath
       clipPathUnits="userSpaceOnUse"
       id="clipPath4407"><g
         id="g4411"><path
           d="M 0.89466664,38.430692 H 816.89465 V 1094.4307 H 0.89466664 Z"
           id="path4409"
           style="stroke-width:1.33333" /></g></clipPath><clipPath
       clipPathUnits="userSpaceOnUse"
       id="clipPath4401"><g
         id="g4405"><path
           d="M 0.89466664,38.430692 H 816.89465 V 1094.4307 H 0.89466664 Z"
           id="path4403"
           style="stroke-width:1.33333" /></g></clipPath><clipPath
       clipPathUnits="userSpaceOnUse"
       id="clipPath4395"><g
         id="g4399"><path
           d="M 0.89466664,38.430692 H 816.89465 V 1094.4307 H 0.89466664 Z"
           id="path4397"
           style="stroke-width:1.33333" /></g></clipPath><clipPath
       clipPathUnits="userSpaceOnUse"
       id="clipPath4389"><g
         id="g4393"><path
           d="M 0.89466664,38.430692 H 816.89465 V 1094.4307 H 0.89466664 Z"
           id="path4391"
           style="stroke-width:1.33333" /></g></clipPath><clipPath
       clipPathUnits="userSpaceOnUse"
       id="clipPath4383"><g
         id="g4387"><path
           d="M 0.89466664,38.430692 H 816.89465 V 1094.4307 H 0.89466664 Z"
           id="path4385"
           style="stroke-width:1.33333" /></g></clipPath><clipPath
       clipPathUnits="userSpaceOnUse"
       id="clipPath4377"><g
         id="g4381"><path
           d="M 0.89466664,38.430692 H 816.89465 V 1094.4307 H 0.89466664 Z"
           id="path4379"
           style="stroke-width:1.33333" /></g></clipPath><clipPath
       clipPathUnits="userSpaceOnUse"
       id="clipPath4371"><g
         id="g4375"><path
           d="M 0.89466664,38.430692 H 816.89465 V 1094.4307 H 0.89466664 Z"
           id="path4373"
           style="stroke-width:1.33333" /></g></clipPath><clipPath
       clipPathUnits="userSpaceOnUse"
       id="clipPath4341"><g
         id="g4345"><path
           d="M 0.89466664,38.430692 H 816.89465 V 1094.4307 H 0.89466664 Z"
           id="path4343"
           style="stroke-width:1.33333" /></g></clipPath><clipPath
       clipPathUnits="userSpaceOnUse"
       id="clipPath4335"><g
         id="g4339"><path
           d="M 0.89466664,38.430692 H 816.89465 V 1094.4307 H 0.89466664 Z"
           id="path4337"
           style="stroke-width:1.33333" /></g></clipPath><clipPath
       clipPathUnits="userSpaceOnUse"
       id="clipPath4329"><g
         id="g4333"><path
           d="M 0.89466664,38.430692 H 816.89465 V 1094.4307 H 0.89466664 Z"
           id="path4331"
           style="stroke-width:1.33333" /></g></clipPath><clipPath
       clipPathUnits="userSpaceOnUse"
       id="clipPath4323"><g
         id="g4327"><path
           d="M 0.89466664,38.430692 H 816.89465 V 1094.4307 H 0.89466664 Z"
           id="path4325"
           style="stroke-width:1.33333" /></g></clipPath><clipPath
       clipPathUnits="userSpaceOnUse"
       id="clipPath4317"><g
         id="g4321"><path
           d="M 0.89466664,38.430692 H 816.89465 V 1094.4307 H 0.89466664 Z"
           id="path4319"
           style="stroke-width:1.33333" /></g></clipPath><clipPath
       clipPathUnits="userSpaceOnUse"
       id="clipPath4311"><g
         id="g4315"><path
           d="M 0.89466664,38.430692 H 816.89465 V 1094.4307 H 0.89466664 Z"
           id="path4313"
           style="stroke-width:1.33333" /></g></clipPath><clipPath
       clipPathUnits="userSpaceOnUse"
       id="clipPath4305"><g
         id="g4309"><path
           d="M 0.89466664,38.430692 H 816.89465 V 1094.4307 H 0.89466664 Z"
           id="path4307"
           style="stroke-width:1.33333" /></g></clipPath><clipPath
       clipPathUnits="userSpaceOnUse"
       id="clipPath6117"><g
         id="g6121"><path
           d="M 0.89466664,38.430692 H 816.89465 V 1094.4307 H 0.89466664 Z"
           id="path6119"
           style="stroke-width:1.33333" /></g></clipPath><clipPath
       clipPathUnits="userSpaceOnUse"
       id="clipPath6111"><g
         id="g6115"><path
           d="M 0.89466664,38.430692 H 816.89465 V 1094.4307 H 0.89466664 Z"
           id="path6113"
           style="stroke-width:1.33333" /></g></clipPath><clipPath
       clipPathUnits="userSpaceOnUse"
       id="clipPath6105"><g
         id="g6109"><path
           d="M 0.89466664,38.430692 H 816.89465 V 1094.4307 H 0.89466664 Z"
           id="path6107"
           style="stroke-width:1.33333" /></g></clipPath><clipPath
       clipPathUnits="userSpaceOnUse"
       id="clipPath6099"><g
         id="g6103"><path
           d="M 0.89466664,38.430692 H 816.89465 V 1094.4307 H 0.89466664 Z"
           id="path6101"
           style="stroke-width:1.33333" /></g></clipPath><clipPath
       clipPathUnits="userSpaceOnUse"
       id="clipPath6093"><g
         id="g6097"><path
           d="M 0.89466664,38.430692 H 816.89465 V 1094.4307 H 0.89466664 Z"
           id="path6095"
           style="stroke-width:1.33333" /></g></clipPath><clipPath
       clipPathUnits="userSpaceOnUse"
       id="clipPath6087"><g
         id="g6091"><path
           d="M 0.89466664,38.430692 H 816.89465 V 1094.4307 H 0.89466664 Z"
           id="path6089"
           style="stroke-width:1.33333" /></g></clipPath><clipPath
       clipPathUnits="userSpaceOnUse"
       id="clipPath6081"><g
         id="g6085"><path
           d="M 0.89466664,38.430692 H 816.89465 V 1094.4307 H 0.89466664 Z"
           id="path6083"
           style="stroke-width:1.33333" /></g></clipPath><clipPath
       clipPathUnits="userSpaceOnUse"
       id="clipPath6075"><g
         id="g6079"><path
           d="M 0.89466664,38.430692 H 816.89465 V 1094.4307 H 0.89466664 Z"
           id="path6077"
           style="stroke-width:1.33333" /></g></clipPath><clipPath
       clipPathUnits="userSpaceOnUse"
       id="clipPath4605"><g
         id="g4609"><path
           d="M 0.89466664,38.430692 H 816.89465 V 1094.4307 H 0.89466664 Z"
           id="path4607"
           style="stroke-width:1.33333" /></g></clipPath></defs><sodipodi:namedview
     id="base"
     pagecolor="#ffffff"
     bordercolor="#666666"
     borderopacity="1.0"
     inkscape:pageopacity="0.0"
     inkscape:pageshadow="2"
     inkscape:zoom="2.56"
     inkscape:cx="121.48438"
     inkscape:cy="102.73438"
     inkscape:document-units="px"
     inkscape:current-layer="layer1"
     inkscape:document-rotation="0"
     showgrid="false"
     inkscape:window-width="1920"
     inkscape:window-height="1027"
     inkscape:window-x="0"
     inkscape:window-y="0"
     inkscape:window-maximized="1"
     units="px"
     fit-margin-top="0"
     fit-margin-left="0"
     fit-margin-right="0"
     fit-margin-bottom="0"
     showborder="true"
     inkscape:showpageshadow="true"
     showguides="true"
     inkscape:guide-bbox="true"
     inkscape:lockguides="false"
     inkscape:pagecheckerboard="true"
     inkscape:deskcolor="#d1d1d1"><sodipodi:guide
       position="9.2411051,60.308786"
       orientation="1,0"
       id="guide938"
       inkscape:locked="false" /><sodipodi:guide
       position="56.873751,59.111806"
       orientation="1,0"
       id="guide940"
       inkscape:locked="false" /><sodipodi:guide
       position="5.934793,56.881421"
       orientation="0,-1"
       id="guide942"
       inkscape:locked="false" /><sodipodi:guide
       position="52.614665,9.2823182"
       orientation="0,-1"
       id="guide944"
       inkscape:locked="false" /></sodipodi:namedview><metadata
     id="metadata5"><rdf:RDF><cc:Work
         rdf:about=""><dc:format>image/svg+xml</dc:format><dc:type
           rdf:resource="http://purl.org/dc/dcmitype/StillImage" /></cc:Work></rdf:RDF></metadata><g
     inkscape:label="Layer 1"
     inkscape:groupmode="layer"
     id="layer1"
     transform="translate(-0.08041364,-0.51138639)"><path
       style="fill:#000000;stroke-width:0.0661458"
       d="M 1.3371793,34.839341 C 1.0064679,34.41891 1.2276672,34.146626 1.9882634,34.037893 3.0916426,33.880158 3.8704193,33.302403 4.3587209,32.279311 4.50738,31.96784 4.6769175,31.694617 4.7354707,31.672148 c 0.3283934,-0.126017 0.6040158,0.05202 0.7486043,0.483563 0.8167496,2.437682 4.582615,2.499179 5.470357,0.08933 0.195031,-0.529426 0.437563,-0.70635 0.785341,-0.572894 0.05855,0.02247 0.228091,0.295692 0.37675,0.607163 1.088819,2.281299 4.298876,2.376459 5.317251,0.157627 0.306539,-0.667886 0.33042,-0.703792 0.51013,-0.766992 0.304956,-0.107248 0.481368,0.03331 0.737445,0.587554 1.109134,2.400574 4.258789,2.404499 5.403544,0.0067 0.356895,-0.747538 0.764615,-0.875413 1.018584,-0.319462 0.0625,0.13682 0.173403,0.376345 0.246447,0.532277 1.012012,2.160421 4.211572,2.059946 5.289036,-0.166091 0.445484,-0.92037 0.764564,-0.932862 1.185712,-0.04642 1.137783,2.394833 4.271532,2.397016 5.41378,0.0038 0.264716,-0.554632 0.345887,-0.637013 0.627662,-0.637013 0.193275,0 0.289782,0.121075 0.587584,0.737173 1.049102,2.170402 4.260666,2.236728 5.257561,0.108579 0.07304,-0.155932 0.183945,-0.395456 0.246447,-0.532276 0.253969,-0.555952 0.661689,-0.428077 1.018584,0.319461 1.144754,2.397767 4.29441,2.393842 5.403544,-0.0067 0.314564,-0.680834 0.76013,-0.842418 0.994761,-0.360749 0.04407,0.09047 0.163151,0.338947 0.264624,0.552171 1.053242,2.213163 4.216455,2.112039 5.305441,-0.16961 0.148659,-0.311472 0.318197,-0.584695 0.37675,-0.607164 0.328393,-0.126016 0.604016,0.05202 0.748604,0.483564 0.350787,1.046964 1.601983,1.922981 2.746551,1.922981 0.271064,0 0.443337,0.178246 0.451553,0.467207 0.02867,1.008168 -2.40967,0.310953 -3.469666,-0.992113 -0.265401,-0.32626 -0.265401,-0.32626 -0.510514,-0.01643 -1.572505,1.987675 -4.7491,1.91783 -6.192618,-0.13616 -0.127488,-0.181404 -0.127488,-0.181404 -0.437407,0.20733 -1.497889,1.878823 -4.956907,1.772166 -6.115135,-0.188557 -0.106055,-0.179538 -0.106055,-0.179538 -0.643886,0.363827 -1.689208,1.706585 -4.390736,1.603248 -5.82292,-0.222735 -0.258005,-0.328947 -0.258005,-0.328947 -0.513489,-0.0057 -1.510127,1.910453 -4.554025,1.909986 -6.064517,-9.26e-4 -0.25622,-0.324142 -0.25622,-0.324142 -0.503606,2.64e-4 -1.381631,1.811713 -4.131443,1.932709 -5.809796,0.255638 -0.515557,-0.515164 -0.515557,-0.515164 -1.02526,5.95e-4 -1.634928,1.654286 -4.372387,1.552737 -5.768297,-0.213979 -0.29464,-0.372908 -0.298613,-0.375224 -0.392145,-0.228577 -1.317963,2.066417 -4.65365,2.156053 -6.226976,0.167332 -0.246472,-0.311546 -0.246472,-0.311546 -0.489064,0 C 9.8451266,35.38208 7.1793568,35.505212 5.4760334,33.80395 5.1577065,33.486009 4.8972573,33.252981 4.8972573,33.286112 c 0,0.805124 -3.0885871,2.152735 -3.560078,1.553332 z"
       id="path936" /><path
       style="fill:#000000;stroke-width:0.0661458"
       d="m 5.1225682,25.871539 c -0.3307114,-0.420431 -0.1095121,-0.692715 0.6510841,-0.801448 1.1033792,-0.157735 1.8821559,-0.73549 2.3704575,-1.758582 0.1486591,-0.311471 0.3181966,-0.584694 0.3767498,-0.607163 0.3283934,-0.126017 0.6040158,0.05202 0.7486043,0.483563 0.8167501,2.437682 4.5826161,2.499179 5.4703581,0.08933 0.195031,-0.529426 0.437563,-0.70635 0.785341,-0.572894 0.05855,0.02247 0.228091,0.295692 0.37675,0.607163 1.088819,2.281299 4.298876,2.376459 5.317251,0.157627 0.306539,-0.667886 0.33042,-0.703792 0.51013,-0.766992 0.304956,-0.107248 0.481368,0.03331 0.737445,0.587554 1.109134,2.400574 4.258789,2.404499 5.403544,0.0067 0.356895,-0.747538 0.764615,-0.875413 1.018584,-0.319462 0.0625,0.13682 0.173403,0.376345 0.246447,0.532277 1.012012,2.160421 4.211572,2.059946 5.289036,-0.166091 0.445484,-0.92037 0.764564,-0.932862 1.185712,-0.04642 1.137783,2.394833 4.271532,2.397016 5.41378,0.0038 0.264716,-0.554632 0.345887,-0.637013 0.627662,-0.637013 0.193275,0 0.289782,0.121075 0.587584,0.737173 1.049102,2.170402 4.260666,2.236728 5.257561,0.108579 0.07304,-0.155932 0.183945,-0.395456 0.246447,-0.532276 0.253969,-0.555952 0.661689,-0.428077 1.018584,0.319461 1.144754,2.397767 4.29441,2.393842 5.403544,-0.0067 0.314564,-0.680834 0.76013,-0.842418 0.994761,-0.360749 0.04407,0.09047 0.163151,0.338947 0.264624,0.552171 1.053242,2.213163 4.216455,2.112039 5.305441,-0.16961 0.148659,-0.311472 0.318197,-0.584695 0.37675,-0.607164 0.328393,-0.126016 0.604016,0.05202 0.748604,0.483564 0.350787,1.046964 1.601983,1.922981 2.746551,1.922981 0.271064,0 0.443337,0.178246 0.451553,0.467207 0.02867,1.008168 -2.40967,0.310953 -3.469666,-0.992113 -0.265401,-0.32626 -0.265401,-0.32626 -0.510514,-0.01643 -1.572505,1.987675 -4.7491,1.91783 -6.192618,-0.13616 -0.127488,-0.181404 -0.127488,-0.181404 -0.437407,0.20733 -1.497889,1.878823 -4.956907,1.772166 -6.115135,-0.188557 -0.106055,-0.179538 -0.106055,-0.179538 -0.643886,0.363827 -1.689208,1.706585 -4.390736,1.603248 -5.82292,-0.222735 -0.258005,-0.328947 -0.258005,-0.328947 -0.513489,-0.0057 -1.510127,1.910453 -4.554025,1.909986 -6.064517,-9.26e-4 -0.25622,-0.324142 -0.25622,-0.324142 -0.503606,2.64e-4 -1.381631,1.811713 -4.131443,1.932709 -5.809796,0.255638 -0.515557,-0.515164 -0.515557,-0.515164 -1.02526,5.95e-4 -1.634928,1.654286 -4.372387,1.552737 -5.768297,-0.213979 -0.29464,-0.372908 -0.298613,-0.375224 -0.392145,-0.228577 -1.317963,2.066417 -4.65365,2.156053 -6.226976,0.167332 -0.246472,-0.311546 -0.246472,-0.311546 -0.489064,0 -1.437697,1.846344 -4.103466,1.969476 -5.8067897,0.268214 -0.3183269,-0.317941 -0.5787761,-0.550969 -0.5787761,-0.517838 0,0.805124 -3.0885871,2.152735 -3.560078,1.553332 z"
       id="path936-3-5" /><path
       style="fill:#000000;stroke-width:0.0661458"
       d="M 5.1202373,43.8529 C 4.6989871,43.511793 4.987112,43.126358 5.7472787,43.014085 6.7812401,42.861373 7.7000925,42.203579 8.0723341,41.349608 8.3123562,40.798967 8.3270439,40.776161 8.507839,40.673432 c 0.3227546,-0.183392 0.4939176,-0.061 0.7796788,0.557532 1.1217882,2.428107 4.4982552,2.380241 5.4501532,-0.07726 0.305967,-0.789908 0.723228,-0.755012 1.134311,0.09486 1.16469,2.407889 4.246563,2.387375 5.405864,-0.03598 0.31826,-0.66528 0.747244,-0.843686 0.958145,-0.398472 0.03924,0.08284 0.154271,0.329207 0.255625,0.547488 1.055417,2.273013 4.285187,2.191985 5.360077,-0.134472 0.400569,-0.866981 0.73748,-0.862631 1.156321,0.01493 1.145836,2.40076 4.268983,2.394416 5.417043,-0.011 0.413229,-0.8658 0.752324,-0.866956 1.15107,-0.0039 1.047517,2.267213 4.301455,2.410338 5.312938,0.233691 0.07608,-0.163711 0.189457,-0.4096 0.251959,-0.54642 0.194727,-0.426267 0.66195,-0.426267 0.858007,0 0.335758,0.730008 0.42935,0.876831 0.794073,1.245702 1.4725,1.48925 3.867328,1.020847 4.770048,-0.932973 0.254189,-0.550159 0.434515,-0.695883 0.728149,-0.588427 0.175083,0.06407 0.230727,0.14654 0.518095,0.767865 1.03163,2.230502 4.225904,2.13176 5.321868,-0.164511 0.335623,-0.703198 0.75845,-0.862116 1.00187,-0.376549 0.02736,0.05457 0.142445,0.297418 0.255752,0.539663 1.009905,2.159121 4.254052,2.132237 5.257537,-0.04357 0.271709,-0.589132 0.270915,-0.587911 0.447356,-0.688165 0.316669,-0.179935 0.480066,-0.06212 0.777288,0.560426 0.475635,0.99625 1.260458,1.603025 2.268614,1.753948 0.819972,0.12275 1.09099,0.383502 0.802093,0.77171 -0.478823,0.643425 -2.638945,-0.180486 -3.465794,-1.321917 -0.178904,-0.246972 -0.178904,-0.246972 -0.422699,0.06612 -1.506235,1.934361 -4.620621,1.945182 -6.079727,0.02112 -0.255199,-0.336521 -0.255199,-0.336521 -0.43494,-0.0884 -1.442581,1.991426 -4.605913,2.035768 -6.146984,0.08617 -0.257333,-0.325549 -0.257333,-0.325549 -0.463095,-0.03903 -1.318645,1.836181 -4.140562,1.994023 -5.810378,0.324998 -0.542889,-0.542631 -0.542889,-0.542631 -1.091406,1.99e-4 -1.763327,1.745104 -4.623905,1.484565 -5.981933,-0.544829 -0.0087,-0.01302 -0.248274,0.213389 -0.532359,0.503133 -1.672031,1.705335 -4.383336,1.588573 -5.837753,-0.251402 -0.245396,-0.310448 -0.245396,-0.310448 -0.550123,0.07037 -1.531113,1.913421 -4.705769,1.798343 -6.15409,-0.22308 -0.08196,-0.114384 -0.127644,-0.08393 -0.645956,0.430491 -1.700901,1.68815 -4.555806,1.528589 -5.839881,-0.32639 -0.188887,-0.272868 -0.188887,-0.272868 -0.447343,0.0541 -1.543395,1.952541 -4.703863,1.908978 -6.1481076,-0.08474 C 8.7094647,42.188303 8.7094647,42.188303 8.4542648,42.524824 7.684371,43.540048 5.706743,44.327806 5.1202373,43.852882 Z"
       id="path932" /></g></svg>
