<?xml version="1.0" encoding="UTF-8" standalone="no"?>
<!-- Created with Inkscape (http://www.inkscape.org/) -->

<svg
   width="250"
   height="250"
   viewBox="0 0 66.145832 66.145833"
   version="1.1"
   id="svg5"
   xml:space="preserve"
   inkscape:version="1.2.2 (b0a8486541, 2022-12-01)"
   sodipodi:docname="crossed-swords-white.svg"
   xmlns:inkscape="http://www.inkscape.org/namespaces/inkscape"
   xmlns:sodipodi="http://sodipodi.sourceforge.net/DTD/sodipodi-0.dtd"
   xmlns="http://www.w3.org/2000/svg"
   xmlns:svg="http://www.w3.org/2000/svg"><sodipodi:namedview
     id="namedview7"
     pagecolor="#ffffff"
     bordercolor="#111111"
     borderopacity="1"
     inkscape:showpageshadow="0"
     inkscape:pageopacity="0"
     inkscape:pagecheckerboard="true"
     inkscape:deskcolor="#d1d1d1"
     inkscape:document-units="mm"
     showgrid="false"
     showguides="true"
     inkscape:zoom="2.647615"
     inkscape:cx="101.78972"
     inkscape:cy="131.06135"
     inkscape:window-width="1920"
     inkscape:window-height="1051"
     inkscape:window-x="0"
     inkscape:window-y="0"
     inkscape:window-maximized="1"
     inkscape:current-layer="layer1"><sodipodi:guide
       position="35.895138,59.53125"
       orientation="0,-1"
       id="guide506"
       inkscape:locked="false" /><sodipodi:guide
       position="25.183041,6.6145833"
       orientation="0,-1"
       id="guide508"
       inkscape:locked="false" /><sodipodi:guide
       position="17.709811,40.662993"
       orientation="1,0"
       id="guide510"
       inkscape:locked="false" /><sodipodi:guide
       position="48.436021,30.369925"
       orientation="1,0"
       id="guide512"
       inkscape:locked="false" /></sodipodi:namedview><defs
     id="defs2"><rect
       x="66.93472"
       y="24.999997"
       width="116.13056"
       height="110.21603"
       id="rect1688" /></defs><g
     inkscape:label="Layer 1"
     inkscape:groupmode="layer"
     id="layer1"><path
       style="fill:#ffffff;stroke-width:0.52916667;stroke:#000000;stroke-dasharray:none;paint-order:fill markers stroke"
       d="m 11.190522,59.275483 c -2.1600063,-0.519736 -2.2809413,-3.605491 -0.166444,-4.246926 0.282303,-0.08564 1.141515,-0.887531 1.909361,-1.781989 0.767846,-0.894457 1.517764,-1.728244 1.666484,-1.85286 0.562515,-0.471342 2.333902,-2.820212 2.484367,-3.294287 0.123443,-0.388931 -0.05663,-0.719254 -0.842567,-1.545639 -1.718354,-1.806779 -2.909942,-4.069623 -2.586653,-4.9121 0.257765,-0.671724 2.151691,-0.425037 2.829392,0.368534 3.554376,4.162083 2.829702,4.346278 8.870199,-2.254617 1.182053,-1.291716 2.623131,-2.833929 3.202394,-3.427136 2.207374,-2.260513 2.264901,-2.029149 -1.662382,-6.685859 C 26.68448,29.393373 25.372388,27.81302 23.97891,26.130707 22.585432,24.448396 21.370133,23.020979 21.278243,22.958671 21.080976,22.824908 19.145022,20.468041 18.300481,19.333487 17.975815,18.897332 17.374429,18.183624 16.964069,17.74747 16.553707,17.311315 15.158208,15.679981 13.862961,14.122286 12.567713,12.56459 11.310291,11.073069 11.06869,10.807795 10.827089,10.542522 10.4743,9.5880878 10.284715,8.68683 10.095129,7.7855717 9.8839957,6.9575414 9.8155297,6.8467618 9.3501007,6.0936806 11.150385,7.3261191 12.01467,8.3522485 c 0.419028,0.4974949 1.424599,1.6107493 2.234601,2.4738975 2.394696,2.551817 2.686128,2.867272 4.498744,4.869547 5.774142,6.378311 8.007372,8.822985 8.886295,9.727659 0.320309,0.329693 0.893957,0.960387 3.900359,4.28823 1.373532,1.520389 1.720306,1.402126 4.354546,-1.485065 1.222253,-1.339619 3.309432,-3.608191 4.638178,-5.041272 1.328743,-1.43308 3.321166,-3.625184 4.427604,-4.871341 1.10644,-1.246156 2.43869,-2.724552 2.960558,-3.285323 1.600166,-1.719453 4.479938,-4.799345 5.077865,-5.4307349 0.311539,-0.3289737 0.873864,-0.9494407 1.24961,-1.3788139 0.588729,-0.6727558 1.728401,-1.5736875 1.990701,-1.5736875 0.283897,0 -0.992171,3.9190153 -1.45107,4.4564743 -0.696998,0.816318 -0.911273,1.072034 -3.195468,3.813475 -1.038309,1.246158 -2.224073,2.622595 -2.63503,3.05875 -0.410956,0.436154 -1.208663,1.404758 -1.772681,2.152453 -1.043822,1.383745 -2.544086,3.189901 -3.362308,4.047855 -0.448836,0.47063 -2.314412,2.705357 -3.625184,4.342517 -0.373847,0.466938 -0.822585,0.99585 -0.997196,1.175359 -3.682213,3.785544 -3.782015,4.550879 -0.956755,7.337008 0.202362,0.199562 1.33535,1.423062 2.517747,2.718888 5.691969,6.238014 5.504778,6.141218 7.46539,3.860296 1.977424,-2.300484 1.973324,-2.297255 2.91746,-2.297255 2.09229,0 1.537222,2.290376 -1.270536,5.242617 -0.785945,0.826385 -0.966013,1.156708 -0.842567,1.545639 0.150462,0.474075 1.921849,2.822945 2.484364,3.294287 0.148721,0.124616 0.897369,0.956929 1.663663,1.849582 0.935794,1.090104 1.656283,1.709814 2.194319,1.887382 1.887871,0.623054 1.619771,3.303746 -0.406686,4.066375 -2.03251,0.764906 -3.527837,0.211702 -4.344069,-1.60711 -0.354414,-0.789737 -1.060788,-1.854 -1.569716,-2.365028 -0.50893,-0.511026 -1.588058,-1.643682 -2.398059,-2.517011 -1.874095,-2.020619 -2.337884,-2.280309 -3.269241,-1.830554 -3.799208,1.834646 -5.93488,2.116755 -6.580027,0.86918 -0.383257,-0.741137 -0.210709,-1.063359 0.675292,-1.261079 2.910769,-0.649565 4.974638,-2.261027 4.139998,-3.232495 -0.18463,-0.214896 -1.234381,-1.459801 -2.332783,-2.76645 -1.098401,-1.30665 -2.107818,-2.495819 -2.24315,-2.6426 -0.13533,-0.146779 -0.908786,-1.093655 -1.718788,-2.104164 -2.344143,-2.924413 -2.066973,-3.037285 -6.918849,2.817586 -1.962089,2.367698 -3.719445,4.480732 -3.905237,4.695628 -0.832837,0.963302 1.461132,2.78014 4.06702,3.221107 0.930436,0.15745 1.130559,0.455323 0.800551,1.191589 -0.454113,1.013156 -2.319673,1.133618 -4.060356,0.262187 -0.462345,-0.231461 -0.976067,-0.420838 -1.141607,-0.420838 -0.165538,0 -0.696392,-0.201592 -1.179673,-0.447985 -1.522392,-0.776158 -5.757539,2.892012 -7.523856,6.516607 -0.911451,1.870354 -1.908788,2.267563 -4.268121,1.699866 z"
       id="path794" /></g></svg>
