<?xml version="1.0" encoding="UTF-8" standalone="no"?>
<!-- Created with Inkscape (http://www.inkscape.org/) -->

<svg
   width="250"
   height="250"
   viewBox="0 0 66.145832 66.145833"
   version="1.1"
   id="svg5"
   xml:space="preserve"
   inkscape:version="1.2.2 (b0a8486541, 2022-12-01)"
   sodipodi:docname="general-x.svg"
   xmlns:inkscape="http://www.inkscape.org/namespaces/inkscape"
   xmlns:sodipodi="http://sodipodi.sourceforge.net/DTD/sodipodi-0.dtd"
   xmlns="http://www.w3.org/2000/svg"
   xmlns:svg="http://www.w3.org/2000/svg"><sodipodi:namedview
     id="namedview7"
     pagecolor="#ffffff"
     bordercolor="#111111"
     borderopacity="1"
     inkscape:showpageshadow="0"
     inkscape:pageopacity="0"
     inkscape:pagecheckerboard="true"
     inkscape:deskcolor="#d1d1d1"
     inkscape:document-units="mm"
     showgrid="false"
     showguides="true"
     inkscape:zoom="1.8721465"
     inkscape:cx="71.041449"
     inkscape:cy="199.77069"
     inkscape:window-width="1920"
     inkscape:window-height="1051"
     inkscape:window-x="0"
     inkscape:window-y="0"
     inkscape:window-maximized="1"
     inkscape:current-layer="layer1"><sodipodi:guide
       position="35.895138,59.53125"
       orientation="0,-1"
       id="guide506"
       inkscape:locked="false" /><sodipodi:guide
       position="25.183041,6.6145833"
       orientation="0,-1"
       id="guide508"
       inkscape:locked="false" /><sodipodi:guide
       position="17.709811,40.662993"
       orientation="1,0"
       id="guide510"
       inkscape:locked="false" /><sodipodi:guide
       position="48.436021,30.369925"
       orientation="1,0"
       id="guide512"
       inkscape:locked="false" /></sodipodi:namedview><defs
     id="defs2"><rect
       x="66.93472"
       y="24.999997"
       width="116.13056"
       height="110.21603"
       id="rect1688" /></defs><g
     inkscape:label="Layer 1"
     inkscape:groupmode="layer"
     id="layer1"><path
       style="fill:#000000;stroke-width:0.220486"
       d="m 12.359822,53.786011 c -3.1598813,-3.15988 -5.7452383,-5.88564 -5.7452383,-6.057242 0,-0.171602 3.075781,-3.383781 6.8350693,-7.138172 6.052934,-6.045052 6.83507,-6.905038 6.83507,-7.515399 0,-0.610469 -0.752541,-1.437377 -6.585181,-7.235948 -5.6837203,-5.65052 -7.0849583,-7.153086 -7.0849583,-7.597289 0,-0.04806 2.593519,-2.686172 5.7633763,-5.86248 4.778961,-4.7886853 5.842861,-5.7521845 6.228733,-5.6409228 0.255946,0.073799 3.417373,3.0989147 7.025394,6.7224788 3.608021,3.623565 6.751028,6.690515 6.984461,6.815444 0.233433,0.12493 0.596697,0.161038 0.807253,0.08024 0.210558,-0.0808 3.268722,-3.064992 6.795922,-6.631542 5.527933,-5.5896048 7.177665,-7.1105958 7.712458,-7.1105958 0.144256,0 11.599069,11.4583158 11.599069,11.6026148 0,0.451722 -1.29409,1.857179 -7.036232,7.641762 -5.603828,5.645246 -6.523663,6.663964 -6.523663,7.224972 0,0.561794 0.928639,1.585286 6.64295,7.321473 3.653623,3.667607 6.707876,6.880877 6.787229,7.140596 0.121567,0.39789 -0.75989,1.378299 -5.600072,6.228733 -3.159391,3.166084 -5.886672,5.756516 -6.060625,5.756516 -0.173952,0 -3.405851,-3.075782 -7.181999,-6.83507 -5.525546,-5.500875 -6.979156,-6.835069 -7.44684,-6.835069 -0.468068,0 -1.913231,1.329648 -7.428869,6.835069 -3.766265,3.759288 -7.012075,6.83507 -7.212911,6.83507 -0.200837,0 -2.950515,-2.585357 -6.110396,-5.745239 z"
       id="path958" /></g></svg>
