<?xml version="1.0" encoding="UTF-8" standalone="no"?>
<!-- Created with Inkscape (http://www.inkscape.org/) -->

<svg
   width="250"
   height="250"
   viewBox="0 0 66.145832 66.145833"
   version="1.1"
   id="svg5"
   xml:space="preserve"
   inkscape:version="1.2.2 (b0a8486541, 2022-12-01)"
   sodipodi:docname="mining-white.svg"
   xmlns:inkscape="http://www.inkscape.org/namespaces/inkscape"
   xmlns:sodipodi="http://sodipodi.sourceforge.net/DTD/sodipodi-0.dtd"
   xmlns="http://www.w3.org/2000/svg"
   xmlns:svg="http://www.w3.org/2000/svg"><sodipodi:namedview
     id="namedview7"
     pagecolor="#ffffff"
     bordercolor="#111111"
     borderopacity="1"
     inkscape:showpageshadow="0"
     inkscape:pageopacity="0"
     inkscape:pagecheckerboard="true"
     inkscape:deskcolor="#d1d1d1"
     inkscape:document-units="mm"
     showgrid="false"
     showguides="true"
     inkscape:zoom="1.8721465"
     inkscape:cx="46.203649"
     inkscape:cy="158.10728"
     inkscape:window-width="1920"
     inkscape:window-height="1051"
     inkscape:window-x="0"
     inkscape:window-y="0"
     inkscape:window-maximized="1"
     inkscape:current-layer="layer1"><sodipodi:guide
       position="35.895138,59.53125"
       orientation="0,-1"
       id="guide506"
       inkscape:locked="false" /><sodipodi:guide
       position="25.183041,6.6145833"
       orientation="0,-1"
       id="guide508"
       inkscape:locked="false" /><sodipodi:guide
       position="17.709811,40.662993"
       orientation="1,0"
       id="guide510"
       inkscape:locked="false" /><sodipodi:guide
       position="48.436021,30.369925"
       orientation="1,0"
       id="guide512"
       inkscape:locked="false" /></sodipodi:namedview><defs
     id="defs2"><rect
       x="66.93472"
       y="24.999997"
       width="116.13056"
       height="110.21603"
       id="rect1688" /></defs><g
     inkscape:label="Layer 1"
     inkscape:groupmode="layer"
     id="layer1"><path
       style="fill:#ffffff;stroke-width:0.52916667;stroke:#000000;stroke-dasharray:none"
       d="m 14.968278,56.651693 c -1.547392,-1.576479 -2.813442,-3.010587 -2.813442,-3.186904 0,-0.34698 2.079074,-2.274896 5.866327,-5.439823 1.316931,-1.100533 2.825413,-2.381976 3.352188,-2.847657 1.804324,-1.595066 8.021304,-7.879641 8.021304,-8.108519 0,-0.472414 -11.388054,-11.777737 -11.863927,-11.777737 -0.287873,0 -1.603152,1.13128 -3.340637,2.873303 -1.846313,1.851138 -3.044856,2.873303 -3.369097,2.873303 -0.615251,0 -6.4096844,-5.762853 -6.527041,-6.49147 C 4.23617,24.18745 5.0022281,23.259232 7.1441233,21.092683 L 10.073313,18.129776 9.6524829,17.027848 C 9.16854,15.760661 9.1120935,15.872537 11.340854,13.681508 c 2.239814,-2.201894 2.107095,-2.12517 2.935296,-1.69689 0.400514,0.207114 0.896758,0.37657 1.102767,0.37657 0.206007,0 1.677636,-1.292986 3.270284,-2.8733021 1.610323,-1.5978533 3.092865,-2.8733029 3.339834,-2.8733029 0.626254,0 6.307249,5.864465 6.404619,6.611456 0.06165,0.472854 -0.46141,1.130204 -2.693722,3.385394 -2.040541,2.061457 -2.770209,2.955385 -2.770209,3.39383 0,0.456821 1.293132,1.892198 5.561245,6.172975 3.217319,3.226865 5.74626,5.577748 6.000223,5.577748 0.548437,0 11.664399,-11.073089 11.664399,-11.619409 0,-0.216002 -1.266049,-1.743134 -2.813444,-3.393621 -2.11759,-2.258675 -2.802269,-3.142206 -2.768275,-3.572255 0.05703,-0.721508 5.820389,-6.556118 6.47605,-6.556118 0.260834,0 1.637459,1.2197112 3.270108,2.8973682 2.544597,2.6147458 2.881905,2.8819268 3.457973,2.7390718 1.968548,-0.488164 1.816552,-0.547606 3.864324,1.511204 1.057107,1.062803 1.922013,2.112439 1.922013,2.332521 0,0.220082 -0.227614,0.768437 -0.50581,1.218566 l -0.505809,0.818415 0.482948,1.005661 c 0.709888,1.478237 1.438974,4.098385 1.736852,6.241794 0.144001,1.03617 0.364139,2.153063 0.489194,2.481985 0.291253,0.76605 0.736016,6.148509 0.548454,6.637287 -0.07815,0.203651 -0.265246,0.368656 -0.415773,0.366679 -0.150525,-0.0019 -2.358102,-2.156956 -4.905726,-4.788839 -2.547625,-2.631883 -4.815561,-4.785243 -5.039861,-4.785243 -0.496566,0 -11.75815,11.301336 -11.75815,11.799654 0,0.498488 5.895006,6.431649 8.61991,8.675703 1.251083,1.030311 2.382447,1.99302 2.51414,2.139349 0.131693,0.146331 1.559366,1.372895 3.172605,2.7257 1.613241,1.352805 2.933164,2.606561 2.933164,2.786126 0,0.473892 -5.728454,6.113665 -6.209798,6.113665 -0.223307,0 -1.313268,-1.096896 -2.422136,-2.437548 -1.108866,-1.340652 -2.192974,-2.606701 -2.409131,-2.813443 -0.216156,-0.206742 -1.275127,-1.453384 -2.353265,-2.770314 -2.279504,-2.784379 -8.588456,-9.218514 -9.039157,-9.218514 -0.531779,0 -6.779882,6.427878 -9.891671,10.176281 -1.639903,1.975398 -3.098408,3.699379 -3.241123,3.831072 -0.142713,0.131693 -0.829253,0.912872 -1.525645,1.735954 -0.696392,0.82308 -1.444065,1.493535 -1.661498,1.489896 -0.217434,-0.0036 -1.66138,-1.296463 -3.208775,-2.872941 z"
       id="path869" /></g></svg>
