<?xml version="1.0" encoding="UTF-8" standalone="no"?>
<svg
   viewBox="0 0 512 512"
   style="height: 512px; width: 512px;"
   version="1.1"
   id="svg91"
   sodipodi:docname="perspective-dice-six-faces-six-minus-2.svg"
   inkscape:version="1.2.1 (9c6d41e410, 2022-07-14)"
   xmlns:inkscape="http://www.inkscape.org/namespaces/inkscape"
   xmlns:sodipodi="http://sodipodi.sourceforge.net/DTD/sodipodi-0.dtd"
   xmlns="http://www.w3.org/2000/svg"
   xmlns:svg="http://www.w3.org/2000/svg">
  <defs
     id="defs95">
    <rect
       x="0.35755208"
       y="0.564016"
       width="511.90324"
       height="511.86132"
       id="rect201" />
  </defs>
  <sodipodi:namedview
     id="namedview93"
     pagecolor="#ffffff"
     bordercolor="#111111"
     borderopacity="1"
     inkscape:showpageshadow="0"
     inkscape:pageopacity="0"
     inkscape:pagecheckerboard="1"
     inkscape:deskcolor="#d1d1d1"
     showgrid="false"
     inkscape:zoom="1.1600971"
     inkscape:cx="387.03657"
     inkscape:cy="448.23835"
     inkscape:window-width="1920"
     inkscape:window-height="1027"
     inkscape:window-x="0"
     inkscape:window-y="0"
     inkscape:window-maximized="1"
     inkscape:current-layer="path1481" />
  <g
     class=""
     transform="translate(0,0)"
     style=""
     id="g89">
    <path
       d="M255.76 44.764c-6.176 0-12.353 1.384-17.137 4.152L85.87 137.276c-9.57 5.536-9.57 14.29 0 19.826l152.753 88.36c9.57 5.536 24.703 5.536 34.272 0l152.753-88.36c9.57-5.535 9.57-14.29 0-19.825l-152.753-88.36c-4.785-2.77-10.96-4.153-17.135-4.153zm1.86 12.423a31.953 18.96 0 0 1 21.194 5.536 31.953 18.96 0 0 1-45.187 26.812 31.953 18.96 0 0 1 23.992-32.347zm58.43 35.208a31.953 18.96 0 0 1 22.13 32.363 31.953 18.96 0 0 1-45.19-26.813 31.953 18.96 0 0 1 23.06-5.55zm-177.603 34.98a31.953 18.96 0 0 1 .002 0 31.953 18.96 0 0 1 21.195 5.535 31.953 18.96 0 0 1-45.19 26.813 31.953 18.96 0 0 1 23.992-32.348zm237.903.26a31.953 18.96 0 0 1 .002 0 31.953 18.96 0 0 1 21.195 5.535 31.953 18.96 0 0 1-45.19 26.812 31.953 18.96 0 0 1 23.993-32.347zm-179.03 35.21a31.953 18.96 0 0 1 22.127 32.362 31.953 18.96 0 1 1-45.187-26.812 31.953 18.96 0 0 1 23.06-5.55zM75.67 173.84c-5.753-.155-9.664 4.336-9.664 12.28v157.696c0 11.052 7.57 24.163 17.14 29.69l146.93 84.848c9.57 5.526 17.14 1.156 17.14-9.895V290.76c0-11.052-7.57-24.16-17.14-29.688l-146.93-84.847c-2.69-1.555-5.225-2.327-7.476-2.387zm360.773.002c-2.25.06-4.783.83-7.474 2.385l-146.935 84.847c-9.57 5.527-17.14 18.638-17.14 29.69v157.7c0 11.05 7.57 15.418 17.14 9.89L428.97 373.51c9.57-5.527 17.137-18.636 17.137-29.688v-157.7c0-7.942-3.91-12.432-9.664-12.278zM89.297 195.77a31.236 18.008 58.094 0 1 33.818 41.183 31.236 18.008 58.094 1 1-45-25.98 31.236 18.008 58.094 0 1 11.182-15.203zm333.52 0A18.008 31.236 31.906 0 1 434 210.973a18.008 31.236 31.906 0 1-45 25.98 18.008 31.236 31.906 0 1 33.818-41.183zm-165.198 2.314a31.953 18.96 0 0 1 21.194 5.535 31.953 18.96 0 0 1-45.187 26.812 31.953 18.96 0 0 1 23.992-32.348zm-56.323 62.35a31.236 18.008 58.094 0 1 33.818 41.183 31.236 18.008 58.094 1 1-45-25.98 31.236 18.008 58.094 0 1 11.182-15.203zm109.52 0A18.008 31.236 31.906 0 1 322 275.637a18.008 31.236 31.906 0 1-45 25.98 18.008 31.236 31.906 0 1 33.818-41.183zM145.296 289.1a31.236 18.008 58.094 0 1 33.818 41.183 31.236 18.008 58.094 0 1-45-25.98 31.236 18.008 58.094 0 1 11.182-15.203zm-55.998 29.38a31.236 18.008 58.094 0 1 33.818 41.184 31.236 18.008 58.094 1 1-45-25.98 31.236 18.008 58.094 0 1 11.182-15.204zm333.52 0A18.008 31.236 31.906 0 1 434 333.684a18.008 31.236 31.906 0 1-45 25.98 18.008 31.236 31.906 0 1 33.818-41.184zm-221.52 64.663a31.236 18.008 58.094 0 1 33.818 41.183 31.236 18.008 58.094 1 1-45-25.98 31.236 18.008 58.094 0 1 11.182-15.203zm109.52 0A18.008 31.236 31.906 0 1 322 398.346a18.008 31.236 31.906 0 1-45 25.98 18.008 31.236 31.906 0 1 33.818-41.183z"
       fill="#fff"
       fill-opacity="1"
       id="path87" />
  </g>
  <g
     aria-label="-3"
     transform="matrix(2.1900237,0,0,2.1900237,-301.95622,77.161866)"
     id="text199"
     style="font-weight:bold;font-size:144px;font-family:'Triplicate B Poly Caps';-inkscape-font-specification:'Triplicate B Poly Caps Bold';text-align:center;white-space:pre;fill:#ffffff;stroke:#000000;stroke-width:2.7397;stroke-linecap:round;paint-order:markers fill stroke">
    <g
       id="path1481">
      <text
         xml:space="preserve"
         style="font-weight:bold;font-size:121.774px;font-family:'Noto Serif';-inkscape-font-specification:'Noto Serif Bold';text-align:center;text-anchor:middle;fill:#ffffff;stroke:#000000;stroke-width:15.9816;stroke-linecap:square;stroke-linejoin:round;stroke-dasharray:none;paint-order:markers stroke fill"
         x="313.26025"
         y="190.56328"
         id="text1701"><tspan
           sodipodi:role="line"
           id="tspan1699"
           style="font-style:normal;font-variant:normal;font-weight:bold;font-stretch:normal;font-family:'Noto Sans';-inkscape-font-specification:'Noto Sans Bold';fill:#ffffff;stroke:#000000;stroke-width:15.9816;stroke-linecap:square;stroke-linejoin:round;stroke-dasharray:none;paint-order:markers stroke fill"
           x="313.26025"
           y="190.56328">-2</tspan></text>
    </g>
  </g>
</svg>
